# Blender v3.6.0 OBJ File: 'floor.blend'
# www.blender.org
mtllib roof.mtl
o Cube_Cube.005
v -0.007436 0.000856 0.002924
v -0.007436 0.108515 0.002924
v -0.007436 0.000856 -2.986007
v -0.007436 0.108515 -2.986007
v 3.004441 0.000856 0.002924
v 3.004441 0.108515 0.002924
v 3.004441 0.000856 -2.986007
v 3.004441 0.108515 -2.986007
v -0.007436 0.000856 0.244650
v -0.007436 0.108515 0.244650
v 3.004441 0.108515 0.244650
v 3.004441 0.000856 0.244650
v 3.004441 0.259661 0.002924
v -0.007436 0.259661 0.002924
v 3.004441 0.259661 0.244650
v -0.007436 0.259661 0.244650
vt 0.645786 0.500178
vt 0.663645 0.500178
vt 0.663645 0.996015
vt 0.645786 0.996015
vt 0.609354 0.500178
vt 0.627214 0.500178
vt 0.627214 0.999822
vt 0.609354 0.999822
vt 0.645430 0.996015
vt 0.627570 0.996015
vt 0.627570 0.500178
vt 0.645430 0.500178
vt 0.000178 0.554331
vt 0.000178 0.536472
vt 0.040278 0.536472
vt 0.040278 0.554331
vt 0.499822 0.536116
vt 0.000178 0.536116
vt 0.000178 0.040278
vt 0.499822 0.040278
vt 0.996015 0.000178
vt 0.996015 0.499822
vt 0.500178 0.499822
vt 0.500178 0.000178
vt 0.543112 0.999822
vt 0.525252 0.999822
vt 0.525252 0.500178
vt 0.543112 0.500178
vt 0.000178 0.000178
vt 0.499822 0.000178
vt 0.040635 0.554331
vt 0.080735 0.554331
vt 0.080735 0.579405
vt 0.040635 0.579405
vt 0.080735 0.536472
vt 0.040635 0.536472
vt 0.583568 0.500178
vt 0.583568 0.999822
vt 0.543468 0.999822
vt 0.543468 0.500178
vt 0.040278 0.579405
vt 0.000178 0.579405
vt 0.500178 0.999822
vt 0.500178 0.500178
vt 0.583924 0.999822
vt 0.583924 0.500178
vt 0.608998 0.500178
vt 0.608998 0.999822
vn -1.0000 0.0000 0.0000
vn 0.0000 0.0000 -1.0000
vn 1.0000 0.0000 0.0000
vn 0.0000 -1.0000 0.0000
vn 0.0000 1.0000 0.0000
vn 0.0000 0.0000 1.0000
usemtl None
s off
f 1/1/1 2/2/1 4/3/1 3/4/1
f 3/5/2 4/6/2 8/7/2 7/8/2
f 7/9/3 8/10/3 6/11/3 5/12/3
f 2/13/1 1/14/1 9/15/1 10/16/1
f 3/17/4 7/18/4 5/19/4 1/20/4
f 8/21/5 4/22/5 2/23/5 6/24/5
f 12/25/6 11/26/6 10/27/6 9/28/6
f 1/20/4 5/19/4 12/29/4 9/30/4
f 11/31/3 6/32/3 13/33/3 15/34/3
f 5/35/3 6/32/3 11/31/3 12/36/3
f 13/37/5 14/38/5 16/39/5 15/40/5
f 2/13/1 10/16/1 16/41/1 14/42/1
f 10/27/6 11/26/6 15/43/6 16/44/6
f 6/45/2 2/46/2 14/47/2 13/48/2
