# Blender 3.6.0
# www.blender.org
mtllib panelhouse-wall.mtl
o Wood_Wall_Double_Cross_01
v -0.000000 2.200000 -0.500000
v 0.000000 2.200000 -0.000000
v -0.000000 -0.000000 -0.500000
v 0.000000 0.000000 0.000000
v -0.000000 -0.000000 -2.500000
v 0.000000 -0.000000 -3.000000
v 0.000000 2.200000 -3.000000
v -0.000000 2.200000 -2.500000
vn -1.0000 -0.0000 -0.0000
vn 1.0000 -0.0000 -0.0000
vt 0.000000 1.000000
vt -0.227273 1.000000
vt -0.227273 0.000000
vt 0.000000 0.000000
vt -1.363640 0.000000
vt -1.136360 0.000000
vt -1.136360 1.000000
vt -1.363640 1.000000
s 0
usemtl Wood
f 2/1/1 1/2/1 3/3/1 4/4/1
f 6/5/1 5/6/1 8/7/1 7/8/1
f 8/4/2 1/4/2 3/4/2 5/4/2
