# Blender v3.6.0 OBJ File: ''
# www.blender.org
mtllib balcony.mtl
o Plane046_Mesh.085
v 0.600000 0.001390 -0.006506
v 0.599999 0.001390 -5.261035
v 0.600001 2.401390 -0.006506
v 0.600000 2.401390 -5.261035
v 0.600001 2.401390 -0.311248
v 0.600000 0.001390 -0.311248
v 0.600000 2.401390 -4.844125
v 0.599999 0.001390 -4.844125
v -0.650000 0.001390 -0.311248
v -0.650001 0.001390 -4.844125
v -0.650000 2.401391 -4.844125
v -0.649999 2.401390 -0.311248
v 0.650001 2.401390 -0.006506
v 0.650000 0.001390 -0.006506
v 0.650000 0.001390 -0.311248
v 0.650001 2.401390 -0.311248
v 0.650000 2.401390 -5.261035
v 0.650000 2.401390 -4.844125
v 0.649999 0.001390 -4.844125
v 0.649999 0.001390 -5.261035
v 0.575000 0.962499 -0.311248
v 0.575000 0.962499 -4.844125
v 0.575000 2.270024 -4.844125
v 0.575001 2.270024 -0.311248
v 0.575000 0.962499 -2.762495
v 0.575000 2.270024 -2.762495
v 0.575000 1.022500 -4.784125
v 0.575000 2.210024 -4.784125
v 0.575000 2.210024 -2.822495
v 0.575000 1.022499 -2.822495
v 0.575000 2.210024 -2.702495
v 0.575001 2.210024 -0.371248
v 0.575000 1.022499 -0.371248
v 0.575000 1.022499 -2.702495
v 0.575000 2.210024 -2.099736
v 0.575000 2.210024 -0.974007
v 0.575000 1.022499 -0.974007
v 0.575000 1.022499 -2.099736
v 0.575000 1.877829 -2.039737
v 0.575000 1.022499 -1.506872
v 0.575000 1.817829 -1.506872
v 0.575000 2.210024 -2.039737
v 0.575000 2.210024 -1.034007
v 0.575000 1.022499 -1.034007
v 0.575000 1.022499 -2.039737
v 0.575000 1.817829 -1.034007
v 0.575000 1.877829 -1.034007
v 0.575000 1.817829 -2.039737
v 0.575000 1.022499 -1.566872
v 0.575000 1.817829 -1.566872
v 0.575000 2.210024 -3.853310
v 0.575000 1.022500 -3.753310
v 0.575000 1.768141 -4.784125
v 0.575000 1.868141 -2.822495
v 0.575000 1.868141 -3.753310
v 0.575000 2.210024 -4.318718
v 0.575000 1.022499 -3.262903
v 0.575000 2.210024 -3.287903
v 0.575000 1.022500 -4.343718
v 0.575000 1.868141 -4.268718
v 0.575000 1.768141 -3.262903
v 0.575000 2.210024 -3.753310
v 0.575000 1.022500 -3.853310
v 0.575000 1.868141 -4.784125
v 0.575000 1.768141 -2.822495
v 0.575000 1.768141 -3.753310
v 0.575000 1.768141 -3.853310
v 0.575000 1.868141 -3.853310
v 0.575000 1.022499 -3.362903
v 0.575000 1.022500 -4.243718
v 0.575000 1.022500 -4.243718
v 0.575000 1.768141 -4.243718
v 0.575000 1.768141 -4.343718
v 0.575000 1.768141 -3.362903
v 0.575000 1.868141 -3.287903
v 0.575000 2.210024 -4.268718
v 0.575000 2.210024 -3.337903
v 0.575000 2.210024 -3.337903
v 0.575000 1.868141 -4.318718
v 0.575000 1.868141 -3.337903
v 0.575000 1.370320 -4.784125
v 0.575000 1.370320 -2.822495
v 0.575000 1.370320 -4.343718
v 0.575000 1.370320 -3.262903
v 0.575000 1.420320 -4.784125
v 0.575000 1.420320 -2.822495
v 0.575000 1.415722 -4.343718
v 0.575000 1.420320 -3.262903
v 0.525000 1.022500 -4.784125
v 0.525000 1.370320 -4.784125
v 0.525000 1.370320 -4.343718
v 0.525000 1.022500 -4.343718
v 0.525000 2.210024 -2.039737
v 0.525000 2.210024 -1.034007
v 0.525000 1.877829 -1.034007
v 0.525000 1.877829 -2.039737
v 0.525001 2.210024 -0.371248
v 0.525000 1.022499 -0.371248
v 0.525000 1.022499 -0.974007
v 0.525000 2.210024 -0.974007
v 0.525000 2.210024 -2.702495
v 0.525000 2.210024 -2.099736
v 0.525000 1.022499 -2.099736
v 0.525000 1.022499 -2.702495
v 0.525000 1.022499 -1.034007
v 0.525000 1.022499 -1.506872
v 0.525000 1.817829 -1.506872
v 0.525000 1.817829 -1.034007
v 0.525000 1.022499 -2.039737
v 0.525000 1.817829 -2.039737
v 0.525000 1.817829 -1.566872
v 0.525000 1.022499 -1.566872
v 0.525000 2.210024 -3.753310
v 0.525000 2.210024 -3.337903
v 0.525000 1.868141 -3.337903
v 0.525000 1.868141 -3.753310
v 0.525000 2.210024 -4.784125
v 0.525000 2.210024 -4.318718
v 0.525000 1.868141 -4.318718
v 0.525000 1.868141 -4.784125
v 0.525000 1.768141 -2.822495
v 0.525000 1.420320 -2.822495
v 0.525000 1.420320 -3.262903
v 0.525000 1.768141 -3.262903
v 0.525000 1.022500 -3.853310
v 0.525000 1.022500 -4.243718
v 0.525000 1.768141 -4.243718
v 0.525000 1.768141 -3.853310
v 0.525000 2.210024 -2.822495
v 0.525000 1.868141 -2.822495
v 0.525000 1.868141 -3.287903
v 0.525000 2.210024 -3.287903
v 0.525000 2.210024 -3.853310
v 0.525000 1.868141 -3.853310
v 0.525000 1.868141 -4.268718
v 0.525000 2.210024 -4.268718
v 0.525000 1.022499 -3.362903
v 0.525000 1.022500 -3.753310
v 0.525000 1.768141 -3.753310
v 0.525000 1.768141 -3.362903
v 0.525000 1.768141 -4.784125
v 0.525000 1.768141 -4.343718
v 0.525000 1.415722 -4.343718
v 0.525000 1.420320 -4.784125
v 0.525000 1.022499 -2.822495
v 0.525000 1.022499 -3.262903
v 0.525000 1.370320 -3.262903
v 0.525000 1.370320 -2.822495
v 0.600000 0.001391 -0.311248
v 0.599999 0.001391 -4.844125
v 0.600000 0.962499 -4.844125
v 0.600000 0.962499 -2.762495
v 0.600000 0.962499 -0.311248
v 0.600000 2.401391 -4.844125
v 0.600001 2.401391 -0.311248
v 0.600001 2.270024 -0.311248
v 0.600000 2.270024 -2.762495
v 0.600000 2.270024 -4.844125
v 0.600001 0.962499 -0.311246
v 0.645067 0.920217 -0.311246
v 0.645065 0.920217 -4.844125
v 0.599999 0.962499 -4.844125
vt 0.197065 0.714481
vt 0.723195 0.569394
vt 0.723195 0.714481
vt 0.197065 0.569394
vt 0.868282 0.993048
vt 0.868282 0.714481
vt 0.723195 0.993048
vt 0.197065 0.993048
vt 0.051978 0.993048
vt 0.051978 0.714481
vt 0.010804 0.714481
vt 0.010804 0.993048
vt 0.005000 0.993048
vt 0.005000 0.714481
vt 0.046175 0.708677
vt 0.010804 0.708677
vt 0.046175 0.714481
vt 0.046175 0.993048
vt 0.874085 0.714481
vt 0.874085 0.993048
vt 0.922476 0.708678
vt 0.874085 0.708678
vt 0.922476 0.714481
vt 0.928279 0.993048
vt 0.928279 0.714481
vt 0.922476 0.993048
vt 0.426083 0.485780
vt 0.783671 0.320678
vt 0.783671 0.485780
vt 0.005000 0.320678
vt 0.005000 0.485780
vt 0.272848 0.497649
vt 0.348503 0.557399
vt 0.272848 0.557399
vt 0.348503 0.497649
vt 0.783671 0.295415
vt 0.005000 0.295415
vt 0.426083 0.272848
vt 0.005000 0.272848
vt 0.783671 0.272848
vt 0.005000 0.569394
vt 0.177767 0.569394
vt 0.005000 0.626459
vt 0.177767 0.626459
vt 0.783672 0.024132
vt 0.773365 0.094189
vt 0.773365 0.034439
vt 0.783672 0.248743
vt 0.613466 0.238436
vt 0.684826 0.238436
vt 0.426083 0.248743
vt 0.436390 0.179706
vt 0.436390 0.238436
vt 0.426083 0.024132
vt 0.529223 0.034439
vt 0.512044 0.034439
vt 0.129158 0.238436
vt 0.005000 0.248743
vt 0.301925 0.238436
vt 0.005000 0.024132
vt 0.015307 0.034439
vt 0.015307 0.238436
vt 0.118851 0.034439
vt 0.415776 0.238436
vt 0.415776 0.034439
vt 0.902522 0.005000
vt 0.902522 0.208997
vt 0.798978 0.208997
vt 0.798978 0.005000
vt 0.794195 0.424232
vt 0.897739 0.220235
vt 0.897739 0.424232
vt 0.794195 0.220235
vt 0.995000 0.289897
vt 0.913770 0.289897
vt 0.913770 0.153273
vt 0.995000 0.153273
vt 0.913770 0.141624
vt 0.995000 0.005000
vt 0.995000 0.141624
vt 0.913770 0.005000
vt 0.118851 0.238436
vt 0.129158 0.171063
vt 0.129158 0.181370
vt 0.301925 0.181370
vt 0.312232 0.238436
vt 0.210388 0.171063
vt 0.210388 0.034439
vt 0.220695 0.171063
vt 0.220695 0.034439
vt 0.683801 0.556379
vt 0.612441 0.556379
vt 0.683801 0.497649
vt 0.612441 0.497649
vt 0.005000 0.556379
vt 0.005000 0.497649
vt 0.084949 0.556379
vt 0.084949 0.497649
vt 0.520691 0.557399
vt 0.445036 0.557399
vt 0.445036 0.497649
vt 0.520691 0.497649
vt 0.880392 0.697483
vt 0.813327 0.569394
vt 0.880392 0.569394
vt 0.813327 0.697483
vt 0.175826 0.556379
vt 0.095877 0.556379
vt 0.175826 0.497649
vt 0.095877 0.497649
vt 0.602490 0.556379
vt 0.531130 0.556379
vt 0.602490 0.497649
vt 0.531130 0.497649
vt 0.736799 0.697483
vt 0.803864 0.569394
vt 0.803864 0.697483
vt 0.736799 0.569394
vt 0.613466 0.179706
vt 0.596288 0.179706
vt 0.613466 0.162528
vt 0.596288 0.162528
vt 0.697710 0.034439
vt 0.680532 0.034439
vt 0.680532 0.034439
vt 0.596288 0.238436
vt 0.596288 0.034439
vt 0.613466 0.034439
vt 0.773365 0.179706
vt 0.697710 0.162528
vt 0.773365 0.162528
vt 0.693416 0.179706
vt 0.436390 0.162528
vt 0.512044 0.162528
vt 0.516339 0.179706
vt 0.680532 0.162528
vt 0.684826 0.179706
vt 0.529223 0.162528
vt 0.524928 0.179706
vt 0.697710 0.101988
vt 0.512044 0.094189
vt 0.516339 0.238436
vt 0.524928 0.238436
vt 0.524928 0.238436
vt 0.693416 0.238436
vt 0.186754 0.558189
vt 0.262409 0.498439
vt 0.262409 0.558189
vt 0.186754 0.497649
vt 0.434596 0.557399
vt 0.358942 0.557399
vt 0.358942 0.497649
vt 0.434596 0.497649
vt 0.773365 0.102778
vt 0.697710 0.094189
vt 0.436390 0.094189
vt 0.436390 0.102778
vt 0.512044 0.102778
vt 0.301925 0.171063
vt 0.312232 0.034439
vt 0.301925 0.034439
vt 0.129158 0.034439
vt 0.436390 0.034439
vt 0.773365 0.238436
vt 0.764776 0.034439
vt 0.764776 0.094189
vt 0.134141 0.661291
vt 0.185259 0.655488
vt 0.185259 0.661291
vt 0.134141 0.655488
vt 0.706299 0.094189
vt 0.706299 0.034439
vt 0.964888 0.383878
vt 0.913770 0.383878
vt 0.913770 0.378074
vt 0.964888 0.378074
vt 0.005000 0.661291
vt 0.121735 0.655488
vt 0.121735 0.661291
vt 0.005000 0.655488
vt 0.137747 0.238436
vt 0.137747 0.181370
vt 0.121735 0.642160
vt 0.005000 0.642160
vt 0.005000 0.636356
vt 0.121735 0.636356
vt 0.293336 0.238436
vt 0.293336 0.181370
vt 0.023896 0.238436
vt 0.023896 0.034439
vt 0.763714 0.503453
vt 0.693752 0.503453
vt 0.693752 0.497649
vt 0.763714 0.497649
vt 0.110262 0.238436
vt 0.110262 0.034439
vt 0.794195 0.441273
vt 0.864157 0.435470
vt 0.864157 0.441273
vt 0.794195 0.435470
vt 0.086311 0.680424
vt 0.156273 0.674620
vt 0.156273 0.680424
vt 0.086311 0.674620
vt 0.320821 0.238436
vt 0.320821 0.034439
vt 0.074962 0.680423
vt 0.005000 0.680423
vt 0.005000 0.674620
vt 0.074962 0.674620
vt 0.407187 0.238436
vt 0.407187 0.034439
vt 0.968655 0.307349
vt 0.913770 0.307349
vt 0.913770 0.301546
vt 0.968655 0.301546
vt 0.201799 0.171063
vt 0.201799 0.034439
vt 0.794195 0.460405
vt 0.849080 0.454602
vt 0.849080 0.460405
vt 0.794195 0.454602
vt 0.137747 0.171063
vt 0.137747 0.034439
vt 0.293336 0.171063
vt 0.293336 0.034439
vt 0.693752 0.541716
vt 0.748637 0.535913
vt 0.748637 0.541716
vt 0.693752 0.535913
vt 0.229284 0.171063
vt 0.229284 0.034439
vt 0.748637 0.522584
vt 0.693752 0.522584
vt 0.693752 0.516781
vt 0.748637 0.516781
vt 0.915492 0.524934
vt 0.963708 0.519130
vt 0.963708 0.524934
vt 0.915492 0.519130
vt 0.533517 0.238436
vt 0.533517 0.179706
vt 0.963708 0.563198
vt 0.915492 0.563198
vt 0.915492 0.557394
vt 0.963708 0.557394
vt 0.587699 0.238436
vt 0.587699 0.179706
vt 0.913770 0.364745
vt 0.967789 0.358942
vt 0.967789 0.364745
vt 0.913770 0.358942
vt 0.702005 0.179706
vt 0.702005 0.238436
vt 0.848215 0.479537
vt 0.794195 0.479537
vt 0.794195 0.473734
vt 0.848215 0.473734
vt 0.764776 0.238436
vt 0.764776 0.179706
vt 0.444979 0.162528
vt 0.444979 0.102778
vt 0.811832 0.522585
vt 0.760714 0.522585
vt 0.760714 0.516781
vt 0.811832 0.516781
vt 0.503455 0.162528
vt 0.503455 0.102778
vt 0.760714 0.541717
vt 0.811832 0.535913
vt 0.811832 0.541717
vt 0.760714 0.535913
vt 0.960806 0.505802
vt 0.915492 0.505802
vt 0.915492 0.499998
vt 0.960806 0.499998
vt 0.671943 0.162528
vt 0.671943 0.034439
vt 0.915492 0.448406
vt 0.960806 0.442602
vt 0.960806 0.448406
vt 0.915492 0.442602
vt 0.622056 0.162528
vt 0.622056 0.034439
vt 0.444979 0.238436
vt 0.444979 0.179706
vt 0.913770 0.345614
vt 0.967790 0.339810
vt 0.967790 0.345614
vt 0.913770 0.339810
vt 0.507750 0.238436
vt 0.507750 0.179706
vt 0.913770 0.326481
vt 0.967790 0.320678
vt 0.967790 0.326481
vt 0.913770 0.320678
vt 0.622055 0.238436
vt 0.622055 0.179706
vt 0.963708 0.544065
vt 0.915492 0.544065
vt 0.915492 0.538262
vt 0.963708 0.538262
vt 0.676237 0.238436
vt 0.676237 0.179706
vt 0.915492 0.582330
vt 0.963708 0.576526
vt 0.963708 0.582330
vt 0.915492 0.576526
vt 0.960806 0.467538
vt 0.915492 0.467538
vt 0.915492 0.461734
vt 0.960806 0.461734
vt 0.587699 0.162528
vt 0.587699 0.034439
vt 0.915492 0.486670
vt 0.960806 0.480866
vt 0.960806 0.486670
vt 0.915492 0.480866
vt 0.537812 0.162528
vt 0.537812 0.034439
vt 0.775063 0.503453
vt 0.826181 0.497649
vt 0.826181 0.503453
vt 0.775063 0.497649
vt 0.706299 0.162528
vt 0.706299 0.101988
vt 0.185261 0.642160
vt 0.134141 0.642160
vt 0.134141 0.636356
vt 0.185261 0.636356
vt 0.764776 0.162528
vt 0.764776 0.102778
vt 0.964888 0.422142
vt 0.913770 0.422142
vt 0.913770 0.416338
vt 0.964888 0.416338
vt 0.503455 0.034439
vt 0.503455 0.094189
vt 0.964888 0.403009
vt 0.913770 0.403009
vt 0.913770 0.397206
vt 0.964888 0.397206
vt 0.444979 0.094189
vt 0.444979 0.034439
vt 0.426083 0.306329
vt 0.783671 0.310624
vt 0.426083 0.310624
vt 0.783671 0.306329
vt 0.005000 0.306329
vt 0.005000 0.310624
vt 0.362589 0.262793
vt 0.783672 0.258499
vt 0.783672 0.262793
vt 0.362589 0.258499
vt 0.005000 0.262793
vt 0.005000 0.258499
vt 0.005000 0.005000
vt 0.786517 0.005000
vt 0.005000 0.012770
vt 0.786517 0.012770
vn 0.0000 1.0000 0.0000
vn 0.0000 0.0000 1.0000
vn -0.0000 0.0000 -1.0000
vn 0.0000 -1.0000 0.0000
vn 1.0000 0.0000 -0.0000
vn 0.0000 nan nan
vn 0.0000 0.0000 0.0000
vn nan 0.0000 0.0000
vn 286170771955724159287296.0000 67720762704758969466880.0000 0.0000
vn 67720762704758969466880.0000 0.0000 0.0000
vn nan nan 0.0000
vn -0.7871 -0.0000 -0.6168
vn -0.2256 -0.0000 0.9742
vn 0.0000 0.0000 -0.6168
vn -0.7813 0.0000 0.6242
vn -0.2882 0.0000 -0.9576
vn 0.0000 0.0000 0.6242
vn 0.0000 0.9999 0.0104
vn 0.6842 0.7293 -0.0000
usemtl Balkon_03
s off
f 9/1/1 8/2/1 10/3/1
f 8/2/1 9/1/1 6/4/1
f 7/5/2 10/3/2 8/6/2
f 10/3/2 7/5/2 11/7/2
f 9/1/3 12/8/3 5/9/3
f 5/9/3 6/10/3 9/1/3
f 14/11/2 13/12/2 3/13/2
f 3/13/2 1/14/2 14/11/2
f 6/15/4 14/11/4 1/16/4
f 14/11/4 6/15/4 15/17/4
f 5/9/3 15/17/3 6/10/3
f 15/17/3 5/9/3 16/18/3
f 19/19/2 18/20/2 7/5/2
f 7/5/2 8/6/2 19/19/2
f 2/21/4 19/19/4 8/22/4
f 19/19/4 2/21/4 20/23/4
f 4/24/3 20/23/3 2/25/3
f 20/23/3 4/24/3 17/26/3
f 152/27/5 150/28/5 151/29/5
f 149/30/5 152/27/5 153/31/5
f 152/27/5 149/30/5 150/28/5
f 92/32/5 90/33/5 91/34/5
f 90/33/5 92/32/5 89/35/5
f 154/36/5 155/37/5 157/38/5
f 157/38/5 155/37/5 156/39/5
f 154/36/5 157/38/5 158/40/5
f 95/41/5 96/42/5 94/43/5
f 93/44/5 94/43/5 96/42/5
f 22/45/5 81/46/5 27/47/5
f 23/48/5 51/49/5 76/50/5
f 26/51/5 54/52/5 29/53/5
f 25/54/5 69/55/5 57/56/5
f 43/57/5 26/51/5 24/58/5
f 26/51/5 43/57/5 42/59/5
f 24/58/5 21/60/5 33/61/5
f 24/58/5 33/61/5 32/62/5
f 21/60/5 37/63/5 33/61/5
f 25/54/5 26/51/5 31/64/5
f 25/54/5 31/64/5 34/65/5
f 99/66/5 100/67/5 97/68/5
f 97/68/5 98/69/5 99/66/5
f 102/70/5 104/71/5 101/72/5
f 104/71/5 102/70/5 103/73/5
f 107/74/5 108/75/5 105/76/5
f 107/74/5 105/76/5 106/77/5
f 111/78/5 109/79/5 110/80/5
f 109/79/5 111/78/5 112/81/5
f 36/82/5 46/83/5 47/84/5
f 36/82/5 37/63/5 46/83/5
f 39/85/5 35/86/5 42/59/5
f 41/87/5 47/84/5 46/83/5
f 41/87/5 40/88/5 50/89/5
f 50/89/5 40/88/5 49/90/5
f 113/91/5 114/92/5 116/93/5
f 114/92/5 115/94/5 116/93/5
f 118/95/5 119/96/5 117/97/5
f 117/97/5 119/96/5 120/98/5
f 124/99/5 121/100/5 122/101/5
f 124/99/5 122/101/5 123/102/5
f 127/103/5 125/104/5 126/105/5
f 125/104/5 127/103/5 128/106/5
f 132/107/5 129/108/5 131/109/5
f 129/108/5 130/110/5 131/109/5
f 136/111/5 133/112/5 135/113/5
f 133/112/5 134/114/5 135/113/5
f 140/115/5 138/116/5 139/117/5
f 138/116/5 140/115/5 137/118/5
f 68/119/5 55/120/5 67/121/5
f 55/120/5 66/122/5 67/121/5
f 59/123/6 70/124/7 71/125/8
f 62/126/5 55/120/5 51/49/5
f 51/49/5 55/120/5 68/119/5
f 52/127/5 67/121/5 66/122/5
f 67/121/5 52/127/5 63/128/5
f 64/129/5 73/130/5 53/131/5
f 73/130/5 64/129/5 79/132/5
f 65/133/5 61/134/5 54/52/5
f 75/135/5 54/52/5 61/134/5
f 68/119/5 72/136/5 60/137/5
f 72/136/5 68/119/5 67/121/5
f 74/138/5 55/120/5 80/139/5
f 55/120/5 74/138/5 66/122/5
f 73/130/5 72/136/5 87/140/5
f 57/56/5 69/55/5 84/141/5
f 58/142/9 77/143/10 78/144/11
f 60/137/5 72/136/5 73/130/5
f 60/137/5 73/130/5 79/132/5
f 75/135/5 61/134/5 74/138/5
f 75/135/5 74/138/5 80/139/5
f 58/142/5 75/135/5 77/143/5
f 77/143/5 75/135/5 80/139/5
f 76/50/5 60/137/5 56/145/5
f 56/145/5 60/137/5 79/132/5
f 142/146/5 144/147/5 141/148/5
f 144/147/5 142/146/5 143/149/5
f 147/150/5 148/151/5 145/152/5
f 147/150/5 145/152/5 146/153/5
f 87/140/5 81/46/5 85/154/5
f 81/46/5 87/140/5 83/155/5
f 82/156/5 84/141/5 86/157/5
f 88/158/5 86/157/5 84/141/5
f 48/159/5 35/86/5 39/85/5
f 38/160/5 35/86/5 48/159/5
f 48/159/5 45/161/5 38/160/5
f 41/87/5 39/85/5 47/84/5
f 39/85/5 41/87/5 50/89/5
f 50/89/5 48/159/5 39/85/5
f 47/84/5 43/57/5 36/82/5
f 37/63/5 44/162/5 46/83/5
f 21/60/5 44/162/5 37/63/5
f 21/60/5 40/88/5 44/162/5
f 25/54/5 34/65/5 38/160/5
f 25/54/5 38/160/5 45/161/5
f 25/54/5 45/161/5 49/90/5
f 25/54/5 40/88/5 21/60/5
f 40/88/5 25/54/5 49/90/5
f 24/58/5 32/62/5 36/82/5
f 24/58/5 36/82/5 43/57/5
f 35/86/5 31/64/5 26/51/5
f 42/59/5 35/86/5 26/51/5
f 65/133/5 26/51/5 25/54/5
f 26/51/5 65/133/5 54/52/5
f 25/54/5 30/163/5 82/156/5
f 25/54/5 82/156/5 86/157/5
f 25/54/5 86/157/5 65/133/5
f 57/56/5 30/163/5 25/54/5
f 25/54/5 52/127/5 69/55/5
f 22/45/5 27/47/5 59/123/5
f 22/45/5 59/123/5 71/125/5
f 22/45/5 52/127/5 25/54/5
f 52/127/5 22/45/5 63/128/5
f 22/45/5 70/124/5 63/128/5
f 70/124/12 22/45/13 71/125/14
f 74/138/5 61/134/5 88/158/5
f 69/55/5 74/138/5 88/158/5
f 69/55/5 88/158/5 84/141/5
f 72/136/5 70/124/5 87/140/5
f 87/140/5 70/124/5 83/155/5
f 70/124/5 59/123/5 83/155/5
f 22/45/5 85/154/5 81/46/5
f 22/45/5 53/131/5 85/154/5
f 23/48/5 53/131/5 22/45/5
f 53/131/5 23/48/5 64/129/5
f 23/48/5 28/164/5 64/129/5
f 26/51/5 29/53/5 58/142/5
f 26/51/5 58/142/5 78/144/5
f 26/51/5 77/143/5 62/126/5
f 77/143/15 26/51/16 78/144/17
f 56/145/5 28/164/5 23/48/5
f 76/50/5 56/145/5 23/48/5
f 26/51/5 51/49/5 23/48/5
f 51/49/5 26/51/5 62/126/5
f 81/46/2 89/165/2 27/47/2
f 89/165/2 81/46/2 90/166/2
f 90/167/4 83/168/4 91/169/4
f 83/168/4 90/167/4 81/170/4
f 91/171/3 59/123/3 92/172/3
f 59/123/3 91/171/3 83/155/3
f 89/173/1 92/174/1 59/175/1
f 59/175/1 27/176/1 89/173/1
f 93/177/4 43/178/4 94/179/4
f 43/178/4 93/177/4 42/180/4
f 94/181/3 47/84/3 95/182/3
f 47/84/3 94/181/3 43/57/3
f 96/183/1 95/184/1 47/185/1
f 47/185/1 39/186/1 96/183/1
f 93/187/2 39/85/2 42/59/2
f 39/85/2 93/187/2 96/188/2
f 97/189/3 33/61/3 98/190/3
f 33/61/3 97/189/3 32/62/3
f 99/191/1 98/192/1 33/193/1
f 33/193/1 37/194/1 99/191/1
f 100/195/2 37/63/2 36/82/2
f 37/63/2 100/195/2 99/196/2
f 100/197/4 32/198/4 97/199/4
f 32/198/4 100/197/4 36/200/4
f 101/201/4 35/202/4 102/203/4
f 35/202/4 101/201/4 31/204/4
f 102/205/3 38/160/3 103/206/3
f 38/160/3 102/205/3 35/86/3
f 104/207/1 103/208/1 38/209/1
f 38/209/1 34/210/1 104/207/1
f 101/211/2 34/65/2 31/64/2
f 34/65/2 101/211/2 104/212/2
f 106/213/1 105/214/1 44/215/1
f 44/215/1 40/216/1 106/213/1
f 107/217/2 40/88/2 41/87/2
f 40/88/2 107/217/2 106/218/2
f 107/219/4 46/220/4 108/221/4
f 46/220/4 107/219/4 41/222/4
f 108/223/3 44/162/3 105/224/3
f 44/162/3 108/223/3 46/83/3
f 110/225/2 45/161/2 48/159/2
f 45/161/2 110/225/2 109/226/2
f 110/227/4 50/228/4 111/229/4
f 50/228/4 110/227/4 48/230/4
f 111/231/3 49/90/3 112/232/3
f 49/90/3 111/231/3 50/89/3
f 109/233/1 112/234/1 49/235/1
f 49/235/1 45/236/1 109/233/1
f 113/237/4 77/238/4 114/239/4
f 77/238/4 113/237/4 62/240/4
f 114/241/3 80/139/3 115/242/3
f 80/139/3 114/241/3 77/143/3
f 116/243/1 115/244/1 80/245/1
f 80/245/1 55/246/1 116/243/1
f 113/247/2 55/120/2 62/126/2
f 55/120/2 113/247/2 116/248/2
f 117/249/4 56/250/4 118/251/4
f 56/250/4 117/249/4 28/252/4
f 119/253/3 118/254/3 56/145/3
f 56/145/3 79/132/3 119/253/3
f 120/255/1 119/256/1 79/257/1
f 79/257/1 64/258/1 120/255/1
f 117/259/2 64/129/2 28/164/2
f 64/129/2 117/259/2 120/260/2
f 121/261/3 86/157/3 122/262/3
f 86/157/3 121/261/3 65/133/3
f 123/263/1 122/264/1 86/265/1
f 86/265/1 88/266/1 123/263/1
f 124/267/2 88/158/2 61/134/2
f 88/158/2 124/267/2 123/268/2
f 124/269/4 65/270/4 121/271/4
f 65/270/4 124/269/4 61/272/4
f 126/273/1 125/274/1 63/275/1
f 63/275/1 70/276/1 126/273/1
f 127/277/2 70/124/2 72/136/2
f 70/124/2 127/277/2 126/278/2
f 127/279/4 67/280/4 128/281/4
f 67/280/4 127/279/4 72/282/4
f 128/283/3 63/128/3 125/284/3
f 63/128/3 128/283/3 67/121/3
f 129/285/3 54/52/3 130/286/3
f 54/52/3 129/285/3 29/53/3
f 130/287/1 75/288/1 131/289/1
f 75/288/1 130/287/1 54/290/1
f 132/291/2 75/135/2 58/142/2
f 75/135/2 132/291/2 131/292/2
f 132/293/4 29/294/4 129/295/4
f 29/294/4 132/293/4 58/296/4
f 133/297/3 68/119/3 134/298/3
f 68/119/3 133/297/3 51/49/3
f 135/299/1 134/300/1 68/301/1
f 68/301/1 60/302/1 135/299/1
f 136/303/2 60/137/2 76/50/2
f 60/137/2 136/303/2 135/304/2
f 136/305/4 51/306/4 133/307/4
f 51/306/4 136/305/4 76/308/4
f 138/309/1 137/310/1 69/311/1
f 69/311/1 52/312/1 138/309/1
f 139/313/2 52/127/2 66/122/2
f 52/127/2 139/313/2 138/314/2
f 139/315/4 74/316/4 140/317/4
f 74/316/4 139/315/4 66/318/4
f 140/319/3 69/55/3 137/320/3
f 69/55/3 140/319/3 74/138/3
f 141/321/4 73/322/4 142/323/4
f 73/322/4 141/321/4 53/324/4
f 142/325/3 87/140/3 143/326/3
f 87/140/3 142/325/3 73/130/3
f 144/327/18 143/328/18 87/329/18
f 87/329/18 85/330/18 144/327/18
f 141/331/2 85/154/2 53/131/2
f 85/154/2 141/331/2 144/332/2
f 146/333/1 145/334/1 30/335/1
f 30/335/1 57/336/1 146/333/1
f 84/141/2 146/337/2 57/56/2
f 146/337/2 84/141/2 147/338/2
f 148/339/4 147/340/4 84/341/4
f 84/341/4 82/342/4 148/339/4
f 148/343/3 30/163/3 145/344/3
f 30/163/3 148/343/3 82/156/3
f 152/345/1 22/346/1 25/347/1
f 22/346/1 152/345/1 151/348/1
f 153/349/1 25/347/1 21/350/1
f 25/347/1 153/349/1 152/345/1
f 26/351/4 156/352/4 24/353/4
f 156/352/4 26/351/4 157/354/4
f 23/355/4 157/354/4 26/351/4
f 157/354/4 23/355/4 158/356/4
f 160/357/19 161/358/19 159/359/19
f 159/359/19 161/358/19 162/360/19
s 1
f 13/12/5 14/11/5 16/18/5
f 16/18/5 14/11/5 15/17/5
f 12/8/5 10/3/5 11/7/5
f 10/3/5 12/8/5 9/1/5
f 18/20/5 20/23/5 17/26/5
f 20/23/5 18/20/5 19/19/5
