# Blender 3.6.0
# www.blender.org
mtllib roof_wide.mtl
o Cube.002_Cube.007
v -0.193223 0.000938 0.178867
v -0.193223 0.118953 0.178867
v -0.193223 0.118953 -3.144710
v -0.193223 0.000938 -3.144710
v 3.126610 0.118953 -3.144710
v 3.126610 0.000938 -3.144710
v 3.126610 0.118953 0.178867
v 3.126610 0.000938 0.178867
vn -1.0000 -0.0000 -0.0000
vn -0.0000 -0.0000 -1.0000
vn 1.0000 -0.0000 -0.0000
vn -0.0000 -1.0000 -0.0000
vn -0.0000 1.0000 -0.0000
vn -0.0000 -0.0000 1.0000
vt 0.054549 0.500137
vt 0.072411 0.500137
vt 0.072411 0.996055
vt 0.054549 0.996055
vt 0.000137 0.500137
vt 0.018000 0.500137
vt 0.018000 0.999863
vt 0.000137 0.999863
vt 0.054274 0.996056
vt 0.036411 0.996056
vt 0.036412 0.500137
vt 0.054274 0.500137
vt 0.996056 0.496056
vt 0.496330 0.496056
vt 0.496330 0.000137
vt 0.996056 0.000137
vt 0.496056 0.000137
vt 0.496056 0.499863
vt 0.000137 0.499863
vt 0.000137 0.000137
vt 0.018274 0.999863
vt 0.018274 0.500137
vt 0.036137 0.500137
vt 0.036137 0.999863
s 1
g Cube.002_Cube.007_None
usemtl None
f 1/1/1 2/2/1 3/3/1 4/4/1
f 4/5/2 3/6/2 5/7/2 6/8/2
f 6/9/3 5/10/3 7/11/3 8/12/3
f 4/13/4 6/14/4 8/15/4 1/16/4
f 5/17/5 3/18/5 2/19/5 7/20/5
f 1/21/6 8/22/6 7/23/6 2/24/6
