# Blender 3.6.0
# www.blender.org
mtllib NY_roof2.mtl
o LEDGE_01_DEF.obj
v -0.018742 -0.113753 -0.147219
v -0.018742 0.136247 -0.147219
v 2.988707 0.136247 -0.147219
v 2.988707 -0.113753 -0.147219
v 2.236845 -0.363753 -0.096873
v 2.236845 -0.113753 -0.096873
v 2.236845 -0.113753 0.154854
v 2.424810 -0.363753 -0.096873
v 2.424810 -0.113753 -0.096873
v 2.424810 -0.113753 0.154854
v 2.612776 -0.363753 -0.096873
v 2.612776 -0.113753 -0.096873
v 2.612776 -0.113753 0.154854
v 2.800741 -0.363753 -0.096873
v 2.800741 -0.113753 -0.096873
v 2.800741 -0.113753 0.154854
v 0.733120 -0.363753 -0.096873
v 0.733120 -0.113753 -0.096873
v 0.733120 -0.113753 0.154854
v 0.545154 -0.363753 -0.096873
v 0.545154 -0.113753 -0.096873
v 0.545154 -0.113753 0.154854
v 0.357189 -0.363753 -0.096873
v 0.357189 -0.113753 -0.096873
v 0.357189 -0.113753 0.154854
v 0.169223 -0.363753 -0.096873
v 0.169223 -0.113753 -0.096873
v 0.169223 -0.113753 0.154854
v 1.297017 -0.363753 -0.096873
v 1.297017 -0.113753 -0.096873
v 1.297017 -0.113753 0.154854
v 1.109051 -0.363753 -0.096873
v 1.109051 -0.113753 -0.096873
v 1.109051 -0.113753 0.154854
v 1.672948 -0.363753 -0.096873
v 1.672948 -0.113753 -0.096873
v 1.672948 -0.113753 0.154854
v 1.860913 -0.363753 -0.096873
v 1.860913 -0.113753 -0.096873
v 1.860913 -0.113753 0.154854
v -0.018742 0.136247 0.406582
v 2.988707 0.136247 0.406582
v -0.018742 -0.113753 0.344580
v 2.988707 -0.113753 0.344580
v -0.018742 -0.052176 0.406582
v 2.988707 -0.052176 0.406582
v 2.236845 -0.337669 0.057509
v 2.236845 -0.375716 -0.010624
v 2.424810 -0.375716 -0.010624
v 2.424810 -0.337669 0.057509
v 2.612776 -0.337669 0.057509
v 2.612776 -0.375716 -0.010624
v 2.800741 -0.375716 -0.010624
v 2.800741 -0.337669 0.057509
v 0.733120 -0.375716 -0.010624
v 0.733120 -0.337669 0.057509
v 0.545154 -0.375716 -0.010624
v 0.545154 -0.337669 0.057509
v 0.357189 -0.375716 -0.010624
v 0.357189 -0.337669 0.057509
v 0.169223 -0.375716 -0.010624
v 0.169223 -0.337669 0.057509
v 1.297017 -0.375716 -0.010624
v 1.297017 -0.337669 0.057509
v 1.109051 -0.375716 -0.010624
v 1.109051 -0.337669 0.057509
v 1.672948 -0.337669 0.057509
v 1.672948 -0.375716 -0.010624
v 1.860913 -0.375716 -0.010624
v 1.860913 -0.337669 0.057509
v -0.018230 0.011515 -0.035217
v -0.018230 0.059507 -0.035217
v -0.018230 0.011514 -3.044805
v -0.018230 0.059506 -3.044805
v 3.025141 0.011515 -0.035217
v 3.025141 0.059507 -0.035217
v 3.025141 0.011514 -3.044805
v 3.025141 0.059506 -3.044805
v -0.018230 0.011515 0.208180
v -0.018230 0.059507 0.208180
v 3.025141 0.059507 0.208180
v 3.025141 0.011515 0.208180
v 3.025141 0.126884 -0.035217
v -0.018230 0.126884 -0.035217
v 3.025141 0.126884 0.208180
v -0.018230 0.126884 0.208180
vn -0.0000 -0.0000 -1.0000
vn -0.0000 1.0000 -0.0000
vn -0.0000 -1.0000 -0.0000
vn -0.0000 -0.0000 1.0000
vn -0.0000 -0.7095 0.7047
vn -1.0000 -0.0000 -0.0000
vn 1.0000 -0.0000 -0.0000
vn -0.0000 -0.9905 -0.1374
vn -0.0000 -0.3987 0.9171
vn -0.0000 -0.8731 0.4876
vt 0.872589 0.500357
vt 0.872589 0.999643
vt 0.841384 0.999643
vt 0.841384 0.500357
vt 0.910036 0.499643
vt 0.841384 0.499643
vt 0.841384 0.000357
vt 0.910036 0.000357
vt 0.910750 0.499643
vt 0.910750 0.000357
vt 0.971716 0.000357
vt 0.971716 0.499643
vt 0.995950 0.499643
vt 0.972430 0.499643
vt 0.972430 0.000357
vt 0.995950 0.000357
vt 0.884174 0.999643
vt 0.873304 0.999643
vt 0.873304 0.500357
vt 0.884174 0.500357
vt 0.105534 0.574809
vt 0.077756 0.560591
vt 0.105534 0.506321
vt 0.549158 0.515622
vt 0.543533 0.538459
vt 0.543533 0.506321
vt 0.013767 0.567433
vt 0.045047 0.506321
vt 0.045047 0.574809
vt 0.106248 0.506321
vt 0.137454 0.506321
vt 0.106248 0.567287
vt 0.555497 0.538459
vt 0.549872 0.515622
vt 0.555497 0.506321
vt 0.077041 0.574809
vt 0.045761 0.513697
vt 0.077041 0.506321
vt 0.579232 0.537526
vt 0.579232 0.506321
vt 0.590027 0.506321
vt 0.590027 0.537526
vt 0.512375 0.506321
vt 0.542819 0.506321
vt 0.542819 0.537526
vt 0.512375 0.537526
vt 0.556212 0.537526
vt 0.556212 0.506321
vt 0.567007 0.506321
vt 0.567007 0.537526
vt 0.387744 0.538241
vt 0.418188 0.538241
vt 0.418188 0.569446
vt 0.387744 0.569446
vt 0.583692 0.539173
vt 0.583692 0.570379
vt 0.572897 0.570379
vt 0.572897 0.539173
vt 0.450060 0.506321
vt 0.480503 0.506321
vt 0.480503 0.537526
vt 0.450060 0.537526
vt 0.578517 0.506321
vt 0.578517 0.537526
vt 0.567722 0.537526
vt 0.567722 0.506321
vt 0.481218 0.506321
vt 0.511661 0.506321
vt 0.511661 0.537526
vt 0.481218 0.537526
vt 0.332643 0.540909
vt 0.332643 0.572115
vt 0.321848 0.572115
vt 0.321848 0.540909
vt 0.387744 0.506321
vt 0.418188 0.506321
vt 0.418188 0.537526
vt 0.387744 0.537526
vt 0.365830 0.571983
vt 0.365830 0.540778
vt 0.376626 0.540778
vt 0.376626 0.571983
vt 0.418902 0.506321
vt 0.449346 0.506321
vt 0.449346 0.537526
vt 0.418902 0.537526
vt 0.136746 0.599206
vt 0.127056 0.599206
vt 0.127056 0.568001
vt 0.136746 0.568001
vt 0.126342 0.599206
vt 0.116652 0.599206
vt 0.116652 0.568001
vt 0.126342 0.568001
vt 0.594097 0.570379
vt 0.584407 0.570379
vt 0.584407 0.539173
vt 0.594097 0.539173
vt 0.115938 0.599206
vt 0.106248 0.599206
vt 0.106248 0.568001
vt 0.115938 0.568001
vt 0.387030 0.571983
vt 0.377340 0.571983
vt 0.377340 0.540778
vt 0.387030 0.540778
vt 0.600432 0.537526
vt 0.590742 0.537526
vt 0.590742 0.506321
vt 0.600432 0.506321
vt 0.292484 0.540909
vt 0.321133 0.553279
vt 0.292484 0.571353
vt 0.272773 0.506321
vt 0.272773 0.540195
vt 0.263121 0.507174
vt 0.210343 0.540723
vt 0.200644 0.511063
vt 0.210343 0.506321
vt 0.447551 0.556315
vt 0.418902 0.568684
vt 0.418902 0.538241
vt 0.328303 0.540063
vt 0.325320 0.506321
vt 0.335009 0.506321
vt 0.147866 0.511063
vt 0.138168 0.540723
vt 0.138168 0.506321
vt 0.138168 0.541438
vt 0.166817 0.553807
vt 0.138168 0.571881
vt 0.283139 0.506321
vt 0.283139 0.540195
vt 0.273487 0.507174
vt 0.220755 0.540723
vt 0.211057 0.511063
vt 0.220755 0.506321
vt 0.476915 0.556315
vt 0.448266 0.568684
vt 0.448266 0.538241
vt 0.158279 0.511063
vt 0.148581 0.540723
vt 0.148581 0.506321
vt 0.338707 0.540063
vt 0.335724 0.506321
vt 0.345414 0.506321
vt 0.167531 0.541438
vt 0.196181 0.553807
vt 0.167531 0.571881
vt 0.231168 0.540723
vt 0.221470 0.511063
vt 0.231168 0.506321
vt 0.293506 0.506321
vt 0.293506 0.540195
vt 0.283854 0.507174
vt 0.506278 0.556315
vt 0.477629 0.568684
vt 0.477629 0.538241
vt 0.168692 0.511063
vt 0.158993 0.540723
vt 0.158993 0.506321
vt 0.349111 0.540063
vt 0.346128 0.506321
vt 0.355818 0.506321
vt 0.196895 0.541438
vt 0.225544 0.553807
vt 0.196895 0.571881
vt 0.241581 0.540723
vt 0.231883 0.511063
vt 0.241581 0.506321
vt 0.303872 0.506321
vt 0.303872 0.540195
vt 0.294220 0.507174
vt 0.535642 0.556315
vt 0.506993 0.568684
vt 0.506993 0.538241
vt 0.179104 0.511063
vt 0.169406 0.540723
vt 0.169406 0.506321
vt 0.359515 0.540063
vt 0.356532 0.506321
vt 0.366222 0.506321
vt 0.226259 0.541438
vt 0.254908 0.553807
vt 0.226259 0.571881
vt 0.251994 0.540723
vt 0.242295 0.511063
vt 0.251994 0.506321
vt 0.314239 0.506321
vt 0.314239 0.540195
vt 0.304587 0.507174
vt 0.543533 0.539173
vt 0.572182 0.551543
vt 0.543533 0.569617
vt 0.324605 0.506321
vt 0.324605 0.540195
vt 0.314953 0.507174
vt 0.262406 0.540723
vt 0.252708 0.511063
vt 0.262406 0.506321
vt 0.364373 0.558851
vt 0.335724 0.571221
vt 0.335724 0.540778
vt 0.369919 0.540063
vt 0.366936 0.506321
vt 0.376626 0.506321
vt 0.189517 0.511063
vt 0.179819 0.540723
vt 0.179819 0.506321
vt 0.291770 0.558983
vt 0.263121 0.571353
vt 0.263121 0.540909
vt 0.380324 0.540063
vt 0.377340 0.506321
vt 0.387030 0.506321
vt 0.199930 0.511063
vt 0.190232 0.540723
vt 0.190232 0.506321
vt 0.013052 0.879403
vt 0.007062 0.879403
vt 0.007062 0.506321
vt 0.013052 0.506321
vt 0.833965 0.505606
vt 0.827974 0.505606
vt 0.827974 0.000357
vt 0.833965 0.000357
vt 0.006348 0.879403
vt 0.000357 0.879403
vt 0.000357 0.506321
vt 0.006348 0.506321
vt 0.255622 0.541438
vt 0.261612 0.541438
vt 0.261612 0.571610
vt 0.255622 0.571610
vt 0.374154 0.505606
vt 0.374154 0.000357
vt 0.747237 0.000357
vt 0.747237 0.505606
vt 0.373440 0.000357
vt 0.373440 0.505606
vt 0.000357 0.505607
vt 0.000357 0.000357
vt 0.834679 0.000357
vt 0.840670 0.000357
vt 0.840670 0.505606
vt 0.834679 0.505606
vt 0.778838 0.505606
vt 0.778838 0.000357
vt 0.809011 0.000357
vt 0.809011 0.505606
vt 0.436437 0.569398
vt 0.436437 0.599571
vt 0.428027 0.599571
vt 0.428027 0.569398
vt 0.536828 0.538241
vt 0.542819 0.538241
vt 0.542819 0.568413
vt 0.536828 0.568413
vt 0.778124 0.000357
vt 0.778124 0.505606
vt 0.747951 0.505606
vt 0.747951 0.000357
vt 0.427312 0.569398
vt 0.427312 0.599571
vt 0.418902 0.599571
vt 0.418902 0.569398
vt 0.809725 0.505606
vt 0.809725 0.000357
vt 0.818135 0.000357
vt 0.818135 0.505606
vt 0.827260 0.000357
vt 0.827260 0.505606
vt 0.818850 0.505606
vt 0.818850 0.000357
s 0
g LEDGE_01_DEF.obj_SU_COLOR.002
usemtl SU_COLOR.002
f 2/1/1 3/2/1 4/3/1 1/4/1
f 42/5/2 3/6/2 2/7/2 41/8/2
f 1/9/3 4/10/3 44/11/3 43/12/3
f 46/13/4 42/14/4 41/15/4 45/16/4
f 45/17/5 43/18/5 44/19/5 46/20/5
f 2/21/6 1/22/6 43/23/6
f 45/24/6 41/25/6 43/26/6
f 41/27/6 2/28/6 43/29/6
f 4/30/7 3/31/7 44/32/7
f 42/33/7 46/34/7 44/35/7
f 3/36/7 42/37/7 44/38/7
f 5/39/8 8/40/8 49/41/8 48/42/8
f 50/43/9 10/44/9 7/45/9 47/46/9
f 11/47/8 14/48/8 53/49/8 52/50/8
f 54/51/9 16/52/9 13/53/9 51/54/9
f 55/55/8 57/56/8 20/57/8 17/58/8
f 56/59/9 19/60/9 22/61/9 58/62/9
f 59/63/8 61/64/8 26/65/8 23/66/8
f 60/67/9 25/68/9 28/69/9 62/70/9
f 63/71/8 65/72/8 32/73/8 29/74/8
f 64/75/9 31/76/9 34/77/9 66/78/9
f 35/79/8 38/80/8 69/81/8 68/82/8
f 70/83/9 40/84/9 37/85/9 67/86/9
f 47/87/10 48/88/10 49/89/10 50/90/10
f 51/91/10 52/92/10 53/93/10 54/94/10
f 58/95/10 57/96/10 55/97/10 56/98/10
f 62/99/10 61/100/10 59/101/10 60/102/10
f 66/103/10 65/104/10 63/105/10 64/106/10
f 67/107/10 68/108/10 69/109/10 70/110/10
f 7/111/6 6/112/6 47/113/6
f 47/114/6 6/115/6 48/116/6
f 6/117/6 5/118/6 48/119/6
f 9/120/7 10/121/7 50/122/7
f 9/123/7 50/124/7 49/125/7
f 8/126/7 9/127/7 49/128/7
f 13/129/6 12/130/6 51/131/6
f 51/132/6 12/133/6 52/134/6
f 12/135/6 11/136/6 52/137/6
f 18/138/7 19/139/7 56/140/7
f 17/141/7 18/142/7 55/143/7
f 18/144/7 56/145/7 55/146/7
f 22/147/6 21/148/6 58/149/6
f 21/150/6 20/151/6 57/152/6
f 58/153/6 21/154/6 57/155/6
f 24/156/7 25/157/7 60/158/7
f 23/159/7 24/160/7 59/161/7
f 24/162/7 60/163/7 59/164/7
f 28/165/6 27/166/6 62/167/6
f 27/168/6 26/169/6 61/170/6
f 62/171/6 27/172/6 61/173/6
f 30/174/7 31/175/7 64/176/7
f 29/177/7 30/178/7 63/179/7
f 30/180/7 64/181/7 63/182/7
f 34/183/6 33/184/6 66/185/6
f 33/186/6 32/187/6 65/188/6
f 66/189/6 33/190/6 65/191/6
f 37/192/6 36/193/6 67/194/6
f 67/195/6 36/196/6 68/197/6
f 36/198/6 35/199/6 68/200/6
f 39/201/7 40/202/7 70/203/7
f 39/204/7 70/205/7 69/206/7
f 38/207/7 39/208/7 69/209/7
f 15/210/7 16/211/7 54/212/7
f 15/213/7 54/214/7 53/215/7
f 14/216/7 15/217/7 53/218/7
g LEDGE_01_DEF.obj_None.002
usemtl None.002
f 71/219/6 72/220/6 74/221/6 73/222/6
f 73/223/1 74/224/1 78/225/1 77/226/1
f 77/227/7 78/228/7 76/229/7 75/230/7
f 72/231/6 71/232/6 79/233/6 80/234/6
f 73/235/3 77/236/3 75/237/3 71/238/3
f 78/239/2 74/240/2 72/241/2 76/242/2
f 82/243/4 81/244/4 80/245/4 79/246/4
f 71/247/3 75/248/3 82/249/3 79/250/3
f 81/251/7 76/252/7 83/253/7 85/254/7
f 75/255/7 76/256/7 81/257/7 82/258/7
f 83/259/2 84/260/2 86/261/2 85/262/2
f 72/263/6 80/264/6 86/265/6 84/266/6
f 80/267/4 81/268/4 85/269/4 86/270/4
f 76/271/1 72/272/1 84/273/1 83/274/1
