# Blender 3.6.0
# www.blender.org
mtllib NY_roof3.mtl
o LEDGE_01_DEF.obj
v -0.068786 -0.113753 -0.154241
v -0.068786 0.136247 -0.154241
v 2.938663 0.136247 -0.154241
v 2.938663 -0.113753 -0.154241
v 2.186801 -0.363753 -0.104607
v 2.186801 -0.113753 -0.104607
v 2.186801 -0.113753 0.143565
v 2.374767 -0.363753 -0.104607
v 2.374767 -0.113753 -0.104607
v 2.374767 -0.113753 0.143565
v 2.562732 -0.363753 -0.104607
v 2.562732 -0.113753 -0.104607
v 2.562732 -0.113753 0.143565
v 2.750698 -0.363753 -0.104607
v 2.750698 -0.113753 -0.104607
v 2.750698 -0.113753 0.143565
v 0.683077 -0.363753 -0.104607
v 0.683077 -0.113753 -0.104607
v 0.683077 -0.113753 0.143565
v 0.495111 -0.363753 -0.104607
v 0.495111 -0.113753 -0.104607
v 0.495111 -0.113753 0.143565
v 0.307145 -0.363753 -0.104607
v 0.307145 -0.113753 -0.104607
v 0.307145 -0.113753 0.143565
v 0.119180 -0.363753 -0.104607
v 0.119180 -0.113753 -0.104607
v 0.119180 -0.113753 0.143565
v 1.246973 -0.363753 -0.104607
v 1.246973 -0.113753 -0.104607
v 1.246973 -0.113753 0.143565
v 1.059008 -0.363753 -0.104607
v 1.059008 -0.113753 -0.104607
v 1.059008 -0.113753 0.143565
v 1.622904 -0.363753 -0.104607
v 1.622904 -0.113753 -0.104607
v 1.622904 -0.113753 0.143565
v 1.810870 -0.363753 -0.104607
v 1.810870 -0.113753 -0.104607
v 1.810870 -0.113753 0.143565
v -0.068786 0.136247 0.391737
v 2.938663 0.136247 0.391737
v -0.068786 -0.113753 0.330610
v 2.938663 -0.113753 0.330610
v -0.068786 -0.052176 0.391737
v 2.938663 -0.052176 0.391737
v 2.186801 -0.337669 0.047595
v 2.186801 -0.375716 -0.019576
v 2.374767 -0.375716 -0.019576
v 2.374767 -0.337669 0.047595
v 2.562732 -0.337669 0.047595
v 2.562732 -0.375716 -0.019576
v 2.750698 -0.375716 -0.019576
v 2.750698 -0.337669 0.047595
v 0.683077 -0.375716 -0.019576
v 0.683077 -0.337669 0.047595
v 0.495111 -0.375716 -0.019576
v 0.495111 -0.337669 0.047595
v 0.307145 -0.375716 -0.019576
v 0.307145 -0.337669 0.047595
v 0.119180 -0.375716 -0.019576
v 0.119180 -0.337669 0.047595
v 1.246973 -0.375716 -0.019576
v 1.246973 -0.337669 0.047595
v 1.059008 -0.375716 -0.019576
v 1.059008 -0.337669 0.047595
v 1.622904 -0.337669 0.047595
v 1.622904 -0.375716 -0.019576
v 1.810870 -0.375716 -0.019576
v 1.810870 -0.337669 0.047595
v -0.068273 0.011515 -0.043821
v -0.068273 0.059507 -0.043821
v -0.068273 0.011514 -3.010898
v -0.068273 0.059506 -3.010898
v 2.975098 0.011515 -0.043821
v 2.975098 0.059507 -0.043821
v 2.975098 0.011514 -3.010898
v 2.975098 0.059506 -3.010898
v -0.068273 0.011515 0.196137
v -0.068273 0.059507 0.196137
v 2.975098 0.059507 0.196137
v 2.975098 0.011515 0.196137
v 2.975098 0.126884 -0.043821
v -0.068273 0.126884 -0.043821
v 2.975098 0.126884 0.196137
v -0.068273 0.126884 0.196137
v 2.896986 -0.113281 0.395834
v 2.896986 0.136719 0.395834
v 2.900374 0.136719 -3.018005
v 2.900374 -0.113281 -3.018005
v 2.949527 -0.363281 -2.164495
v 2.949527 -0.113281 -2.164495
v 3.199527 -0.113281 -2.164248
v 2.949739 -0.363281 -2.377861
v 2.949739 -0.113281 -2.377861
v 3.199739 -0.113281 -2.377613
v 2.949951 -0.363281 -2.591226
v 2.949951 -0.113281 -2.591226
v 3.199950 -0.113281 -2.590978
v 2.950162 -0.363281 -2.804591
v 2.950162 -0.113281 -2.804591
v 3.200162 -0.113281 -2.804343
v 2.947833 -0.363281 -0.457576
v 2.947833 -0.113281 -0.457576
v 3.197833 -0.113281 -0.457328
v 2.947622 -0.363281 -0.244211
v 2.947622 -0.113281 -0.244211
v 3.197621 -0.113281 -0.243963
v 2.947410 -0.363281 -0.030846
v 2.947410 -0.113281 -0.030846
v 3.197410 -0.113281 -0.030598
v 2.947198 -0.363281 0.182519
v 2.947198 -0.113281 0.182519
v 3.197198 -0.113281 0.182767
v 2.948468 -0.363281 -1.097671
v 2.948468 -0.113281 -1.097671
v 3.198468 -0.113281 -1.097423
v 2.948257 -0.363281 -0.884306
v 2.948257 -0.113281 -0.884306
v 3.198256 -0.113281 -0.884058
v 2.948892 -0.363281 -1.524401
v 2.948892 -0.113281 -1.524401
v 3.198892 -0.113281 -1.524153
v 2.949104 -0.363281 -1.737766
v 2.949104 -0.113281 -1.737766
v 3.199104 -0.113281 -1.737518
v 3.446986 0.136719 0.396380
v 3.450374 0.136719 -3.017459
v 3.385409 -0.113281 0.396319
v 3.388797 -0.113281 -3.017520
v 3.446986 -0.051704 0.396380
v 3.450374 -0.051704 -3.017459
v 3.102850 -0.337197 -2.164343
v 3.035184 -0.375244 -2.164411
v 3.035396 -0.375244 -2.377776
v 3.103062 -0.337197 -2.377708
v 3.103274 -0.337197 -2.591074
v 3.035608 -0.375244 -2.591141
v 3.035820 -0.375244 -2.804506
v 3.103485 -0.337197 -2.804439
v 3.033491 -0.375244 -0.457491
v 3.101156 -0.337197 -0.457424
v 3.033279 -0.375244 -0.244126
v 3.100944 -0.337197 -0.244059
v 3.033067 -0.375244 -0.030761
v 3.100733 -0.337197 -0.030694
v 3.032855 -0.375244 0.182604
v 3.100521 -0.337197 0.182671
v 3.034126 -0.375244 -1.097586
v 3.101791 -0.337197 -1.097519
v 3.033914 -0.375244 -0.884221
v 3.101580 -0.337197 -0.884154
v 3.102215 -0.337197 -1.524249
v 3.034549 -0.375244 -1.524316
v 3.034761 -0.375244 -1.737681
v 3.102427 -0.337197 -1.737614
vn -0.0000 -0.0000 -1.0000
vn -0.0000 1.0000 -0.0000
vn -0.0000 -1.0000 -0.0000
vn -0.0000 -0.0000 1.0000
vn -0.0000 -0.7045 0.7097
vn -1.0000 -0.0000 -0.0000
vn 1.0000 -0.0000 -0.0000
vn -0.0000 -0.9902 -0.1393
vn -0.0000 -0.3939 0.9191
vn -0.0000 -0.8701 0.4929
vn -1.0000 -0.0000 -0.0010
vn 1.0000 -0.0000 0.0010
vn 0.7071 -0.7071 0.0007
vn -0.0010 -0.0000 1.0000
vn 0.0010 -0.0000 -1.0000
vn -0.1383 -0.9904 -0.0001
vn 0.9181 -0.3964 0.0009
vn 0.4901 -0.8717 0.0005
vt 0.789951 0.494873
vt 0.789951 0.981886
vt 0.749467 0.981886
vt 0.749467 0.494873
vt 0.873832 0.000681
vt 0.963512 0.000681
vt 0.963512 0.487694
vt 0.873832 0.487694
vt 0.873832 0.976069
vt 0.873832 0.489056
vt 0.953472 0.489056
vt 0.953472 0.976069
vt 0.821825 0.981886
vt 0.791313 0.981886
vt 0.791313 0.494873
vt 0.821825 0.494873
vt 0.964874 0.489402
vt 0.979025 0.489402
vt 0.979024 0.976415
vt 0.964874 0.976415
vt 0.170200 0.642428
vt 0.129716 0.642428
vt 0.129716 0.562788
vt 0.213829 0.665307
vt 0.206484 0.694923
vt 0.206484 0.653212
vt 0.038080 0.649831
vt 0.059668 0.562788
vt 0.079791 0.649831
vt 0.129717 0.643790
vt 0.170200 0.643790
vt 0.129717 0.723429
vt 0.213829 0.737995
vt 0.206484 0.708380
vt 0.213829 0.696284
vt 0.102740 0.649831
vt 0.081152 0.562788
vt 0.122863 0.562788
vt 0.113634 0.986074
vt 0.113634 0.955635
vt 0.127735 0.955635
vt 0.127735 0.986074
vt 0.853625 0.942077
vt 0.853625 0.981615
vt 0.823187 0.981615
vt 0.823187 0.942077
vt 0.974007 0.449588
vt 0.974007 0.419150
vt 0.988108 0.419150
vt 0.988108 0.449588
vt 0.031119 0.957588
vt 0.031119 0.997126
vt 0.000681 0.997126
vt 0.000681 0.957588
vt 0.988108 0.291950
vt 0.988108 0.322388
vt 0.974007 0.322388
vt 0.974007 0.291950
vt 0.160155 0.944313
vt 0.160155 0.983851
vt 0.129717 0.983851
vt 0.129717 0.944313
vt 0.988108 0.355550
vt 0.988108 0.385988
vt 0.974007 0.385988
vt 0.974007 0.355550
vt 0.202000 0.959781
vt 0.202000 0.999319
vt 0.171562 0.999319
vt 0.171562 0.959781
vt 0.988108 0.387350
vt 0.988108 0.417788
vt 0.974007 0.417788
vt 0.974007 0.387350
vt 0.068518 0.947807
vt 0.068518 0.987346
vt 0.038080 0.987346
vt 0.038080 0.947807
vt 0.974007 0.354188
vt 0.974007 0.323750
vt 0.988108 0.323750
vt 0.988108 0.354188
vt 0.249241 0.919797
vt 0.249242 0.959335
vt 0.218803 0.959335
vt 0.218803 0.919797
vt 0.103862 0.990523
vt 0.091225 0.990523
vt 0.091225 0.960084
vt 0.103862 0.960084
vt 0.245439 0.991135
vt 0.232802 0.991135
vt 0.232802 0.960697
vt 0.245439 0.960697
vt 0.215999 0.990219
vt 0.203362 0.990219
vt 0.203362 0.959781
vt 0.215999 0.959781
vt 0.089863 0.990523
vt 0.077226 0.990523
vt 0.077226 0.960084
vt 0.089863 0.960084
vt 0.231440 0.991135
vt 0.218803 0.991135
vt 0.218803 0.960697
vt 0.231440 0.960697
vt 0.986644 0.481388
vt 0.974007 0.481388
vt 0.974007 0.450950
vt 0.986644 0.450950
vt 0.038080 0.863743
vt 0.038080 0.822979
vt 0.074340 0.847979
vt 0.849768 0.494873
vt 0.845619 0.538720
vt 0.837131 0.494873
vt 0.127508 0.695855
vt 0.114848 0.657401
vt 0.127508 0.651193
vt 0.113486 0.695236
vt 0.079926 0.672098
vt 0.113486 0.651193
vt 0.827336 0.767315
vt 0.823187 0.723468
vt 0.835824 0.723468
vt 0.198245 0.750132
vt 0.185584 0.788586
vt 0.185584 0.743925
vt 0.077226 0.876019
vt 0.077226 0.835256
vt 0.113486 0.860256
vt 0.849823 0.723468
vt 0.845674 0.767315
vt 0.837186 0.723468
vt 0.127508 0.741877
vt 0.114848 0.703424
vt 0.127508 0.697216
vt 0.252363 0.697043
vt 0.218803 0.673904
vt 0.252363 0.653000
vt 0.212267 0.750132
vt 0.199607 0.788586
vt 0.199607 0.743925
vt 0.827336 0.812524
vt 0.823187 0.768677
vt 0.835824 0.768677
vt 0.218803 0.876589
vt 0.218803 0.835825
vt 0.255063 0.860825
vt 0.127508 0.787901
vt 0.114848 0.749447
vt 0.127508 0.743239
vt 0.849823 0.768677
vt 0.845674 0.812524
vt 0.837186 0.768677
vt 0.034241 0.697045
vt 0.000681 0.673907
vt 0.034241 0.653002
vt 0.142377 0.776307
vt 0.129717 0.814760
vt 0.129717 0.770099
vt 0.841027 0.584713
vt 0.836878 0.540866
vt 0.849515 0.540866
vt 0.171562 0.876704
vt 0.171562 0.835941
vt 0.207822 0.860941
vt 0.231464 0.788471
vt 0.218803 0.750017
vt 0.231464 0.743809
vt 0.835824 0.813886
vt 0.831675 0.857733
vt 0.823187 0.813886
vt 0.205122 0.697255
vt 0.171562 0.674117
vt 0.205122 0.653212
vt 0.156399 0.776307
vt 0.143739 0.814760
vt 0.143739 0.770099
vt 0.841027 0.629922
vt 0.836878 0.586075
vt 0.849515 0.586075
vt 0.823187 0.899858
vt 0.823187 0.859095
vt 0.859447 0.884095
vt 0.245486 0.788471
vt 0.232825 0.750017
vt 0.245486 0.743809
vt 0.849823 0.813886
vt 0.845674 0.857733
vt 0.837186 0.813886
vt 0.129716 0.902094
vt 0.129716 0.861331
vt 0.165976 0.886331
vt 0.142353 0.816122
vt 0.138205 0.859969
vt 0.129716 0.816122
vt 0.184223 0.788586
vt 0.171562 0.750132
vt 0.184223 0.743925
vt 0.113486 0.740641
vt 0.079926 0.717503
vt 0.113486 0.696598
vt 0.841219 0.676700
vt 0.837071 0.632852
vt 0.849708 0.632852
vt 0.050741 0.783164
vt 0.038080 0.821617
vt 0.038080 0.776956
vt 0.252363 0.742448
vt 0.218803 0.719309
vt 0.252363 0.698405
vt 0.841219 0.722007
vt 0.837071 0.678160
vt 0.849708 0.678160
vt 0.064763 0.783164
vt 0.052102 0.821617
vt 0.052102 0.776956
vt 0.972645 0.488040
vt 0.964874 0.488040
vt 0.964874 0.000681
vt 0.972645 0.000681
vt 0.872470 0.493511
vt 0.864699 0.493511
vt 0.864699 0.000681
vt 0.872470 0.000681
vt 0.954833 0.489056
vt 0.962605 0.489056
vt 0.962605 0.976415
vt 0.954833 0.976415
vt 0.858956 0.808091
vt 0.851184 0.808091
vt 0.851184 0.768677
vt 0.858956 0.768677
vt 0.260746 0.987703
vt 0.260746 0.494873
vt 0.748105 0.494873
vt 0.748105 0.987703
vt 0.260746 0.493511
vt 0.260746 0.000681
vt 0.748105 0.000681
vt 0.748105 0.493511
vt 0.855565 0.000681
vt 0.863337 0.000681
vt 0.863337 0.493511
vt 0.855565 0.493511
vt 0.790244 0.493511
vt 0.790244 0.000681
vt 0.829658 0.000681
vt 0.829658 0.493511
vt 0.851129 0.534288
vt 0.851129 0.494873
vt 0.862040 0.494873
vt 0.862040 0.534288
vt 0.858956 0.848868
vt 0.851184 0.848868
vt 0.851184 0.809453
vt 0.858956 0.809453
vt 0.788882 0.000681
vt 0.788882 0.493511
vt 0.749467 0.493511
vt 0.749467 0.000681
vt 0.862095 0.723468
vt 0.862095 0.762882
vt 0.851184 0.762882
vt 0.851184 0.723468
vt 0.843293 0.493511
vt 0.843293 0.000681
vt 0.854203 0.000681
vt 0.854203 0.493511
vt 0.841931 0.000681
vt 0.841931 0.493511
vt 0.831020 0.493511
vt 0.831020 0.000681
vt 0.212046 0.000681
vt 0.212046 0.561424
vt 0.171562 0.561424
vt 0.171562 0.000681
vt 0.000681 0.000683
vt 0.089745 0.000681
vt 0.089746 0.561424
vt 0.000681 0.561427
vt 0.170200 0.000683
vt 0.170200 0.561426
vt 0.091107 0.561424
vt 0.091107 0.000681
vt 0.213408 0.000681
vt 0.243920 0.000681
vt 0.243920 0.561424
vt 0.213408 0.561424
vt 0.245282 0.000681
vt 0.259384 0.000681
vt 0.259384 0.561424
vt 0.245282 0.561424
vt 0.078564 0.730286
vt 0.038080 0.730286
vt 0.038080 0.651193
vt 0.165058 0.828159
vt 0.157761 0.857786
vt 0.157761 0.816092
vt 0.259384 0.572356
vt 0.218803 0.651638
vt 0.218803 0.562786
vt 0.036718 0.633194
vt 0.000681 0.651640
vt 0.000681 0.562788
vt 0.035866 0.830716
vt 0.028568 0.801089
vt 0.035866 0.789022
vt 0.171562 0.651850
vt 0.171562 0.562786
vt 0.212046 0.572757
vt 0.854987 0.977123
vt 0.854987 0.942077
vt 0.868993 0.942077
vt 0.868993 0.977124
vt 0.035727 0.916730
vt 0.035727 0.956226
vt 0.000681 0.956226
vt 0.000681 0.916731
vt 0.113634 0.954273
vt 0.113634 0.919227
vt 0.127640 0.919227
vt 0.127640 0.954274
vt 0.206609 0.918923
vt 0.206609 0.958418
vt 0.171562 0.958419
vt 0.171562 0.918924
vt 0.988013 0.109907
vt 0.988013 0.144954
vt 0.974007 0.144953
vt 0.974007 0.109907
vt 0.073127 0.906950
vt 0.073127 0.946445
vt 0.038080 0.946446
vt 0.038080 0.906950
vt 0.974007 0.108545
vt 0.974007 0.073498
vt 0.988013 0.073499
vt 0.988013 0.108545
vt 0.035727 0.835015
vt 0.035727 0.874511
vt 0.000681 0.874511
vt 0.000681 0.835016
vt 0.988013 0.037090
vt 0.988013 0.072136
vt 0.974007 0.072136
vt 0.974007 0.037090
vt 0.112272 0.919227
vt 0.112272 0.958722
vt 0.077226 0.958722
vt 0.077226 0.919227
vt 0.974007 0.035727
vt 0.974007 0.000681
vt 0.988013 0.000681
vt 0.988013 0.035728
vt 0.035727 0.875873
vt 0.035727 0.915368
vt 0.000681 0.915369
vt 0.000681 0.875873
vt 0.114848 0.835256
vt 0.127419 0.835256
vt 0.127418 0.870302
vt 0.114848 0.870302
vt 0.986578 0.254179
vt 0.974007 0.254179
vt 0.974007 0.219132
vt 0.986578 0.219133
vt 0.974007 0.182724
vt 0.986578 0.182724
vt 0.986578 0.217771
vt 0.974007 0.217770
vt 0.127419 0.906711
vt 0.114848 0.906711
vt 0.114848 0.871664
vt 0.127419 0.871664
vt 0.986578 0.181362
vt 0.974007 0.181362
vt 0.974007 0.146315
vt 0.986578 0.146316
vt 0.986578 0.290588
vt 0.974007 0.290587
vt 0.974007 0.255541
vt 0.986578 0.255541
vt 0.113329 0.763076
vt 0.079926 0.785949
vt 0.079926 0.742003
vt 0.863640 0.632852
vt 0.859770 0.676627
vt 0.851069 0.632852
vt 0.127430 0.833894
vt 0.114848 0.795415
vt 0.127430 0.789262
vt 0.000681 0.698407
vt 0.034084 0.721279
vt 0.000681 0.742353
vt 0.835517 0.631491
vt 0.823187 0.589310
vt 0.835517 0.586859
vt 0.245329 0.795985
vt 0.232747 0.834464
vt 0.232747 0.789832
vt 0.860355 0.940715
vt 0.823187 0.924668
vt 0.860355 0.901220
vt 0.835517 0.543317
vt 0.823187 0.585497
vt 0.823187 0.540866
vt 0.092508 0.831942
vt 0.079926 0.793463
vt 0.092508 0.787311
vt 0.218803 0.918435
vt 0.218803 0.877951
vt 0.255063 0.893606
vt 0.212032 0.796100
vt 0.199450 0.834579
vt 0.199450 0.789948
vt 0.823187 0.676798
vt 0.823187 0.632852
vt 0.835709 0.633960
vt 0.034084 0.764788
vt 0.000681 0.787660
vt 0.000681 0.743714
vt 0.106452 0.831942
vt 0.093870 0.793463
vt 0.106452 0.787311
vt 0.259177 0.746260
vt 0.246848 0.788441
vt 0.246848 0.743809
vt 0.038080 0.905588
vt 0.038080 0.865104
vt 0.074340 0.880760
vt 0.184144 0.796100
vt 0.171562 0.834579
vt 0.171562 0.789948
vt 0.170091 0.814730
vt 0.157761 0.772549
vt 0.170091 0.770099
vt 0.204966 0.719690
vt 0.171562 0.742563
vt 0.171562 0.698617
vt 0.231385 0.834464
vt 0.218803 0.795985
vt 0.231385 0.789832
vt 0.835709 0.678160
vt 0.835709 0.722106
vt 0.823187 0.679267
vt 0.038080 0.731648
vt 0.071484 0.754521
vt 0.038080 0.775594
vt 0.259273 0.795985
vt 0.246691 0.834464
vt 0.246691 0.789832
vt 0.078454 0.821587
vt 0.066125 0.779406
vt 0.078454 0.776956
vt 0.077226 0.917865
vt 0.077226 0.877381
vt 0.113486 0.902209
vt 0.013263 0.833654
vt 0.000681 0.795174
vt 0.013263 0.789022
vt 0.863448 0.586075
vt 0.859578 0.629850
vt 0.850877 0.586075
vt 0.163120 0.745864
vt 0.129717 0.768737
vt 0.129717 0.724791
vt 0.863640 0.678061
vt 0.859770 0.721836
vt 0.851069 0.678061
vt 0.027207 0.833654
vt 0.014625 0.795174
vt 0.027207 0.789022
vt 0.171562 0.894114
vt 0.208730 0.878066
vt 0.208730 0.917561
vt 0.854747 0.584641
vt 0.850877 0.540866
vt 0.863448 0.540866
vt 0.198088 0.796100
vt 0.185506 0.834579
vt 0.185506 0.789948
vt 0.129716 0.919503
vt 0.166884 0.903456
vt 0.166884 0.942951
vt 0.147609 0.859897
vt 0.143739 0.816122
vt 0.156310 0.816122
vt 0.835769 0.501025
vt 0.823187 0.539504
vt 0.823187 0.494873
s 0
g LEDGE_01_DEF.obj_SU_COLOR.002
usemtl SU_COLOR.002
f 2/1/1 3/2/1 4/3/1 1/4/1
f 42/5/2 3/6/2 2/7/2 41/8/2
f 1/9/3 4/10/3 44/11/3 43/12/3
f 46/13/4 42/14/4 41/15/4 45/16/4
f 45/17/5 43/18/5 44/19/5 46/20/5
f 2/21/6 1/22/6 43/23/6
f 45/24/6 41/25/6 43/26/6
f 41/27/6 2/28/6 43/29/6
f 4/30/7 3/31/7 44/32/7
f 42/33/7 46/34/7 44/35/7
f 3/36/7 42/37/7 44/38/7
f 5/39/8 8/40/8 49/41/8 48/42/8
f 50/43/9 10/44/9 7/45/9 47/46/9
f 11/47/8 14/48/8 53/49/8 52/50/8
f 54/51/9 16/52/9 13/53/9 51/54/9
f 55/55/8 57/56/8 20/57/8 17/58/8
f 56/59/9 19/60/9 22/61/9 58/62/9
f 59/63/8 61/64/8 26/65/8 23/66/8
f 60/67/9 25/68/9 28/69/9 62/70/9
f 63/71/8 65/72/8 32/73/8 29/74/8
f 64/75/9 31/76/9 34/77/9 66/78/9
f 35/79/8 38/80/8 69/81/8 68/82/8
f 70/83/9 40/84/9 37/85/9 67/86/9
f 47/87/10 48/88/10 49/89/10 50/90/10
f 51/91/10 52/92/10 53/93/10 54/94/10
f 58/95/10 57/96/10 55/97/10 56/98/10
f 62/99/10 61/100/10 59/101/10 60/102/10
f 66/103/10 65/104/10 63/105/10 64/106/10
f 67/107/10 68/108/10 69/109/10 70/110/10
f 7/111/6 6/112/6 47/113/6
f 47/114/6 6/115/6 48/116/6
f 6/117/6 5/118/6 48/119/6
f 9/120/7 10/121/7 50/122/7
f 9/123/7 50/124/7 49/125/7
f 8/126/7 9/127/7 49/128/7
f 13/129/6 12/130/6 51/131/6
f 51/132/6 12/133/6 52/134/6
f 12/135/6 11/136/6 52/137/6
f 18/138/7 19/139/7 56/140/7
f 17/141/7 18/142/7 55/143/7
f 18/144/7 56/145/7 55/146/7
f 22/147/6 21/148/6 58/149/6
f 21/150/6 20/151/6 57/152/6
f 58/153/6 21/154/6 57/155/6
f 24/156/7 25/157/7 60/158/7
f 23/159/7 24/160/7 59/161/7
f 24/162/7 60/163/7 59/164/7
f 28/165/6 27/166/6 62/167/6
f 27/168/6 26/169/6 61/170/6
f 62/171/6 27/172/6 61/173/6
f 30/174/7 31/175/7 64/176/7
f 29/177/7 30/178/7 63/179/7
f 30/180/7 64/181/7 63/182/7
f 34/183/6 33/184/6 66/185/6
f 33/186/6 32/187/6 65/188/6
f 66/189/6 33/190/6 65/191/6
f 37/192/6 36/193/6 67/194/6
f 67/195/6 36/196/6 68/197/6
f 36/198/6 35/199/6 68/200/6
f 39/201/7 40/202/7 70/203/7
f 39/204/7 70/205/7 69/206/7
f 38/207/7 39/208/7 69/209/7
f 15/210/7 16/211/7 54/212/7
f 15/213/7 54/214/7 53/215/7
f 14/216/7 15/217/7 53/218/7
g LEDGE_01_DEF.obj_None.002
usemtl None.002
f 71/219/6 72/220/6 74/221/6 73/222/6
f 73/223/1 74/224/1 78/225/1 77/226/1
f 77/227/7 78/228/7 76/229/7 75/230/7
f 72/231/6 71/232/6 79/233/6 80/234/6
f 73/235/3 77/236/3 75/237/3 71/238/3
f 78/239/2 74/240/2 72/241/2 76/242/2
f 82/243/4 81/244/4 80/245/4 79/246/4
f 71/247/3 75/248/3 82/249/3 79/250/3
f 81/251/7 76/252/7 83/253/7 85/254/7
f 75/255/7 76/256/7 81/257/7 82/258/7
f 83/259/2 84/260/2 86/261/2 85/262/2
f 72/263/6 80/264/6 86/265/6 84/266/6
f 80/267/4 81/268/4 85/269/4 86/270/4
f 76/271/1 72/272/1 84/273/1 83/274/1
g LEDGE_01_DEF.obj_SU_COLOR.025
usemtl SU_COLOR.025
f 88/275/11 89/276/11 90/277/11 87/278/11
f 128/279/2 89/280/2 88/281/2 127/282/2
f 87/283/3 90/284/3 130/285/3 129/286/3
f 132/287/12 128/288/12 127/289/12 131/290/12
f 131/291/13 129/292/13 130/293/13 132/294/13
f 88/295/14 87/296/14 129/297/14
f 131/298/14 127/299/14 129/300/14
f 127/301/14 88/302/14 129/303/14
f 90/304/15 89/305/15 130/306/15
f 128/307/15 132/308/15 130/309/15
f 89/310/15 128/311/15 130/312/15
f 91/313/16 94/314/16 135/315/16 134/316/16
f 136/317/17 96/318/17 93/319/17 133/320/17
f 97/321/16 100/322/16 139/323/16 138/324/16
f 140/325/17 102/326/17 99/327/17 137/328/17
f 141/329/16 143/330/16 106/331/16 103/332/16
f 142/333/17 105/334/17 108/335/17 144/336/17
f 145/337/16 147/338/16 112/339/16 109/340/16
f 146/341/17 111/342/17 114/343/17 148/344/17
f 149/345/16 151/346/16 118/347/16 115/348/16
f 150/349/17 117/350/17 120/351/17 152/352/17
f 121/353/16 124/354/16 155/355/16 154/356/16
f 156/357/17 126/358/17 123/359/17 153/360/17
f 133/361/18 134/362/18 135/363/18 136/364/18
f 137/365/18 138/366/18 139/367/18 140/368/18
f 144/369/18 143/370/18 141/371/18 142/372/18
f 148/373/18 147/374/18 145/375/18 146/376/18
f 152/377/18 151/378/18 149/379/18 150/380/18
f 153/381/18 154/382/18 155/383/18 156/384/18
f 93/385/14 92/386/14 133/387/14
f 133/388/14 92/389/14 134/390/14
f 92/391/14 91/392/14 134/393/14
f 95/394/15 96/395/15 136/396/15
f 95/397/15 136/398/15 135/399/15
f 94/400/15 95/401/15 135/402/15
f 99/403/14 98/404/14 137/405/14
f 137/406/14 98/407/14 138/408/14
f 98/409/14 97/410/14 138/411/14
f 104/412/15 105/413/15 142/414/15
f 103/415/15 104/416/15 141/417/15
f 104/418/15 142/419/15 141/420/15
f 108/421/14 107/422/14 144/423/14
f 107/424/14 106/425/14 143/426/14
f 144/427/14 107/428/14 143/429/14
f 110/430/15 111/431/15 146/432/15
f 109/433/15 110/434/15 145/435/15
f 110/436/15 146/437/15 145/438/15
f 114/439/14 113/440/14 148/441/14
f 113/442/14 112/443/14 147/444/14
f 148/445/14 113/446/14 147/447/14
f 116/448/15 117/449/15 150/450/15
f 115/451/15 116/452/15 149/453/15
f 116/454/15 150/455/15 149/456/15
f 120/457/14 119/458/14 152/459/14
f 119/460/14 118/461/14 151/462/14
f 152/463/14 119/464/14 151/465/14
f 123/466/14 122/467/14 153/468/14
f 153/469/14 122/470/14 154/471/14
f 122/472/14 121/473/14 154/474/14
f 125/475/15 126/476/15 156/477/15
f 125/478/15 156/479/15 155/480/15
f 124/481/15 125/482/15 155/483/15
f 101/484/15 102/485/15 140/486/15
f 101/487/15 140/488/15 139/489/15
f 100/490/15 101/491/15 139/492/15
