# Blender 3.6.0
# www.blender.org
mtllib NY_roof2_3.mtl
o Cube.002_Cube.001
v -0.011598 0.000856 0.016798
v -0.011598 0.108515 0.016798
v -0.011598 0.000856 -3.015143
v -0.011598 0.108515 -3.015143
v 3.016928 0.000856 0.016798
v 3.016928 0.108515 0.016798
v 3.016928 0.000856 -3.015143
v 3.016928 0.108515 -3.015143
v 2.982643 0.000856 0.016798
v 2.982643 0.000856 -3.015143
v 2.982643 0.108515 -3.015143
v 2.982643 0.108515 0.016798
v 2.936929 0.000856 0.016798
v 2.936929 0.000856 -3.015143
v 2.936929 0.108515 -3.015143
v 2.936929 0.108515 0.016798
v -0.011598 0.000856 -0.028967
v -0.016501 0.130392 -0.031358
v 3.016928 0.108515 -0.028967
v 3.016928 0.000856 -0.028967
v 2.982643 0.108515 -0.028967
v 2.982643 0.000856 -0.028967
v 2.936929 0.000856 -0.028967
v 2.932027 0.130392 -0.031358
v -0.011598 0.000856 -0.074732
v -0.011598 0.108515 -0.074732
v 3.016928 0.108515 -0.074732
v 3.016928 0.000856 -0.074732
v 2.982643 0.108515 -0.074732
v 2.982643 0.000856 -0.074732
v 2.936929 0.000856 -0.074732
v 2.936929 0.108515 -0.074732
v 2.998183 0.108515 -0.090291
v 2.921389 0.108515 -0.090291
v 2.921389 0.108515 -0.013409
v 2.936929 0.617874 -3.015143
v 2.982643 0.617874 -3.015143
v 2.936929 0.617874 -0.074732
v 2.932027 0.639752 -0.031358
v -0.016501 0.616420 -0.031358
v -0.011598 0.617874 -0.074732
v 2.982643 0.617874 -0.074732
v 2.998183 0.688888 -0.013409
v 2.921389 0.688888 -0.090291
v 2.921389 0.616649 -0.013409
v 2.998183 0.616649 -0.090291
v 2.921389 0.616649 -0.090291
v -0.005141 0.688888 -0.090291
v -0.005141 0.616649 -0.090291
v -0.005141 0.616649 -0.013409
v 2.921389 0.688888 -3.006371
v 2.998183 0.616649 -3.006371
v 2.921389 0.616649 -3.006371
v 2.998183 0.647083 -0.090291
v 2.956378 0.688888 -0.090291
v 2.998183 0.688888 -0.048486
v 2.992582 0.667986 -0.090291
v 2.977281 0.683288 -0.090291
v 2.921389 0.688888 -0.055214
v 2.921389 0.647083 -0.013409
v 2.963194 0.688888 -0.013409
v 2.921389 0.683288 -0.034311
v 2.921389 0.667986 -0.019010
v -0.005141 0.647083 -0.013409
v -0.005141 0.688888 -0.055214
v -0.005141 0.667986 -0.019010
v -0.005141 0.683288 -0.034311
v 2.956378 0.688888 -3.006371
v 2.998183 0.647083 -3.006371
v 2.977281 0.683287 -3.006371
v 2.992582 0.667986 -3.006371
v 2.965747 0.108515 -3.015143
v 2.965747 0.108515 -0.074732
v 2.965747 0.617874 -3.015143
v 2.965747 0.617874 -0.074732
v 2.998183 0.108515 -0.056305
v 2.955287 0.108515 -0.013409
v 2.982678 0.108515 -0.028932
v 2.992436 0.108515 -0.034857
v 2.976735 0.108515 -0.019156
v 2.955287 0.616649 -0.013409
v 2.998183 0.616649 -0.056305
v 2.998183 0.659545 -0.013409
v 2.976735 0.616649 -0.019156
v 2.992436 0.616649 -0.034857
vn -1.0000 -0.0000 -0.0000
vn -0.0000 -0.0000 -1.0000
vn 1.0000 -0.0000 -0.0000
vn -0.0000 -1.0000 -0.0000
vn -0.0000 0.9105 0.4136
vn -0.0000 -0.0000 1.0000
vn -0.0000 1.0000 -0.0000
vn 0.2115 0.9543 0.2112
vn 0.6414 -0.7498 0.1626
vn -0.9987 -0.0202 0.0474
vn 0.9937 -0.0000 0.1123
vn -0.9985 -0.0211 -0.0497
vn -0.0039 0.9733 -0.2296
vn -0.9937 -0.0000 -0.1123
vn -0.1691 -0.7268 -0.6658
vn 0.9351 0.2506 -0.2506
vn 0.6452 0.6452 -0.4091
vn 0.2506 0.9351 -0.2506
vn -0.2506 0.9351 0.2506
vn -0.4091 0.6452 0.6452
vn -0.2506 0.2506 0.9351
vn -0.0000 0.2588 0.9659
vn -0.0000 0.7071 0.7071
vn -0.0000 0.9659 0.2588
vn 0.9659 0.2588 -0.0000
vn 0.7071 0.7071 -0.0000
vn 0.2588 0.9659 -0.0000
vn 0.2506 -0.2506 0.9351
vn 0.6452 -0.4091 0.6452
vn 0.9351 -0.2506 0.2506
vn 0.9659 -0.0000 0.2588
vn 0.7071 -0.0000 0.7071
vn 0.2588 -0.0000 0.9659
vt 0.586430 0.001931
vt 0.598487 0.001931
vt 0.598487 0.331236
vt 0.586430 0.331236
vt 0.586430 0.666569
vt 0.598487 0.666569
vt 0.598487 0.670409
vt 0.586430 0.670409
vt 0.472137 0.007417
vt 0.484194 0.007417
vt 0.484195 0.012542
vt 0.472138 0.012543
vt 0.124334 0.490024
vt 0.124334 0.493863
vt 0.119209 0.493863
vt 0.119209 0.490024
vt 0.307456 0.339444
vt 0.583766 0.380939
vt 0.582562 0.385826
vt 0.306252 0.344331
vt 0.472138 0.016382
vt 0.484195 0.016382
vt 0.472138 0.021502
vt 0.484195 0.021501
vt 0.294849 0.345075
vt 0.295697 0.336112
vt 0.301648 0.345300
vt 0.299342 0.347881
vt 0.124334 0.484904
vt 0.119209 0.484904
vt 0.586430 0.661450
vt 0.598487 0.661450
vt 0.124334 0.154690
vt 0.119209 0.154690
vt 0.472154 0.351716
vt 0.484211 0.351715
vt 0.312104 0.342672
vt 0.308710 0.336172
vt 0.314649 0.342816
vt 0.129459 0.154690
vt 0.129459 0.484904
vt 0.129459 0.490024
vt 0.286947 0.347312
vt 0.285271 0.341393
vt 0.117472 0.140585
vt 0.117472 0.469889
vt 0.060428 0.469889
vt 0.060428 0.140585
vt 0.129459 0.493863
vt 0.472137 0.002292
vt 0.484194 0.002291
vt 0.486671 0.357132
vt 0.472154 0.356841
vt 0.598487 0.999714
vt 0.586430 0.999714
vt 0.130995 0.530126
vt 0.130995 0.526286
vt 0.460300 0.526286
vt 0.460300 0.530126
vt 0.930189 0.000627
vt 0.930189 0.330841
vt 0.600884 0.330841
vt 0.600884 0.000627
vt 0.927792 0.666569
vt 0.927792 0.670409
vt 0.130995 0.535246
vt 0.460300 0.535246
vt 0.130995 0.865460
vt 0.460300 0.865460
vt 0.260269 0.370932
vt 0.255621 0.367704
vt 0.484194 0.362007
vt 0.472137 0.361967
vt 0.426513 0.000693
vt 0.429922 0.000693
vt 0.429922 0.328443
vt 0.426513 0.328443
vt 0.282321 0.340514
vt 0.286507 0.338252
vt 0.295695 0.336097
vt 0.308153 0.346202
vt 0.308012 0.348747
vt 0.061654 0.000630
vt 0.065450 0.000630
vt 0.065450 0.057537
vt 0.061654 0.057537
vt 0.038122 0.630634
vt 0.033925 0.627804
vt 0.041702 0.048071
vt 0.045652 0.044540
vt 0.272762 0.298652
vt 0.268812 0.302183
vt 0.304962 0.330841
vt 0.304962 0.000627
vt 0.362007 0.000627
vt 0.359394 0.330841
vt 0.003512 0.678463
vt 0.000900 0.673443
vt 0.057537 0.072549
vt 0.057537 0.402762
vt 0.000493 0.402762
vt 0.000493 0.072549
vt 0.267352 0.303488
vt 0.040242 0.049375
vt 0.449111 0.328443
vt 0.445702 0.328443
vt 0.445702 0.001863
vt 0.449111 0.001863
vt 0.006358 0.029570
vt 0.001759 0.025462
vt 0.002654 0.020578
vt 0.007550 0.021476
vt 0.009346 0.027935
vt 0.008347 0.029549
vt 0.941278 0.330306
vt 0.949368 0.330306
vt 0.949368 0.656886
vt 0.941278 0.656886
vt 0.941278 0.002556
vt 0.949368 0.002556
vt 0.941278 0.387214
vt 0.932668 0.387214
vt 0.932668 0.330306
vt 0.932678 0.273399
vt 0.941278 0.273399
vt 0.932678 0.330306
vt 0.304782 0.336146
vt 0.009120 0.030897
vt 0.007450 0.037612
vt 0.002428 0.038358
vt 0.001759 0.033861
vt 0.033564 0.008181
vt 0.033564 0.016782
vt 0.025473 0.016782
vt 0.025473 0.012863
vt 0.026101 0.010522
vt 0.027814 0.008809
vt 0.030155 0.008181
vt 0.932668 0.002556
vt 0.023974 0.000979
vt 0.023974 0.009590
vt 0.020565 0.009590
vt 0.018225 0.008962
vt 0.016511 0.007249
vt 0.015884 0.004908
vt 0.015884 0.000979
vt 0.437192 0.000693
vt 0.441121 0.000693
vt 0.441121 0.328443
vt 0.437192 0.328443
vt 0.460300 0.328443
vt 0.456381 0.328443
vt 0.456381 0.001863
vt 0.460300 0.001863
vt 0.932678 0.656886
vt 0.001823 0.031055
vt 0.001834 0.028184
vt 0.010199 0.022938
vt 0.012923 0.024412
vt 0.015528 0.025747
vt 0.432345 0.000693
vt 0.432345 0.328443
vt 0.434769 0.000693
vt 0.434769 0.328443
vt 0.451534 0.001863
vt 0.451534 0.328443
vt 0.453958 0.001863
vt 0.453958 0.328443
vt 0.019179 0.028678
vt 0.015914 0.032745
vt 0.364897 0.330841
vt 0.364897 0.001536
vt 0.421941 0.001536
vt 0.421942 0.330841
vt 0.535263 0.600315
vt 0.533803 0.601620
vt 0.306693 0.347507
vt 0.291804 0.335472
vt 0.299303 0.334674
vt 0.013115 0.034386
vt 0.010200 0.036048
vt 0.072911 0.000630
vt 0.072911 0.057537
vt 0.070424 0.057537
vt 0.070424 0.000630
vt 0.067937 0.057537
vt 0.067937 0.000630
vt 0.076717 0.000630
vt 0.076717 0.057537
s 0
g Cube.002_Cube.001_Material.002
usemtl Material.002
f 25/1/1 26/2/1 4/3/1 3/4/1
f 10/5/2 11/6/2 8/7/2 7/8/2
f 20/9/3 19/10/3 6/11/3 5/12/3
f 22/13/4 20/14/4 5/15/4 9/16/4
f 24/17/5 18/18/5 2/19/5 16/20/5
f 9/21/6 5/12/6 6/11/6 12/22/6
f 13/23/6 9/21/6 12/22/6 16/24/6
f 19/25/7 21/26/7 12/27/7 6/28/7
f 23/29/4 22/13/4 9/16/4 13/30/4
f 14/31/2 15/32/2 11/6/2 10/5/2
f 3/4/2 4/3/2 15/32/2 14/31/2
f 17/33/4 23/29/4 13/30/4 1/34/4
f 1/35/6 13/23/6 16/24/6 2/36/6
f 21/26/8 24/17/8 16/20/8 12/27/8
f 32/37/9 24/17/9 35/38/9 34/39/9
f 25/40/4 31/41/4 23/29/4 17/33/4
f 31/41/4 30/42/4 22/13/4 23/29/4
f 27/43/7 29/44/7 21/26/7 19/25/7
f 30/42/4 28/49/4 20/14/4 22/13/4
f 28/50/3 27/51/3 19/10/3 20/9/3
f 1/35/10 2/36/10 18/52/10 17/53/10
f 7/8/3 8/7/3 27/54/3 28/55/3
f 10/56/4 7/57/4 28/58/4 30/59/4
f 8/7/7 11/6/7 29/64/7 27/65/7
f 14/66/4 10/56/4 30/59/4 31/67/4
f 3/68/4 14/66/4 31/67/4 25/69/4
f 24/17/11 32/37/11 38/70/11 39/71/11
f 17/53/12 18/52/12 26/72/12 25/73/12
f 45/74/6 60/75/6 64/76/6 50/77/6
f 21/26/4 29/44/4 33/78/4 76/79/4 78/80/4
f 29/81/4 32/37/4 34/39/4 33/82/4
f 35/83/6 77/84/6 81/85/6 45/86/6
f 38/70/13 41/87/13 40/88/13 39/71/13
f 37/89/7 36/90/7 38/91/7 42/92/7
f 32/37/6 29/81/6 42/92/6 38/91/6
f 26/97/14 18/98/14 40/88/14 41/87/14
f 37/89/4 42/92/4 75/103/4 74/104/4
f 54/105/3 46/106/3 52/107/3 69/108/3
f 56/109/7 55/110/7 44/111/7 59/112/7 61/113/7 43/114/7
f 47/115/1 44/116/1 51/117/1 53/118/1
f 44/116/2 47/115/2 49/119/2 48/120/2
f 34/121/1 35/122/1 45/123/1 47/115/1
f 33/124/2 34/125/2 47/115/2 46/126/2
f 24/17/15 21/26/15 78/80/15 77/127/15 35/38/15
f 83/128/3 82/129/3 46/130/3 54/131/3 56/109/3 43/114/3
f 52/132/2 53/133/2 51/134/2 68/135/2 70/136/2 71/137/2 69/138/2
f 47/115/4 45/123/4 50/139/4 49/119/4
f 49/140/1 50/141/1 64/142/1 66/143/1 67/144/1 65/145/1 48/146/1
f 59/147/7 44/148/7 48/149/7 65/150/7
f 44/151/7 55/152/7 68/153/7 51/154/7
f 46/126/4 47/115/4 53/118/4 52/155/4
f 54/131/16 57/156/16 56/109/16
f 57/156/17 58/157/17 56/109/17
f 58/157/18 55/110/18 56/109/18
f 59/112/19 62/158/19 61/113/19
f 62/158/20 63/159/20 61/113/20
f 63/159/21 60/160/21 61/113/21
f 64/76/22 60/75/22 63/161/22 66/162/22
f 66/162/23 63/161/23 62/163/23 67/164/23
f 67/164/24 62/163/24 59/147/24 65/150/24
f 54/105/25 69/108/25 71/165/25 57/166/25
f 57/166/26 71/165/26 70/167/26 58/168/26
f 58/168/27 70/167/27 68/153/27 55/152/27
f 45/169/6 81/170/6 83/128/6 43/114/6 61/113/6 60/160/6
f 29/81/7 11/175/7 72/176/7 73/177/7
f 42/92/2 29/81/2 73/177/2 75/103/2
f 76/79/4 79/178/4 78/80/4
f 79/178/4 80/179/4 78/80/4
f 80/179/4 77/127/4 78/80/4
f 81/170/28 84/180/28 83/128/28
f 84/180/29 85/181/29 83/128/29
f 85/181/30 82/129/30 83/128/30
f 76/182/31 82/183/31 85/184/31 79/185/31
f 79/185/32 85/184/32 84/186/32 80/187/32
f 80/187/33 84/186/33 81/85/33 77/84/33
f 76/182/3 33/188/3 46/189/3 82/183/3
g Cube.002_Cube.001_glass.001
usemtl glass.001
f 15/45/1 32/46/1 38/47/1 36/48/1
f 18/93/6 24/94/6 39/95/6 40/96/6
f 32/99/2 26/100/2 41/101/2 38/102/2
f 73/171/3 72/172/3 74/173/3 75/174/3
g Cube.002_Cube.001_floor.001
usemtl floor.001
f 15/60/7 4/61/7 26/62/7 32/63/7
