# Blender 3.6.0
# www.blender.org
mtllib NY_wallWindow3.mtl
o A_EXPO.obj.006
v 0.142199 -0.004518 -0.003613
v -0.010097 0.396209 -0.003613
v 0.142199 0.329421 -0.003613
v 0.142199 -0.004518 -3.049539
v -0.010097 0.396209 -3.049539
v 0.142199 0.329421 -3.049539
v 0.027976 1.698571 -0.003613
v -0.010097 1.698571 -0.003613
v -0.010097 1.965722 -0.003613
v 0.027976 1.965722 -0.003613
v 0.027976 1.698571 -3.049539
v -0.010097 1.698571 -3.049539
v -0.010097 1.965722 -3.049539
v 0.027976 1.965722 -3.049539
v 0.142199 -0.004518 -2.668798
v -0.010097 0.396209 -2.668798
v 0.142199 0.329421 -2.668798
v 0.142199 -0.004518 -0.384354
v 0.142199 0.329421 -0.384354
v -0.010097 0.396209 -0.384354
v 0.027976 1.364632 -3.049539
v -0.010097 1.364632 -3.049539
v -0.010097 1.631783 -3.049539
v 0.027976 1.631783 -3.049539
v 0.027976 1.030693 -3.049539
v -0.010097 1.030693 -3.049539
v -0.010097 1.297844 -3.049539
v 0.027976 1.297844 -3.049539
v 0.027976 0.696754 -3.049539
v -0.010097 0.696754 -3.049539
v -0.010097 0.963905 -3.049539
v 0.027976 0.963905 -3.049539
v 0.027976 0.429603 -3.049539
v -0.010097 0.429603 -3.049539
v -0.010097 0.629966 -3.049539
v 0.027976 0.629966 -3.049539
v -0.010097 1.631783 -2.897242
v 0.027976 1.631783 -2.897242
v -0.010097 1.030693 -2.897242
v 0.027976 1.030693 -2.897242
v -0.010097 1.297844 -2.897242
v 0.027976 1.297844 -2.897242
v -0.010097 1.364632 -2.897242
v 0.027976 1.364632 -2.897242
v -0.010097 0.629966 -2.897242
v 0.027976 0.629966 -2.897242
v -0.010097 0.696754 -2.897242
v 0.027976 0.696754 -2.897242
v -0.010097 0.963905 -2.897242
v 0.027976 0.963905 -2.897242
v -0.010097 0.429603 -2.668798
v 0.027976 0.429603 -2.668798
v 0.027976 1.698571 -2.668798
v -0.010097 1.698571 -2.897242
v 0.027976 1.698571 -2.897242
v 0.027976 1.364632 -0.003613
v -0.010097 1.364632 -0.003613
v -0.010097 1.631783 -0.003613
v 0.027976 1.631783 -0.003613
v 0.027976 1.030693 -0.003613
v -0.010097 1.030693 -0.003613
v -0.010097 1.297844 -0.003613
v 0.027976 1.297844 -0.003613
v 0.027976 0.696754 -0.003613
v -0.010097 0.696754 -0.003613
v -0.010097 0.963905 -0.003613
v 0.027976 0.963905 -0.003613
v 0.027976 0.429603 -0.003613
v -0.010097 0.429603 -0.003613
v -0.010097 0.629966 -0.003613
v 0.027976 0.629966 -0.003613
v -0.010097 1.631783 -0.155910
v 0.027976 1.631783 -0.155910
v -0.010097 1.030693 -0.155910
v 0.027976 1.030693 -0.155910
v -0.010097 1.297844 -0.155910
v 0.027976 1.297844 -0.155910
v -0.010097 1.364632 -0.155910
v 0.027976 1.364632 -0.155910
v -0.010097 0.629966 -0.155910
v 0.027976 0.629966 -0.155910
v -0.010097 0.696754 -0.155910
v 0.027976 0.696754 -0.155910
v -0.010097 0.963905 -0.155910
v 0.027976 0.963905 -0.155910
v -0.010097 0.429603 -0.384354
v 0.027976 0.429603 -0.384354
v 0.027976 1.698571 -0.384354
v -0.010097 1.698571 -0.155910
v 0.027976 1.698571 -0.155910
v -0.010097 1.999116 -0.003613
v -0.010097 1.999116 -3.049539
v -0.200468 -0.004518 -0.384354
v -0.200468 1.698571 -0.384354
v -0.200468 1.698571 -2.668798
v -0.200468 -0.004518 -2.668798
v -0.010097 1.698571 -2.668798
v -0.010097 1.698571 -0.384354
v -0.010097 -0.004518 -3.049539
v -0.010097 -0.004518 -2.668798
v -0.010097 -0.004518 -0.003613
v -0.010097 -0.004518 -0.384354
v -0.200468 -0.004518 -2.668798
v -0.200468 -0.004518 -0.384354
v -0.200468 1.698571 -2.668798
v -0.200468 1.698571 -0.384354
v -0.200468 0.054239 -0.455781
v -0.200468 1.639811 -0.455781
v -0.200468 1.639811 -2.597371
v -0.200468 0.054239 -2.597371
v -0.245964 0.085950 -2.561200
v -0.245964 1.608100 -2.561200
v -0.245964 0.054239 -2.597371
v -0.245964 1.639811 -2.597371
v -0.245964 1.608100 -0.491952
v -0.245964 0.085950 -0.491952
v -0.245964 1.639811 -0.455781
v -0.245964 0.054239 -0.455781
v -0.219504 0.796936 -0.422428
v -0.219504 0.897117 -0.422428
v -0.219504 0.897117 -2.630724
v -0.219504 0.796936 -2.630724
v -0.257579 0.796936 -0.422428
v -0.257579 0.897117 -0.422428
v -0.257579 0.897117 -2.630724
v -0.257579 0.796936 -2.630724
v -0.227345 1.665177 -1.894599
v -0.227345 1.665177 -1.958107
v -0.227345 0.028876 -1.958107
v -0.227345 0.028876 -1.894599
v -0.265420 1.665177 -1.894599
v -0.265420 1.665177 -1.958107
v -0.265420 0.028876 -1.958107
v -0.265420 0.028876 -1.894599
v -0.227345 1.665177 -1.158553
v -0.227345 1.665177 -1.095045
v -0.227345 0.028876 -1.095045
v -0.227345 0.028876 -1.158553
v -0.265420 1.665177 -1.158553
v -0.265420 1.665177 -1.095045
v -0.265420 0.028876 -1.095045
v -0.265420 0.028876 -1.158553
vn -0.0000 -0.0000 1.0000
vn -0.0000 -0.0000 -1.0000
vn -0.0000 -1.0000 -0.0000
vn -0.0000 1.0000 -0.0000
vn 1.0000 -0.0000 -0.0000
vn 0.4016 0.9158 -0.0000
vt 0.642744 0.918961
vt 0.650778 0.914944
vt 0.650778 0.939047
vt 0.642744 0.939047
vt 0.683013 0.914270
vt 0.683013 0.938373
vt 0.674978 0.934356
vt 0.674978 0.914270
vt 0.096720 0.941283
vt 0.098729 0.941283
vt 0.098729 0.957352
vt 0.096720 0.957352
vt 0.702213 0.393642
vt 0.702212 0.232955
vt 0.704221 0.232955
vt 0.704221 0.393642
vt 0.703677 0.397448
vt 0.705686 0.397448
vt 0.705686 0.558136
vt 0.703677 0.558136
vt 0.667024 0.397448
vt 0.683093 0.397448
vt 0.683093 0.558136
vt 0.667024 0.558136
vt 0.957353 0.317105
vt 0.957353 0.333174
vt 0.955344 0.333174
vt 0.955344 0.317105
vt 0.951538 0.337191
vt 0.942556 0.337191
vt 0.942556 0.317105
vt 0.951538 0.317105
vt 0.950860 0.751299
vt 0.950860 0.771385
vt 0.942826 0.771385
vt 0.942826 0.751299
vt 0.897804 0.954778
vt 0.897804 0.934692
vt 0.917890 0.934692
vt 0.917890 0.954778
vt 0.940365 0.021989
vt 0.940365 0.001903
vt 0.949348 0.001903
vt 0.949348 0.021989
vt 0.942648 0.128857
vt 0.942648 0.108771
vt 0.950682 0.108771
vt 0.950682 0.128857
vt 0.922370 0.930081
vt 0.942456 0.930081
vt 0.942456 0.950167
vt 0.922370 0.950167
vt 0.409112 0.919291
vt 0.417147 0.915274
vt 0.417147 0.939377
vt 0.409112 0.939377
vt 0.607302 0.914805
vt 0.607302 0.938908
vt 0.599268 0.934891
vt 0.599268 0.914805
vt 0.957353 0.336979
vt 0.957353 0.353048
vt 0.955344 0.353048
vt 0.955344 0.336979
vt 0.957399 0.793501
vt 0.957399 0.809570
vt 0.955390 0.809570
vt 0.955390 0.793501
vt 0.955582 0.903948
vt 0.955582 0.887879
vt 0.957590 0.887879
vt 0.957590 0.903948
vt 0.793391 0.661130
vt 0.793391 0.649079
vt 0.795400 0.649079
vt 0.795400 0.661130
vt 0.985073 0.296955
vt 0.985073 0.298963
vt 0.977039 0.298963
vt 0.977039 0.296955
vt 0.985073 0.304778
vt 0.977039 0.304778
vt 0.977039 0.302769
vt 0.985073 0.302769
vt 0.594778 0.941823
vt 0.594778 0.957892
vt 0.586744 0.957892
vt 0.586744 0.941823
vt 0.985073 0.308584
vt 0.985073 0.310592
vt 0.977039 0.310592
vt 0.977039 0.308584
vt 0.985073 0.316407
vt 0.977039 0.316407
vt 0.977039 0.314398
vt 0.985073 0.314398
vt 0.920684 0.867793
vt 0.920684 0.883862
vt 0.912650 0.883862
vt 0.912650 0.867793
vt 0.985073 0.320213
vt 0.985073 0.322221
vt 0.977039 0.322221
vt 0.977039 0.320213
vt 0.985073 0.328036
vt 0.977039 0.328036
vt 0.977039 0.326027
vt 0.985073 0.326027
vt 0.195523 0.940541
vt 0.195523 0.956610
vt 0.187489 0.956610
vt 0.187489 0.940541
vt 0.985073 0.331842
vt 0.985073 0.333850
vt 0.977039 0.333850
vt 0.977039 0.331842
vt 0.944855 0.629014
vt 0.944855 0.649100
vt 0.942847 0.649100
vt 0.942847 0.629014
vt 0.939724 0.899930
vt 0.951776 0.887879
vt 0.951776 0.907965
vt 0.939724 0.907965
vt 0.208849 0.778441
vt 0.208849 0.854767
vt 0.206840 0.854767
vt 0.206840 0.778441
vt 0.882266 0.297230
vt 0.880257 0.297230
vt 0.880257 0.232955
vt 0.882266 0.232955
vt 0.854476 0.393431
vt 0.842424 0.381380
vt 0.842424 0.317105
vt 0.854476 0.317105
vt 0.939702 0.228864
vt 0.939702 0.212795
vt 0.941711 0.212795
vt 0.941711 0.228864
vt 0.954666 0.767368
vt 0.954666 0.751299
vt 0.956675 0.751299
vt 0.956675 0.767368
vt 0.954791 0.645083
vt 0.954791 0.629014
vt 0.956800 0.629014
vt 0.956800 0.645083
vt 0.799206 0.661130
vt 0.799206 0.649079
vt 0.801215 0.649079
vt 0.801215 0.661130
vt 0.985073 0.337656
vt 0.985073 0.339665
vt 0.977039 0.339665
vt 0.977039 0.337656
vt 0.977039 0.343470
vt 0.985073 0.343470
vt 0.985073 0.345479
vt 0.977039 0.345479
vt 0.286234 0.942538
vt 0.286234 0.958606
vt 0.278200 0.958606
vt 0.278200 0.942538
vt 0.985073 0.349285
vt 0.985073 0.351294
vt 0.977039 0.351294
vt 0.977039 0.349285
vt 0.977039 0.355099
vt 0.985073 0.355099
vt 0.985073 0.357108
vt 0.977039 0.357108
vt 0.905735 0.297019
vt 0.905735 0.313088
vt 0.897700 0.313088
vt 0.897700 0.297019
vt 0.985073 0.360914
vt 0.985073 0.362923
vt 0.977039 0.362923
vt 0.977039 0.360914
vt 0.977039 0.366728
vt 0.985073 0.366728
vt 0.985073 0.368737
vt 0.977039 0.368737
vt 0.948400 0.025795
vt 0.948400 0.041864
vt 0.940365 0.041864
vt 0.940365 0.025795
vt 0.985073 0.372543
vt 0.985073 0.374552
vt 0.977039 0.374552
vt 0.977039 0.372543
vt 0.943025 0.417534
vt 0.943025 0.397448
vt 0.945034 0.397448
vt 0.945034 0.417534
vt 0.951862 0.727428
vt 0.939811 0.727428
vt 0.939811 0.707343
vt 0.951862 0.719394
vt 0.594828 0.778441
vt 0.594828 0.854767
vt 0.592820 0.854767
vt 0.592820 0.778441
vt 0.880512 0.001903
vt 0.882521 0.001903
vt 0.882521 0.066178
vt 0.880512 0.066178
vt 0.810709 0.317105
vt 0.822761 0.317105
vt 0.822761 0.381380
vt 0.810709 0.393432
vt 0.663218 0.397448
vt 0.663218 0.558136
vt 0.645141 0.538050
vt 0.645141 0.417535
vt 0.468310 0.561942
vt 0.488396 0.580019
vt 0.488396 0.682457
vt 0.468310 0.682457
vt 0.595462 0.561942
vt 0.595462 0.682457
vt 0.575376 0.682457
vt 0.575376 0.580019
vt 0.709492 0.397448
vt 0.719535 0.397448
vt 0.719535 0.499887
vt 0.709492 0.499887
vt 0.531363 0.561942
vt 0.531363 0.682457
vt 0.521320 0.682457
vt 0.521320 0.561942
vt 0.712676 0.211209
vt 0.712676 0.108771
vt 0.722719 0.108771
vt 0.722719 0.211209
vt 0.723340 0.400983
vt 0.727109 0.397448
vt 0.727109 0.499887
vt 0.723340 0.496353
vt 0.571571 0.561942
vt 0.571571 0.682457
vt 0.568036 0.678689
vt 0.568036 0.565710
vt 0.729093 0.104341
vt 0.729093 0.001903
vt 0.732861 0.005437
vt 0.732861 0.100807
vt 0.560696 0.682457
vt 0.560696 0.561942
vt 0.564230 0.565710
vt 0.564230 0.678689
vt 0.763643 0.397449
vt 0.766044 0.397449
vt 0.766044 0.492818
vt 0.763643 0.492818
vt 0.128625 0.562921
vt 0.128625 0.675900
vt 0.126224 0.675900
vt 0.126224 0.562921
vt 0.762290 0.760511
vt 0.762290 0.665141
vt 0.764691 0.665141
vt 0.764691 0.760511
vt 0.132430 0.675900
vt 0.132430 0.562921
vt 0.134831 0.562921
vt 0.134831 0.675900
vt 0.599268 0.562921
vt 0.690823 0.562921
vt 0.690823 0.672083
vt 0.599268 0.672083
vt 0.767991 0.564828
vt 0.769899 0.562921
vt 0.769899 0.658290
vt 0.767991 0.656383
vt 0.140544 0.562921
vt 0.140544 0.675900
vt 0.138636 0.673992
vt 0.138636 0.564829
vt 0.153931 0.760517
vt 0.153931 0.665147
vt 0.155839 0.667055
vt 0.155839 0.758610
vt 0.148218 0.675900
vt 0.148218 0.562921
vt 0.150125 0.564829
vt 0.150125 0.673992
vt 0.550865 0.561942
vt 0.556890 0.561942
vt 0.556890 0.678440
vt 0.550865 0.678440
vt 0.545050 0.561942
vt 0.547059 0.561942
vt 0.547059 0.678440
vt 0.545050 0.678440
vt 0.539236 0.678440
vt 0.539236 0.561942
vt 0.541244 0.561942
vt 0.541244 0.678440
vt 0.744706 0.108771
vt 0.748056 0.108771
vt 0.748056 0.207193
vt 0.744706 0.207193
vt 0.749662 0.331376
vt 0.747654 0.331376
vt 0.747654 0.232955
vt 0.749662 0.232955
vt 0.155940 0.562921
vt 0.155940 0.661342
vt 0.153931 0.661342
vt 0.153931 0.562921
vt 0.746449 0.661344
vt 0.743099 0.661344
vt 0.743099 0.562921
vt 0.746449 0.562921
vt 0.750255 0.562921
vt 0.752264 0.562921
vt 0.752264 0.661342
vt 0.750255 0.661342
vt 0.752128 0.495870
vt 0.752128 0.397449
vt 0.754137 0.397449
vt 0.754137 0.495870
s 0
g A_EXPO.obj.006_SU_COLOR
usemtl SU_COLOR
f 3/1/1 2/2/1 101/3/1 1/4/1
f 99/5/2 5/6/2 6/7/2 4/8/2
f 10/9/1 9/10/1 8/11/1 7/12/1
f 8/13/3 12/14/3 11/15/3 7/16/3
f 14/17/4 13/18/4 9/19/4 10/20/4
f 11/21/5 14/22/5 10/23/5 7/24/5
f 12/25/2 13/26/2 14/27/2 11/28/2
f 16/29/6 17/30/6 6/31/6 5/32/6
f 4/33/3 15/34/3 100/35/3 99/36/3
f 17/37/5 15/38/5 4/39/5 6/40/5
f 3/41/6 19/42/6 20/43/6 2/44/6
f 101/45/3 102/46/3 18/47/3 1/48/3
f 1/49/5 18/50/5 19/51/5 3/52/5
f 17/53/1 16/54/1 100/55/1 15/56/1
f 102/57/2 20/58/2 19/59/2 18/60/2
f 22/61/2 23/62/2 24/63/2 21/64/2
f 26/65/2 27/66/2 28/67/2 25/68/2
f 30/69/2 31/70/2 32/71/2 29/72/2
f 34/73/2 35/74/2 36/75/2 33/76/2
f 37/77/4 38/78/4 24/79/4 23/80/4
f 21/81/3 44/82/3 43/83/3 22/84/3
f 38/85/5 44/86/5 21/87/5 24/88/5
f 41/89/4 42/90/4 28/91/4 27/92/4
f 25/93/3 40/94/3 39/95/3 26/96/3
f 42/97/5 40/98/5 25/99/5 28/100/5
f 49/101/4 50/102/4 32/103/4 31/104/4
f 29/105/3 48/106/3 47/107/3 30/108/3
f 50/109/5 48/110/5 29/111/5 32/112/5
f 45/113/4 46/114/4 36/115/4 35/116/4
f 33/117/3 52/118/3 51/119/3 34/120/3
f 46/121/5 52/122/5 33/123/5 36/124/5
f 97/125/1 51/126/1 52/127/1 53/128/1
f 46/129/2 45/130/2 54/131/2 55/132/2
f 52/133/5 46/134/5 55/135/5 53/136/5
f 56/137/1 59/138/1 58/139/1 57/140/1
f 60/141/1 63/142/1 62/143/1 61/144/1
f 64/145/1 67/146/1 66/147/1 65/148/1
f 68/149/1 71/150/1 70/151/1 69/152/1
f 58/153/4 59/154/4 73/155/4 72/156/4
f 57/157/3 78/158/3 79/159/3 56/160/3
f 59/161/5 56/162/5 79/163/5 73/164/5
f 62/165/4 63/166/4 77/167/4 76/168/4
f 61/169/3 74/170/3 75/171/3 60/172/3
f 63/173/5 60/174/5 75/175/5 77/176/5
f 66/177/4 67/178/4 85/179/4 84/180/4
f 65/181/3 82/182/3 83/183/3 64/184/3
f 67/185/5 64/186/5 83/187/5 85/188/5
f 70/189/4 71/190/4 81/191/4 80/192/4
f 69/193/3 86/194/3 87/195/3 68/196/3
f 71/197/5 68/198/5 87/199/5 81/200/5
f 88/201/2 87/202/2 86/203/2 98/204/2
f 90/205/1 89/206/1 80/207/1 81/208/1
f 88/209/5 90/210/5 81/211/5 87/212/5
f 92/213/5 91/214/5 98/215/5 97/216/5
f 92/217/5 97/218/5 100/219/5 99/220/5
f 91/221/5 101/222/5 102/223/5 98/224/5
f 94/225/2 98/226/2 102/227/2 93/228/2
f 97/229/3 98/230/3 94/231/3 95/232/3
f 100/233/1 97/234/1 95/235/1 96/236/1
f 108/237/5 106/238/5 104/239/5 107/240/5
f 105/241/5 106/242/5 108/243/5 109/244/5
f 103/245/5 105/246/5 109/247/5 110/248/5
f 104/249/5 103/250/5 110/251/5 107/252/5
f 117/253/2 108/254/2 107/255/2 118/256/2
f 109/257/3 108/258/3 117/259/3 114/260/3
f 110/261/1 109/262/1 114/263/1 113/264/1
f 107/265/4 110/266/4 113/267/4 118/268/4
f 115/273/5 117/274/5 118/275/5 116/276/5
f 114/277/5 117/278/5 115/279/5 112/280/5
f 113/281/5 114/282/5 112/283/5 111/284/5
f 118/285/5 113/286/5 111/287/5 116/288/5
f 122/289/5 121/290/5 120/291/5 119/292/5
f 121/293/4 125/294/4 124/295/4 120/296/4
f 123/297/3 126/298/3 122/299/3 119/300/3
f 130/301/5 129/302/5 128/303/5 127/304/5
f 129/305/2 133/306/2 132/307/2 128/308/2
f 131/309/1 134/310/1 130/311/1 127/312/1
f 135/313/5 136/314/5 137/315/5 138/316/5
f 136/317/1 140/318/1 141/319/1 137/320/1
f 135/321/2 138/322/2 142/323/2 139/324/2
g A_EXPO.obj.006_wall
usemtl wall
f 111/269/5 112/270/5 115/271/5 116/272/5
