# Blender 3.6.0
# www.blender.org
mtllib NY_wallWindow4.mtl
o wall_low
v -0.190435 0.422250 -1.205069
v -0.190437 1.489545 -1.205069
v -0.190437 1.489545 -1.816853
v -0.190435 0.422250 -1.816853
v -0.235430 0.422250 -1.816853
v -0.235430 1.489545 -1.816853
v -0.235430 1.489545 -1.205069
v -0.235430 0.422250 -1.205069
v -0.002171 -0.010363 -3.017076
v -0.002171 -0.010363 -0.004846
v -0.002172 2.023871 -3.017076
v -0.002172 1.549217 -1.887490
v -0.002172 1.549217 -1.134432
v -0.002172 2.023871 -0.004846
v -0.002171 0.328676 -1.887490
v -0.002171 0.328676 -1.134432
v -0.209263 0.738981 -1.172085
v -0.209263 0.799872 -1.172085
v -0.209263 0.799872 -1.849837
v -0.209263 0.738981 -1.849837
v -0.246916 0.738981 -1.172085
v -0.246916 0.799872 -1.172085
v -0.246916 0.799872 -1.849837
v -0.246916 0.738981 -1.849837
v -0.002171 0.328676 -2.014982
v -0.002171 0.328676 -1.006940
v -0.002172 1.650792 -1.006940
v -0.002172 1.650792 -2.014982
v 0.033342 1.549217 -1.887490
v 0.033342 1.549217 -1.134432
v 0.033342 0.328676 -1.887490
v 0.033342 0.328676 -1.134432
v 0.033342 0.328676 -2.014982
v 0.033342 0.328676 -1.006940
v 0.033342 1.650792 -1.006940
v 0.033342 1.650792 -2.014982
v 0.073133 0.294772 -0.946168
v 0.073133 0.362580 -0.946168
v 0.073133 0.362580 -2.075754
v 0.073133 0.294772 -2.075754
v -0.190435 0.294772 -0.946168
v -0.190435 0.362580 -0.946168
v -0.190435 0.362580 -2.075754
v -0.190435 0.294772 -2.075754
v -0.003731 0.209605 -1.982527
v -0.003731 0.209605 -1.039395
v -0.201643 0.209605 -1.039395
v -0.201643 0.209605 -1.982527
v -0.002172 2.023871 -1.369010
v -0.002172 1.661574 -1.383997
v -0.002172 2.023871 -1.652912
v -0.002172 1.661574 -1.637925
v -0.190437 1.661574 -1.383997
v -0.190437 1.592071 -1.390096
v -0.190437 1.661574 -1.637925
v -0.190437 1.592071 -1.631826
v -0.235430 1.592071 -1.390096
v -0.235430 1.592071 -1.631826
v -0.002172 1.775626 -1.377970
v 0.033342 1.775626 -1.377970
v 0.033342 1.775626 -1.643952
v -0.002172 1.775626 -1.643952
v 0.033342 1.661574 -1.383997
v 0.033342 1.661574 -1.637925
v -0.235430 1.553827 -1.627460
v -0.190437 1.549217 -1.887490
v -0.235430 1.457337 -1.781083
v -0.235430 1.553827 -1.394462
v -0.190437 1.549217 -1.134432
v -0.235430 1.457337 -1.240839
v -0.190435 0.328676 -1.887490
v -0.235430 0.454459 -1.781083
v -0.190435 0.328676 -1.134432
v -0.235430 0.454459 -1.240839
vn 1.0000 -0.0000 -0.0000
vn -0.0000 -0.0000 -1.0000
vn -0.0000 -0.0000 1.0000
vn -0.0000 -0.7383 0.6745
vn -0.0000 -0.7383 -0.6745
vn -0.0000 1.0000 -0.0000
vn -0.0000 -1.0000 -0.0000
vn 0.7424 -0.6700 -0.0000
vn -0.0000 -0.8747 -0.4847
vn -0.0000 -0.8747 0.4847
vn -0.0000 0.9478 0.3189
vn -0.0000 0.9478 -0.3189
vn -0.0000 -0.9118 -0.4105
vn -0.0000 -0.9118 0.4105
vt 0.921913 0.564575
vt 0.942726 0.545049
vt 0.942726 0.944450
vt 0.921913 0.913829
vt 0.921913 0.399840
vt 0.921913 0.000439
vt 0.942726 0.019965
vt 0.942726 0.369219
vt 0.944980 0.226378
vt 0.958237 0.226378
vt 0.958237 0.575631
vt 0.944980 0.575631
vt 0.962215 0.561844
vt 0.962215 0.212590
vt 0.975472 0.212590
vt 0.975472 0.561844
vt 0.868419 0.011146
vt 0.878959 0.000606
vt 0.878959 0.349860
vt 0.868419 0.339320
vt 0.989060 0.785892
vt 0.989060 0.436638
vt 0.999600 0.447178
vt 0.999600 0.775353
vt 0.918443 0.697604
vt 0.586639 0.540092
vt 0.589270 0.140700
vt 0.922827 0.031950
vt 0.030904 0.691757
vt 0.035289 0.026103
vt 0.367385 0.139238
vt 0.364754 0.538631
vt 0.801403 0.362363
vt 0.801403 0.761764
vt 0.735467 0.761764
vt 0.735467 0.362363
vt 0.977071 0.989259
vt 0.977071 0.556619
vt 0.987536 0.556619
vt 0.987536 0.989259
vt 0.920321 0.437701
vt 0.920321 0.870341
vt 0.882756 0.870341
vt 0.882756 0.470940
vt 0.668252 0.761764
vt 0.668252 0.362362
vt 0.734189 0.362363
vt 0.734189 0.761764
vt 0.989259 0.001669
vt 0.989259 0.434309
vt 0.978795 0.434309
vt 0.978795 0.001669
vt 0.882755 0.434309
vt 0.882755 0.001669
vt 0.920321 0.034908
vt 0.920321 0.434309
vt 0.429354 0.492906
vt 0.429354 0.415245
vt 0.451543 0.415245
vt 0.451543 0.492906
vt 0.270797 0.425585
vt 0.292986 0.425585
vt 0.292986 0.503247
vt 0.270797 0.503247
vt 0.170621 0.422283
vt 0.170621 0.480599
vt 0.131490 0.503247
vt 0.131490 0.425586
vt 0.388284 0.473705
vt 0.388284 0.415389
vt 0.427415 0.418692
vt 0.427415 0.496353
vt 0.457470 0.537716
vt 0.457470 0.338015
vt 0.477395 0.338015
vt 0.477395 0.537716
vt 0.495599 0.537716
vt 0.495599 0.338015
vt 0.506694 0.338015
vt 0.506694 0.537716
vt 0.509387 0.537716
vt 0.509387 0.338015
vt 0.520481 0.338015
vt 0.520481 0.537716
vt 0.944851 0.000435
vt 0.975472 0.021249
vt 0.975472 0.201512
vt 0.944851 0.222325
vt 0.479649 0.517034
vt 0.479649 0.336770
vt 0.492906 0.336770
vt 0.492906 0.517034
vt 0.532546 0.364545
vt 0.532546 0.523729
vt 0.522006 0.534269
vt 0.522006 0.354006
vt 0.944665 0.968578
vt 0.944665 0.635744
vt 0.966854 0.635744
vt 0.966854 0.968578
vt 0.803021 0.696273
vt 0.803021 0.363438
vt 0.880682 0.363438
vt 0.880682 0.696273
vt 0.830983 0.306880
vt 0.830983 0.028985
vt 0.866894 0.001515
vt 0.866894 0.334349
vt 0.861724 0.699300
vt 0.861724 0.977195
vt 0.803409 0.977195
vt 0.803409 0.699300
vt 0.438045 0.575881
vt 0.432848 0.694405
vt 0.512864 0.576374
vt 0.516499 0.694956
vt 0.239559 0.434363
vt 0.233933 0.498130
vt 0.212786 0.506694
vt 0.212786 0.424481
vt 0.263231 0.433043
vt 0.268858 0.496810
vt 0.242086 0.506694
vt 0.242086 0.424480
vt 0.534799 0.520481
vt 0.534799 0.456467
vt 0.548056 0.456467
vt 0.548056 0.520481
vt 0.398116 0.484042
vt 0.398116 0.548057
vt 0.384859 0.548057
vt 0.384859 0.484042
vt 0.384329 0.456471
vt 0.381161 0.511570
vt 0.369829 0.517034
vt 0.369829 0.453020
vt 0.363926 0.444695
vt 0.367094 0.499793
vt 0.352594 0.503247
vt 0.352594 0.439231
vt 0.863323 0.758804
vt 0.873788 0.758804
vt 0.873788 0.875511
vt 0.863324 0.875512
vt 0.544610 0.336559
vt 0.544610 0.453267
vt 0.534146 0.453267
vt 0.534145 0.336559
vt 0.292986 0.338307
vt 0.292986 0.420521
vt 0.227049 0.420521
vt 0.227050 0.338307
vt 0.224048 0.338306
vt 0.224048 0.420521
vt 0.158111 0.420521
vt 0.158111 0.338307
vt 0.341767 0.431436
vt 0.350470 0.349683
vt 0.386052 0.338284
vt 0.386053 0.454990
vt 0.330816 0.349684
vt 0.339519 0.431435
vt 0.295234 0.454990
vt 0.295234 0.338283
vt 0.349860 0.438767
vt 0.349860 0.513587
vt 0.327116 0.511790
vt 0.327116 0.440564
vt 0.322285 0.449255
vt 0.322285 0.520481
vt 0.309028 0.520481
vt 0.309028 0.449255
vt 0.306774 0.456149
vt 0.306774 0.527375
vt 0.294259 0.526088
vt 0.294259 0.457435
vt 0.679039 0.766118
vt 0.679039 0.844489
vt 0.668574 0.844489
vt 0.668574 0.766118
vt 0.210261 0.424876
vt 0.210261 0.503247
vt 0.172939 0.501472
vt 0.172939 0.426651
vt 0.454990 0.337084
vt 0.454990 0.411904
vt 0.389053 0.411904
vt 0.389053 0.337084
vt 0.669794 0.360201
vt 0.669794 0.032026
vt 0.715060 0.000451
vt 0.828978 0.360201
vt 0.783713 0.000451
vt 0.828977 0.032026
s 0
g wall_low_SU_COLOR
usemtl SU_COLOR
f 2/1/1 69/2/1 73/3/1 1/4/1
f 71/5/1 66/6/1 3/7/1 4/8/1
f 7/9/2 2/10/2 1/11/2 8/12/2
f 4/13/3 3/14/3 6/15/3 5/16/3
f 70/17/1 7/18/1 8/19/1 74/20/1
f 5/21/1 6/22/1 67/23/1 72/24/1
f 30/33/2 32/34/2 73/35/2 69/36/2
f 34/37/3 35/38/3 27/39/3 26/40/3
f 35/41/1 34/42/1 32/43/1 30/44/1
f 31/45/3 29/46/3 66/47/3 71/48/3
f 36/49/2 33/50/2 25/51/2 28/52/2
f 33/53/1 36/54/1 29/55/1 31/56/1
f 38/57/3 42/58/3 41/59/3 37/60/3
f 44/61/2 43/62/2 39/63/2 40/64/2
f 47/65/4 46/66/4 37/67/4 41/68/4
f 45/69/5 48/70/5 44/71/5 40/72/5
f 17/73/1 20/74/1 19/75/1 18/76/1
f 18/77/6 19/78/6 23/79/6 22/80/6
f 21/81/7 24/82/7 20/83/7 17/84/7
f 71/85/1 4/86/1 1/87/1 73/88/1
f 1/89/6 4/90/6 5/91/6 8/92/6
f 72/93/1 74/94/1 8/95/1 5/96/1
f 37/97/1 40/98/1 39/99/1 38/100/1
f 38/101/6 39/102/6 43/103/6 42/104/6
f 46/105/8 45/106/8 40/107/8 37/108/8
f 45/109/7 46/110/7 47/111/7 48/112/7
f 2/117/1 54/118/1 53/119/1 69/120/1
f 56/121/1 3/122/1 66/123/1 55/124/1
f 7/125/9 57/126/9 54/127/9 2/128/9
f 3/129/10 56/130/10 58/131/10 6/132/10
f 70/133/1 68/134/1 57/135/1 7/136/1
f 65/137/1 67/138/1 6/139/1 58/140/1
f 60/141/11 59/142/11 27/143/11 35/144/11
f 28/145/12 62/146/12 61/147/12 36/148/12
f 69/149/13 53/150/13 63/151/13 30/152/13
f 29/153/14 64/154/14 55/155/14 66/156/14
f 30/157/1 63/158/1 60/159/1 35/160/1
f 64/161/1 29/162/1 36/163/1 61/164/1
f 55/165/1 53/166/1 54/167/1 56/168/1
f 56/169/7 54/170/7 57/171/7 58/172/7
f 58/173/1 57/174/1 68/175/1 65/176/1
f 62/177/6 59/178/6 60/179/6 61/180/6
f 61/181/1 60/182/1 63/183/1 64/184/1
f 64/185/7 63/186/7 53/187/7 55/188/7
g wall_low_wal
usemtl wal
f 11/25/1 12/26/1 15/27/1 9/28/1
f 14/29/1 10/30/1 16/31/1 13/32/1
f 15/27/1 16/31/1 10/30/1 9/28/1
f 13/32/1 50/113/1 49/114/1 14/29/1
f 52/115/1 12/26/1 11/25/1 51/116/1
f 51/116/1 49/114/1 50/113/1 52/115/1
g wall_low_glass
usemtl glass
f 72/189/1 67/190/1 65/191/1
f 74/192/1 68/193/1 70/194/1
f 72/189/1 65/191/1 68/193/1 74/192/1
