# Blender 3.6.0
# www.blender.org
mtllib NY_wallWindow2.mtl
o A_EXPO.obj.008
v -0.185008 0.415932 -1.202472
v -0.185008 1.648527 -1.202472
v -0.185008 1.648527 -1.820298
v -0.185008 0.415932 -1.820298
v -0.230446 0.448024 -1.784174
v -0.230446 1.616442 -1.784174
v -0.230446 0.415932 -1.820298
v -0.230446 1.648527 -1.820298
v -0.230446 1.616442 -1.238596
v -0.230446 0.448024 -1.238596
v -0.230446 1.648527 -1.202472
v -0.230446 0.415932 -1.202472
v 0.005116 -0.015173 -3.032376
v 0.005116 -0.015173 0.009607
v 0.005116 2.012065 -3.032376
v 0.005116 1.707979 -1.891632
v -0.185008 1.707979 -1.891632
v 0.005116 1.707979 -1.131137
v -0.185008 1.707979 -1.131137
v 0.005116 2.012065 0.009607
v 0.005116 0.322700 -1.891632
v -0.185008 0.322700 -1.891632
v 0.005116 0.322700 -1.131137
v -0.185008 0.322700 -1.131137
v -0.204020 0.731594 -1.169162
v -0.204020 0.792276 -1.169162
v -0.204020 0.792276 -1.853608
v -0.204020 0.731594 -1.853608
v -0.242046 0.731594 -1.169162
v -0.242046 0.792276 -1.169162
v -0.242046 0.792276 -1.853608
v -0.242046 0.731594 -1.853608
v -0.185008 1.707979 -1.891632
v -0.185008 1.707979 -1.131137
v -0.185008 0.322700 -1.891632
v -0.185008 0.322700 -1.131137
v 0.005116 0.322700 -2.020384
v 0.005116 0.322700 -1.002385
v 0.005116 1.809233 -1.002385
v 0.005116 1.809233 -2.020384
v 0.040980 1.707979 -1.891632
v 0.040980 1.707979 -1.131137
v 0.040980 0.322700 -1.891632
v 0.040980 0.322700 -1.131137
v 0.040980 0.322700 -2.020384
v 0.040980 0.322700 -1.002385
v 0.040980 1.809233 -1.002385
v 0.040980 1.809233 -2.020384
v 0.081166 0.288912 -0.941013
v 0.081166 0.356487 -0.941013
v 0.081166 0.356487 -2.081756
v 0.081166 0.288912 -2.081756
v -0.185008 0.288912 -0.941013
v -0.185008 0.356487 -0.941013
v -0.185008 0.356487 -2.081756
v -0.185008 0.288912 -2.081756
v 0.003541 0.204052 -1.987608
v 0.003541 0.204052 -1.035163
v -0.196327 0.204052 -1.035163
v -0.196327 0.204052 -1.987608
vn 1.0000 -0.0000 -0.0000
vn -0.0000 -0.0000 -1.0000
vn -0.0000 -1.0000 -0.0000
vn -0.0000 -0.0000 1.0000
vn -0.0000 1.0000 -0.0000
vn 0.7379 -0.6750 -0.0000
vn -0.0000 -0.7428 0.6695
vn -0.0000 -0.7428 -0.6695
vt 0.908924 0.681961
vt 0.000378 0.681787
vt 0.341102 0.579641
vt 0.568238 0.579684
vt 0.912048 0.910727
vt 0.932032 0.932032
vt 0.466402 0.932032
vt 0.497740 0.910727
vt 0.468330 0.883590
vt 0.695467 0.883590
vt 0.674161 0.903573
vt 0.489636 0.903573
vt 0.910727 0.467795
vt 0.910726 0.002165
vt 0.932032 0.022149
vt 0.932032 0.436457
vt 0.949819 0.907130
vt 0.722683 0.907130
vt 0.743988 0.875792
vt 0.928513 0.875792
vt 0.343945 0.115741
vt 0.357516 0.115741
vt 0.357516 0.530049
vt 0.343945 0.530049
vt 0.436236 0.936248
vt 0.620762 0.936248
vt 0.620762 0.949819
vt 0.436236 0.949819
vt 0.359953 0.530049
vt 0.359953 0.115741
vt 0.373524 0.115741
vt 0.373524 0.530049
vt 0.946261 0.873335
vt 0.761734 0.873335
vt 0.761735 0.859764
vt 0.946261 0.859764
vt 0.400896 0.565622
vt 0.400896 0.172885
vt 0.563844 0.172885
vt 0.563844 0.565622
vt 0.375186 0.126525
vt 0.385975 0.115741
vt 0.385975 0.530049
vt 0.375186 0.519262
vt 0.960491 0.000458
vt 0.960491 0.184983
vt 0.949706 0.174195
vt 0.949706 0.011247
vt 0.387637 0.530049
vt 0.387637 0.115741
vt 0.398426 0.126525
vt 0.398426 0.519262
vt 0.807524 0.946262
vt 0.622999 0.946262
vt 0.633787 0.935475
vt 0.796735 0.935475
vt 0.568327 0.114055
vt 0.909054 0.000552
vt 0.000509 0.000378
vt 0.341191 0.114012
vt 0.229576 0.953376
vt 0.229576 0.932979
vt 0.434000 0.932979
vt 0.434000 0.953376
vt 0.934904 0.001904
vt 0.946261 0.001904
vt 0.946261 0.206328
vt 0.934904 0.206328
vt 0.934905 0.414434
vt 0.934905 0.210011
vt 0.946261 0.210011
vt 0.946261 0.414434
vt 0.466016 0.928474
vt 0.000387 0.928474
vt 0.000387 0.860979
vt 0.466016 0.860979
vt 0.001926 0.779025
vt 0.501589 0.779025
vt 0.501589 0.789737
vt 0.001926 0.789737
vt 0.409476 0.684321
vt 0.909139 0.684416
vt 0.909132 0.722871
vt 0.443502 0.722781
vt 0.466016 0.859106
vt 0.000387 0.859106
vt 0.000386 0.791610
vt 0.466016 0.791610
vt 0.001926 0.766575
vt 0.501590 0.766575
vt 0.501590 0.777286
vt 0.001926 0.777286
vt 0.409468 0.725231
vt 0.909131 0.725327
vt 0.875090 0.763774
vt 0.409460 0.763685
vt 0.811081 0.766575
vt 0.811081 0.777286
vt 0.507036 0.777286
vt 0.507036 0.766575
vt 0.000536 0.932126
vt 0.227672 0.932126
vt 0.227672 0.999622
vt 0.000536 0.999622
vt 0.771950 0.848194
vt 0.733496 0.882228
vt 0.506360 0.882228
vt 0.467906 0.848194
vt 0.468597 0.846655
vt 0.468597 0.823941
vt 0.809302 0.823941
vt 0.809302 0.846655
vt 0.345474 0.764835
vt 0.345474 0.685338
vt 0.368188 0.685338
vt 0.368188 0.764835
vt 0.000803 0.764835
vt 0.000803 0.685338
vt 0.341508 0.685338
vt 0.341508 0.764835
vt 0.370376 0.685338
vt 0.393090 0.685338
vt 0.393090 0.764835
vt 0.370376 0.764835
vt 0.509168 0.784996
vt 0.793634 0.784996
vt 0.821753 0.821753
vt 0.481048 0.821753
vt 0.480245 0.156524
vt 0.420551 0.156524
vt 0.397367 0.116471
vt 0.476865 0.116471
vt 0.498813 0.128922
vt 0.558508 0.128922
vt 0.555127 0.168976
vt 0.475629 0.168976
vt 0.971163 0.754163
vt 0.911469 0.754163
vt 0.911469 0.469697
vt 0.971163 0.469697
s 0
g A_EXPO.obj.008_glass
usemtl glass
f 5/37/1 6/38/1 9/39/1 10/40/1
g A_EXPO.obj.008_frame
usemtl frame
f 2/5/1 19/6/1 24/7/1 1/8/1
f 17/9/1 19/10/1 2/11/1 3/12/1
f 22/13/1 17/14/1 3/15/1 4/16/1
f 24/17/1 22/18/1 4/19/1 1/20/1
f 11/21/2 2/22/2 1/23/2 12/24/2
f 3/25/3 2/26/3 11/27/3 8/28/3
f 4/29/4 3/30/4 8/31/4 7/32/4
f 1/33/5 4/34/5 7/35/5 12/36/5
f 9/41/1 11/42/1 12/43/1 10/44/1
f 8/45/1 11/46/1 9/47/1 6/48/1
f 7/49/1 8/50/1 6/51/1 5/52/1
f 12/53/1 7/54/1 5/55/1 10/56/1
f 28/61/1 27/62/1 26/63/1 25/64/1
f 27/65/5 31/66/5 30/67/5 26/68/5
f 29/69/3 32/70/3 28/71/3 25/72/3
f 42/73/2 44/74/2 36/75/2 34/76/2
f 46/77/4 47/78/4 39/79/4 38/80/4
f 47/81/1 46/82/1 44/83/1 42/84/1
f 43/85/4 41/86/4 33/87/4 35/88/4
f 48/89/2 45/90/2 37/91/2 40/92/2
f 45/93/1 48/94/1 41/95/1 43/96/1
f 39/97/5 47/98/5 48/99/5 40/100/5
f 41/101/3 42/102/3 34/103/3 33/104/3
f 47/105/1 42/106/1 41/107/1 48/108/1
f 52/109/1 51/110/1 50/111/1 49/112/1
f 50/113/4 54/114/4 53/115/4 49/116/4
f 51/117/5 55/118/5 54/119/5 50/120/5
f 56/121/2 55/122/2 51/123/2 52/124/2
f 58/125/6 57/126/6 52/127/6 49/128/6
f 59/129/7 58/130/7 49/131/7 53/132/7
f 57/133/8 60/134/8 56/135/8 52/136/8
f 58/137/3 59/138/3 60/139/3 57/140/3
g A_EXPO.obj.008_wal
usemtl wal
f 15/1/1 20/2/1 18/3/1 16/4/1
f 15/1/1 16/4/1 21/57/1 13/58/1
f 20/2/1 14/59/1 23/60/1 18/3/1
f 23/60/1 14/59/1 13/58/1 21/57/1
