# Blender 3.6.0
# www.blender.org
mtllib NY_wallWindow3.mtl
o A_EXPO.obj.006
v 0.142199 -0.004518 -0.003613
v -0.010097 0.396209 -0.003613
v 0.142199 0.329421 -0.003613
v 0.142199 -0.004518 -3.049539
v -0.010097 0.396209 -3.049539
v 0.142199 0.329421 -3.049539
v 0.027976 1.698571 -0.003613
v -0.010097 1.698571 -0.003613
v -0.010097 1.965722 -0.003613
v 0.027976 1.965722 -0.003613
v 0.027976 1.698571 -3.049539
v -0.010097 1.698571 -3.049539
v -0.010097 1.965722 -3.049539
v 0.027976 1.965722 -3.049539
v 0.142199 -0.004518 -2.668798
v -0.010097 0.396209 -2.668798
v 0.142199 0.329421 -2.668798
v 0.142199 -0.004518 -0.384354
v 0.142199 0.329421 -0.384354
v -0.010097 0.396209 -0.384354
v 0.027976 1.364632 -3.049539
v -0.010097 1.364632 -3.049539
v -0.010097 1.631783 -3.049539
v 0.027976 1.631783 -3.049539
v 0.027976 1.030693 -3.049539
v -0.010097 1.030693 -3.049539
v -0.010097 1.297844 -3.049539
v 0.027976 1.297844 -3.049539
v 0.027976 0.696754 -3.049539
v -0.010097 0.696754 -3.049539
v -0.010097 0.963905 -3.049539
v 0.027976 0.963905 -3.049539
v 0.027976 0.429603 -3.049539
v -0.010097 0.429603 -3.049539
v -0.010097 0.629966 -3.049539
v 0.027976 0.629966 -3.049539
v -0.010097 1.631783 -2.897242
v 0.027976 1.631783 -2.897242
v -0.010097 1.030693 -2.897242
v 0.027976 1.030693 -2.897242
v -0.010097 1.297844 -2.897242
v 0.027976 1.297844 -2.897242
v -0.010097 1.364632 -2.897242
v 0.027976 1.364632 -2.897242
v -0.010097 0.629966 -2.897242
v 0.027976 0.629966 -2.897242
v -0.010097 0.696754 -2.897242
v 0.027976 0.696754 -2.897242
v -0.010097 0.963905 -2.897242
v 0.027976 0.963905 -2.897242
v -0.010097 0.429603 -2.668798
v 0.027976 0.429603 -2.668798
v 0.027976 1.698571 -2.668798
v -0.010097 1.698571 -2.897242
v 0.027976 1.698571 -2.897242
v 0.027976 1.364632 -0.003613
v -0.010097 1.364632 -0.003613
v -0.010097 1.631783 -0.003613
v 0.027976 1.631783 -0.003613
v 0.027976 1.030693 -0.003613
v -0.010097 1.030693 -0.003613
v -0.010097 1.297844 -0.003613
v 0.027976 1.297844 -0.003613
v 0.027976 0.696754 -0.003613
v -0.010097 0.696754 -0.003613
v -0.010097 0.963905 -0.003613
v 0.027976 0.963905 -0.003613
v 0.027976 0.429603 -0.003613
v -0.010097 0.429603 -0.003613
v -0.010097 0.629966 -0.003613
v 0.027976 0.629966 -0.003613
v -0.010097 1.631783 -0.155910
v 0.027976 1.631783 -0.155910
v -0.010097 1.030693 -0.155910
v 0.027976 1.030693 -0.155910
v -0.010097 1.297844 -0.155910
v 0.027976 1.297844 -0.155910
v -0.010097 1.364632 -0.155910
v 0.027976 1.364632 -0.155910
v -0.010097 0.629966 -0.155910
v 0.027976 0.629966 -0.155910
v -0.010097 0.696754 -0.155910
v 0.027976 0.696754 -0.155910
v -0.010097 0.963905 -0.155910
v 0.027976 0.963905 -0.155910
v -0.010097 0.429603 -0.384354
v 0.027976 0.429603 -0.384354
v 0.027976 1.698571 -0.384354
v -0.010097 1.698571 -0.155910
v 0.027976 1.698571 -0.155910
v -0.010097 1.999116 -0.003613
v -0.010097 1.999116 -3.049539
v -0.200468 -0.004518 -0.384354
v -0.200468 1.698571 -0.384354
v -0.200468 1.698571 -2.668798
v -0.200468 -0.004518 -2.668798
v -0.010097 1.698571 -2.668798
v -0.010097 1.698571 -0.384354
v -0.010097 -0.004518 -3.049539
v -0.010097 -0.004518 -2.668798
v -0.010097 -0.004518 -0.003613
v -0.010097 -0.004518 -0.384354
v -0.200468 -0.004518 -2.668798
v -0.200468 -0.004518 -0.384354
v -0.200468 1.698571 -2.668798
v -0.200468 1.698571 -0.384354
v -0.200468 0.054239 -0.455781
v -0.200468 1.639811 -0.455781
v -0.200468 1.639811 -2.597371
v -0.200468 0.054239 -2.597371
v -0.245964 0.085950 -2.561200
v -0.245964 1.608100 -2.561200
v -0.245964 0.054239 -2.597371
v -0.245964 1.639811 -2.597371
v -0.245964 1.608100 -0.491952
v -0.245964 0.085950 -0.491952
v -0.245964 1.639811 -0.455781
v -0.245964 0.054239 -0.455781
v -0.219504 0.796936 -0.422428
v -0.219504 0.897117 -0.422428
v -0.219504 0.897117 -2.630724
v -0.219504 0.796936 -2.630724
v -0.257579 0.796936 -0.422428
v -0.257579 0.897117 -0.422428
v -0.257579 0.897117 -2.630724
v -0.257579 0.796936 -2.630724
v -0.227345 1.665177 -1.894599
v -0.227345 1.665177 -1.958107
v -0.227345 0.028876 -1.958107
v -0.227345 0.028876 -1.894599
v -0.265420 1.665177 -1.894599
v -0.265420 1.665177 -1.958107
v -0.265420 0.028876 -1.958107
v -0.265420 0.028876 -1.894599
v -0.227345 1.665177 -1.158553
v -0.227345 1.665177 -1.095045
v -0.227345 0.028876 -1.095045
v -0.227345 0.028876 -1.158553
v -0.265420 1.665177 -1.158553
v -0.265420 1.665177 -1.095045
v -0.265420 0.028876 -1.095045
v -0.265420 0.028876 -1.158553
vn -0.0000 -0.0000 1.0000
vn -0.0000 -0.0000 -1.0000
vn -0.0000 -1.0000 -0.0000
vn -0.0000 1.0000 -0.0000
vn 1.0000 -0.0000 -0.0000
vn 0.4016 0.9158 -0.0000
vt 0.239694 0.511215
vt 0.274470 0.493826
vt 0.274470 0.598156
vt 0.239694 0.598156
vt 0.312328 0.527898
vt 0.312328 0.632228
vt 0.277552 0.614840
vt 0.277552 0.527898
vt 0.612177 0.596747
vt 0.620871 0.596747
vt 0.620871 0.666300
vt 0.612177 0.666300
vt 0.896112 0.696587
vt 0.896111 0.001055
vt 0.904806 0.001055
vt 0.904806 0.696587
vt 0.907469 0.001055
vt 0.916163 0.001055
vt 0.916163 0.696587
vt 0.907469 0.696587
vt 0.696490 0.699888
vt 0.696587 0.769441
vt 0.001055 0.770410
vt 0.000958 0.700857
vt 0.160896 0.566461
vt 0.160896 0.636014
vt 0.152202 0.636014
vt 0.152202 0.566461
vt 0.598156 0.613299
vt 0.559275 0.613299
vt 0.559275 0.526358
vt 0.598156 0.526358
vt 0.215790 0.537715
vt 0.215790 0.624657
vt 0.181014 0.624657
vt 0.181014 0.537715
vt 0.090991 0.564084
vt 0.090991 0.477142
vt 0.177932 0.477142
vt 0.177932 0.564084
vt 0.517631 0.613299
vt 0.517631 0.526357
vt 0.556512 0.526357
vt 0.556512 0.613299
vt 0.315409 0.620871
vt 0.315409 0.533929
vt 0.350186 0.533929
vt 0.350186 0.620871
vt 0.002025 0.477142
vt 0.088966 0.477142
vt 0.088966 0.564084
vt 0.002025 0.564084
vt 0.358946 0.492285
vt 0.393723 0.474897
vt 0.393723 0.579227
vt 0.358946 0.579227
vt 0.514868 0.527898
vt 0.514868 0.632228
vt 0.480092 0.614840
vt 0.480092 0.527898
vt 0.571655 0.002377
vt 0.571655 0.071930
vt 0.562961 0.071930
vt 0.562961 0.002377
vt 0.658729 0.526710
vt 0.658729 0.596263
vt 0.650034 0.596263
vt 0.650034 0.526710
vt 0.623534 0.666300
vt 0.623534 0.596747
vt 0.632228 0.596747
vt 0.632228 0.666300
vt 0.411529 0.053001
vt 0.411529 0.000836
vt 0.420223 0.000836
vt 0.420223 0.053001
vt 0.597033 0.001188
vt 0.605728 0.001188
vt 0.605728 0.035965
vt 0.597033 0.035965
vt 0.247970 0.601237
vt 0.247970 0.636014
vt 0.239276 0.636014
vt 0.239276 0.601237
vt 0.636014 0.524817
vt 0.636014 0.594370
vt 0.601237 0.594370
vt 0.601237 0.524817
vt 0.250633 0.601237
vt 0.259327 0.601237
vt 0.259327 0.636014
vt 0.250633 0.636014
vt 0.533797 0.001188
vt 0.533797 0.035965
vt 0.525103 0.035965
vt 0.525103 0.001188
vt 0.035965 0.566460
vt 0.035965 0.636014
vt 0.001188 0.636014
vt 0.001188 0.566461
vt 0.261990 0.601237
vt 0.270685 0.601237
vt 0.270685 0.636014
vt 0.261990 0.636014
vt 0.229041 0.612595
vt 0.229041 0.647371
vt 0.220347 0.647371
vt 0.220347 0.612595
vt 0.073823 0.566461
vt 0.073823 0.636013
vt 0.039046 0.636014
vt 0.039046 0.566461
vt 0.390707 0.612595
vt 0.399402 0.612595
vt 0.399402 0.647371
vt 0.390707 0.647371
vt 0.236612 0.522572
vt 0.236612 0.609513
vt 0.227918 0.609513
vt 0.227918 0.522572
vt 0.321091 0.530012
vt 0.268305 0.478475
vt 0.355240 0.477434
vt 0.355865 0.529595
vt 0.999450 0.000879
vt 0.999450 0.331257
vt 0.990756 0.331257
vt 0.990756 0.000879
vt 0.906698 0.976736
vt 0.898004 0.976736
vt 0.898004 0.698523
vt 0.906698 0.698523
vt 0.760041 0.447452
vt 0.812054 0.499770
vt 0.811239 0.777981
vt 0.759074 0.777829
vt 0.600819 0.666300
vt 0.600819 0.596747
vt 0.609513 0.596747
vt 0.609513 0.666300
vt 0.400172 0.071930
vt 0.400172 0.002377
vt 0.408866 0.002377
vt 0.408866 0.071930
vt 0.163559 0.636014
vt 0.163559 0.566461
vt 0.172254 0.566461
vt 0.172254 0.636014
vt 0.544032 0.053001
vt 0.544032 0.000836
vt 0.552726 0.000836
vt 0.552726 0.053001
vt 0.422887 0.001188
vt 0.431581 0.001188
vt 0.431581 0.035965
vt 0.422887 0.035965
vt 0.574319 0.035965
vt 0.574319 0.001188
vt 0.583013 0.001188
vt 0.583013 0.035965
vt 0.388044 0.581604
vt 0.388044 0.651157
vt 0.353267 0.651157
vt 0.353267 0.581604
vt 0.517532 0.616380
vt 0.526226 0.616380
vt 0.526226 0.651157
vt 0.517532 0.651157
vt 0.585676 0.035965
vt 0.585676 0.001188
vt 0.594370 0.001188
vt 0.594370 0.035965
vt 0.111681 0.566460
vt 0.111681 0.636014
vt 0.076904 0.636014
vt 0.076904 0.566460
vt 0.442938 0.035965
vt 0.434244 0.035965
vt 0.434244 0.001188
vt 0.442938 0.001188
vt 0.540246 0.651157
vt 0.540246 0.616380
vt 0.548941 0.616380
vt 0.548941 0.651157
vt 0.149539 0.566460
vt 0.149539 0.636014
vt 0.114762 0.636014
vt 0.114762 0.566461
vt 0.528889 0.616380
vt 0.537583 0.616380
vt 0.537583 0.651157
vt 0.528889 0.651157
vt 0.638677 0.611406
vt 0.638677 0.524465
vt 0.647371 0.524465
vt 0.647371 0.611406
vt 0.182516 0.533797
vt 0.180054 0.481691
vt 0.266899 0.477587
vt 0.217255 0.532156
vt 0.851804 0.000880
vt 0.851804 0.331257
vt 0.843110 0.331257
vt 0.843110 0.000880
vt 0.990757 0.335086
vt 0.999451 0.335086
vt 0.999451 0.613299
vt 0.990757 0.613299
vt 0.754410 0.777981
vt 0.702247 0.777547
vt 0.704562 0.499343
vt 0.757159 0.447614
vt 0.477957 0.001055
vt 0.477957 0.696587
vt 0.399709 0.609646
vt 0.399709 0.087997
vt 0.480928 0.000791
vt 0.567870 0.079039
vt 0.567870 0.522440
vt 0.480928 0.522440
vt 0.656836 0.000791
vt 0.656836 0.522440
vt 0.569895 0.522440
vt 0.569895 0.079038
vt 0.704224 0.001429
vt 0.747695 0.001429
vt 0.747695 0.444831
vt 0.704224 0.444831
vt 0.702265 0.000791
vt 0.702265 0.522440
vt 0.658795 0.522440
vt 0.658795 0.000791
vt 0.749654 0.444831
vt 0.749654 0.001429
vt 0.793125 0.001429
vt 0.793125 0.444831
vt 0.877138 0.448309
vt 0.893448 0.433010
vt 0.893448 0.876412
vt 0.877138 0.861115
vt 0.857483 0.337727
vt 0.857483 0.859376
vt 0.842185 0.843066
vt 0.842185 0.354037
vt 0.877138 0.444831
vt 0.877138 0.001430
vt 0.893448 0.016728
vt 0.893448 0.429534
vt 0.859222 0.522440
vt 0.859222 0.000791
vt 0.874519 0.017101
vt 0.874519 0.506130
vt 0.864130 0.522286
vt 0.874519 0.522286
vt 0.874519 0.935092
vt 0.864130 0.935092
vt 0.942664 0.001232
vt 0.942664 0.490261
vt 0.932275 0.490261
vt 0.932275 0.001232
vt 0.932275 0.906698
vt 0.932274 0.493892
vt 0.942663 0.493892
vt 0.942663 0.906698
vt 0.919024 0.931306
vt 0.919024 0.442277
vt 0.929413 0.442278
vt 0.929413 0.931306
vt 0.001215 0.000716
vt 0.397509 0.000716
vt 0.397509 0.473225
vt 0.001215 0.473225
vt 0.979834 0.420754
vt 0.988093 0.412498
vt 0.988093 0.825304
vt 0.979834 0.817048
vt 0.976736 0.487707
vt 0.976736 0.976736
vt 0.968480 0.968476
vt 0.968480 0.495967
vt 0.979833 0.414545
vt 0.979833 0.001739
vt 0.988093 0.009995
vt 0.988093 0.406289
vt 0.968480 0.490261
vt 0.968480 0.001232
vt 0.976736 0.009492
vt 0.976736 0.482001
vt 0.814364 0.001143
vt 0.840447 0.001143
vt 0.840447 0.505404
vt 0.814364 0.505404
vt 0.956684 0.001143
vt 0.965378 0.001143
vt 0.965378 0.505404
vt 0.956684 0.505404
vt 0.945327 0.505404
vt 0.945327 0.001143
vt 0.954021 0.001143
vt 0.954021 0.505404
vt 0.795659 0.001777
vt 0.810161 0.001777
vt 0.810160 0.427795
vt 0.795659 0.427795
vt 0.927520 0.427795
vt 0.918826 0.427795
vt 0.918826 0.001782
vt 0.927520 0.001782
vt 0.965378 0.510972
vt 0.965378 0.936985
vt 0.956684 0.936985
vt 0.956684 0.510971
vt 0.829090 0.935092
vt 0.814588 0.935092
vt 0.814588 0.509069
vt 0.829090 0.509069
vt 0.831753 0.509078
vt 0.840447 0.509078
vt 0.840447 0.935092
vt 0.831753 0.935092
vt 0.945327 0.935092
vt 0.945327 0.509079
vt 0.954021 0.509079
vt 0.954021 0.935092
s 0
g A_EXPO.obj.006_SU_COLOR
usemtl SU_COLOR
f 3/1/1 2/2/1 101/3/1 1/4/1
f 99/5/2 5/6/2 6/7/2 4/8/2
f 10/9/1 9/10/1 8/11/1 7/12/1
f 8/13/3 12/14/3 11/15/3 7/16/3
f 14/17/4 13/18/4 9/19/4 10/20/4
f 11/21/5 14/22/5 10/23/5 7/24/5
f 12/25/2 13/26/2 14/27/2 11/28/2
f 16/29/6 17/30/6 6/31/6 5/32/6
f 4/33/3 15/34/3 100/35/3 99/36/3
f 17/37/5 15/38/5 4/39/5 6/40/5
f 3/41/6 19/42/6 20/43/6 2/44/6
f 101/45/3 102/46/3 18/47/3 1/48/3
f 1/49/5 18/50/5 19/51/5 3/52/5
f 17/53/1 16/54/1 100/55/1 15/56/1
f 102/57/2 20/58/2 19/59/2 18/60/2
f 22/61/2 23/62/2 24/63/2 21/64/2
f 26/65/2 27/66/2 28/67/2 25/68/2
f 30/69/2 31/70/2 32/71/2 29/72/2
f 34/73/2 35/74/2 36/75/2 33/76/2
f 37/77/4 38/78/4 24/79/4 23/80/4
f 21/81/3 44/82/3 43/83/3 22/84/3
f 38/85/5 44/86/5 21/87/5 24/88/5
f 41/89/4 42/90/4 28/91/4 27/92/4
f 25/93/3 40/94/3 39/95/3 26/96/3
f 42/97/5 40/98/5 25/99/5 28/100/5
f 49/101/4 50/102/4 32/103/4 31/104/4
f 29/105/3 48/106/3 47/107/3 30/108/3
f 50/109/5 48/110/5 29/111/5 32/112/5
f 45/113/4 46/114/4 36/115/4 35/116/4
f 33/117/3 52/118/3 51/119/3 34/120/3
f 46/121/5 52/122/5 33/123/5 36/124/5
f 97/125/1 51/126/1 52/127/1 53/128/1
f 46/129/2 45/130/2 54/131/2 55/132/2
f 52/133/5 46/134/5 55/135/5 53/136/5
f 56/137/1 59/138/1 58/139/1 57/140/1
f 60/141/1 63/142/1 62/143/1 61/144/1
f 64/145/1 67/146/1 66/147/1 65/148/1
f 68/149/1 71/150/1 70/151/1 69/152/1
f 58/153/4 59/154/4 73/155/4 72/156/4
f 57/157/3 78/158/3 79/159/3 56/160/3
f 59/161/5 56/162/5 79/163/5 73/164/5
f 62/165/4 63/166/4 77/167/4 76/168/4
f 61/169/3 74/170/3 75/171/3 60/172/3
f 63/173/5 60/174/5 75/175/5 77/176/5
f 66/177/4 67/178/4 85/179/4 84/180/4
f 65/181/3 82/182/3 83/183/3 64/184/3
f 67/185/5 64/186/5 83/187/5 85/188/5
f 70/189/4 71/190/4 81/191/4 80/192/4
f 69/193/3 86/194/3 87/195/3 68/196/3
f 71/197/5 68/198/5 87/199/5 81/200/5
f 88/201/2 87/202/2 86/203/2 98/204/2
f 90/205/1 89/206/1 80/207/1 81/208/1
f 88/209/5 90/210/5 81/211/5 87/212/5
f 92/213/5 91/214/5 98/215/5 97/216/5
f 92/217/5 97/218/5 100/219/5 99/220/5
f 91/221/5 101/222/5 102/223/5 98/224/5
f 94/225/2 98/226/2 102/227/2 93/228/2
f 97/229/3 98/230/3 94/231/3 95/232/3
f 100/233/1 97/234/1 95/235/1 96/236/1
f 136/317/1 140/318/1 141/319/1 137/320/1
g A_EXPO.obj.006_wall
usemtl wall
f 111/269/5 112/270/5 115/271/5 116/272/5
g A_EXPO.obj.006_frame
usemtl frame
f 108/237/5 106/238/5 104/239/5 107/240/5
f 105/241/5 106/242/5 108/243/5 109/244/5
f 103/245/5 105/246/5 109/247/5 110/248/5
f 104/249/5 103/250/5 110/251/5 107/252/5
f 117/253/2 108/254/2 107/255/2 118/256/2
f 109/257/3 108/258/3 117/259/3 114/260/3
f 110/261/1 109/262/1 114/263/1 113/264/1
f 107/265/4 110/266/4 113/267/4 118/268/4
f 115/273/5 117/274/5 118/275/5 116/276/5
f 114/277/5 117/278/5 115/279/5 112/280/5
f 113/281/5 114/282/5 112/283/5 111/284/5
f 118/285/5 113/286/5 111/287/5 116/288/5
f 122/289/5 121/290/5 120/291/5 119/292/5
f 121/293/4 125/294/4 124/295/4 120/296/4
f 123/297/3 126/298/3 122/299/3 119/300/3
f 130/301/5 129/302/5 128/303/5 127/304/5
f 129/305/2 133/306/2 132/307/2 128/308/2
f 131/309/1 134/310/1 130/311/1 127/312/1
f 135/313/5 136/314/5 137/315/5 138/316/5
f 135/321/2 138/322/2 142/323/2 139/324/2
