# Blender 3.6.0
# www.blender.org
mtllib roof3_NY.mtl
o Cube.001_Cube.006
v -0.007436 0.000856 0.002924
v -0.007436 0.108515 0.002924
v -0.007436 0.000856 -3.019306
v -0.007436 0.108515 -3.019306
v 3.004441 0.000856 0.002924
v 3.004441 0.108515 0.002924
v 3.004441 0.000856 -3.019306
v 3.004441 0.108515 -3.019306
v -0.007436 0.000856 0.244650
v -0.007436 0.108515 0.244650
v 3.004441 0.108515 0.244650
v 3.004441 0.000856 0.244650
v 3.004441 0.603849 0.002924
v -0.007436 0.603849 0.244650
v 3.259100 0.108515 -3.019306
v 3.259100 0.000856 -3.019306
v 3.259100 0.000856 0.002924
v 3.259100 0.108515 0.002924
v 3.259100 0.108515 0.244650
v 3.259100 0.000856 0.244650
v 3.004441 0.603531 0.244650
v 3.259100 0.603531 0.244650
v 3.259100 0.603531 -3.019306
v 3.259100 0.603531 0.002924
v -0.007436 0.603849 0.001030
v -0.007436 0.603849 0.310162
v 3.004441 0.603531 0.310162
v 3.327255 0.603531 0.310162
v 3.004441 0.719139 0.001030
v -0.007436 0.719139 0.001030
v -0.007436 0.719139 0.310162
v 3.004441 0.718820 0.310162
v 3.327255 0.718820 0.310162
v 3.327255 0.718820 0.001030
v 3.000276 0.603531 -3.019306
v 3.329461 0.603531 -3.019306
v 3.329461 0.603531 0.002924
v 3.000276 0.717717 -3.019306
v 3.329461 0.717717 -3.019306
vn -1.0000 -0.0000 -0.0000
vn -0.0000 -0.0000 -1.0000
vn -0.0000 -1.0000 -0.0000
vn -0.0000 1.0000 -0.0000
vn -0.0000 -0.0000 1.0000
vn 1.0000 -0.0000 -0.0000
vn -0.0011 -0.9998 -0.0198
vn -0.0010 -0.9998 -0.0198
vn -0.0001 -1.0000 -0.0000
vn 0.0001 1.0000 0.0005
vn 0.0005 1.0000 0.0005
vn 0.0005 1.0000 -0.0004
vt 0.774282 0.913048
vt 0.758664 0.913048
vt 0.758664 0.474612
vt 0.774282 0.474612
vt 0.000245 0.542885
vt 0.000245 0.527266
vt 0.437179 0.527267
vt 0.437179 0.542885
vt 0.083535 0.615232
vt 0.048468 0.615232
vt 0.048468 0.543420
vt 0.083535 0.543374
vt 0.774282 0.948115
vt 0.758664 0.948115
vt 0.526252 0.474123
vt 0.526252 0.037188
vt 0.964688 0.037188
vt 0.964688 0.474122
vt 0.000245 0.088830
vt 0.437179 0.088830
vt 0.686274 0.911555
vt 0.670656 0.911553
vt 0.670698 0.474619
vt 0.686317 0.474620
vt 0.999755 0.037188
vt 0.999755 0.474122
vt 0.509037 0.088830
vt 0.508994 0.527267
vt 0.146476 0.543374
vt 0.146476 0.543601
vt 0.146476 0.543662
vt 0.686806 0.948115
vt 0.686806 0.912773
vt 0.598844 0.911546
vt 0.598840 0.474612
vt 0.000245 0.016971
vt 0.437179 0.016972
vt 0.774771 0.474612
vt 0.790389 0.474612
vt 0.790389 0.913048
vt 0.774771 0.913048
vt 0.790389 0.948115
vt 0.774771 0.948115
vt 0.047701 0.543512
vt 0.047643 0.559123
vt 0.010715 0.558985
vt 0.010773 0.543374
vt 0.686270 0.948498
vt 0.670652 0.948497
vt 0.964688 0.000245
vt 0.999755 0.000245
vt 0.526252 0.000245
vt 0.928152 0.913048
vt 0.928152 0.474612
vt 0.938359 0.474612
vt 0.938360 0.913048
vt 0.862202 0.474612
vt 0.862202 0.913048
vt 0.598840 0.948490
vt 0.047979 0.630908
vt 0.010447 0.630768
vt 0.862202 0.948115
vt 0.084164 0.590450
vt 0.084164 0.543390
vt 0.100859 0.543374
vt 0.100859 0.590114
vt 0.000245 0.000246
vt 0.437179 0.000245
vt 0.084025 0.580263
vt 0.588847 0.521442
vt 0.588847 0.484499
vt 0.598351 0.474612
vt 0.598351 0.521442
vt 0.588847 0.958377
vt 0.598351 0.958377
vt 0.135779 0.578441
vt 0.135779 0.543374
vt 0.145986 0.543374
vt 0.145667 0.587945
vt 0.571098 0.521442
vt 0.571098 0.958377
vt 0.526252 0.958377
vt 0.526252 0.521442
vt 0.526252 0.474612
vt 0.571098 0.474612
vt 0.135290 0.543374
vt 0.135290 0.588220
vt 0.118565 0.588220
vt 0.118565 0.543374
vt 0.571633 0.958377
vt 0.571587 0.521442
vt 0.588312 0.521442
vt 0.588358 0.958377
vt 0.101348 0.588220
vt 0.101348 0.543647
vt 0.118076 0.543374
vt 0.118073 0.588220
vt 0.571587 0.474612
vt 0.588312 0.474612
vt 0.525763 0.089105
vt 0.525559 0.527266
vt 0.000245 0.630908
vt 0.910446 0.474612
vt 0.909842 0.912773
vt 0.863011 0.912773
vt 0.862691 0.474612
vt 0.910935 0.913048
vt 0.911098 0.474612
vt 0.927663 0.474618
vt 0.927663 0.912779
vt 0.047979 0.647466
vt 0.000245 0.647466
s 0
g Cube.001_Cube.006_floor
usemtl floor
f 8/7/4 4/6/4 2/19/4 6/20/4
g Cube.001_Cube.006_roof
usemtl roof
f 24/53/3 23/54/3 36/55/3 37/56/3
f 13/37/2 25/36/2 30/67/2 29/68/2
f 21/70/3 22/71/3 28/72/3 27/73/3
f 14/74/9 21/70/9 27/73/9 26/75/9
f 22/76/3 24/77/3 37/78/3 28/79/3
f 29/80/10 30/81/10 31/82/10 32/83/10
f 29/80/11 32/83/11 33/84/11 34/85/11
f 25/86/1 26/87/1 31/88/1 30/89/1
f 26/90/5 27/91/5 32/92/5 31/93/5
f 28/94/6 37/95/6 34/96/6 33/97/6
f 27/91/5 28/98/5 33/99/5 32/92/5
f 35/28/1 13/27/1 29/100/1 38/101/1
f 38/103/12 29/104/12 34/105/12 39/106/12
f 37/107/6 36/108/6 39/109/6 34/110/6
f 36/102/2 35/60/2 38/111/2 39/112/2
g Cube.001_Cube.006_WALL
usemtl WALL
f 1/1/1 2/2/1 4/3/1 3/4/1
f 3/5/2 4/6/2 8/7/2 7/8/2
f 6/9/1 11/10/1 21/11/1 13/12/1
f 2/2/1 1/1/1 9/13/1 10/14/1
f 3/15/3 7/16/3 5/17/3 1/18/3
f 12/21/5 11/22/5 10/23/5 9/24/5
f 1/18/3 5/17/3 12/25/3 9/26/3
f 8/7/1 6/20/1 13/27/1 35/28/1
f 25/29/3 14/30/3 26/31/3
f 2/2/1 10/14/1 14/32/1 25/33/1
f 10/23/5 11/22/5 21/34/5 14/35/5
f 6/20/2 2/19/2 25/36/2 13/37/2
f 16/38/6 15/39/6 18/40/6 17/41/6
f 17/41/6 18/40/6 19/42/6 20/43/6
f 7/44/2 8/45/2 15/46/2 16/47/2
f 11/22/5 12/21/5 20/48/5 19/49/5
f 12/25/3 5/17/3 17/50/3 20/51/3
f 5/17/3 7/16/3 16/52/3 17/50/3
f 18/40/6 15/39/6 23/57/6 24/58/6
f 11/22/5 19/49/5 22/59/5 21/34/5
f 15/46/2 8/45/2 35/60/2 23/61/2
f 19/42/6 18/40/6 24/58/6 22/62/6
f 37/63/2 13/64/2 29/65/2 34/66/2
f 24/69/7 13/64/8 37/63/7
f 23/61/5 35/60/5 36/102/5
