# Blender 3.6.0
# www.blender.org
mtllib roof2_NY.mtl
o Cube_Cube.005
v -0.007436 0.000856 0.002924
v -0.007436 0.108515 0.002924
v -0.007436 0.000856 -2.986007
v -0.007436 0.108515 -2.986007
v 3.004441 0.000856 0.002924
v 3.004441 0.108515 0.002924
v 3.004441 0.000856 -2.986007
v 3.004441 0.108515 -2.986007
v -0.007436 0.000856 0.244650
v -0.007436 0.108515 0.244650
v 3.004441 0.108515 0.244650
v 3.004441 0.000856 0.244650
v 3.004441 0.602957 0.002924
v -0.007436 0.602957 0.002924
v 3.004441 0.602957 0.244650
v -0.007436 0.602957 0.244650
v 3.004441 0.602957 -0.057088
v -0.007436 0.602957 -0.057088
v -0.007436 0.602957 0.304662
v 3.004441 0.602957 0.304662
v 3.004441 0.718740 -0.057088
v -0.007436 0.718740 -0.057088
v -0.007436 0.718740 0.304662
v 3.004441 0.718740 0.304662
vn -1.0000 -0.0000 -0.0000
vn -0.0000 -0.0000 -1.0000
vn 1.0000 -0.0000 -0.0000
vn -0.0000 -1.0000 -0.0000
vn -0.0000 1.0000 -0.0000
vn -0.0000 -0.0000 1.0000
vn -0.0000 -0.0000 -0.0000
vt 0.894215 0.584244
vt 0.887225 0.594864
vt 0.592373 0.400801
vt 0.599363 0.390181
vt 0.295257 0.205248
vt 0.302247 0.194628
vt 0.000405 0.011185
vt 0.007395 0.000565
vt 0.077487 0.071894
vt 0.090189 0.071901
vt 0.090173 0.100420
vt 0.077471 0.100413
vt 0.001938 0.440755
vt 0.197491 0.143640
vt 0.492343 0.337703
vt 0.296790 0.634818
vt 0.765647 0.871188
vt 0.409953 0.871188
vt 0.409953 0.518204
vt 0.765647 0.518203
vt 0.999755 0.002063
vt 0.999755 0.029143
vt 0.242160 0.029143
vt 0.242160 0.002063
vt 0.516188 0.353397
vt 0.320636 0.650513
vt 0.427660 0.185909
vt 0.428059 0.214451
vt 0.369678 0.215267
vt 0.369279 0.186726
vt 0.440770 0.214273
vt 0.440371 0.185732
vt 0.798269 0.156656
vt 0.798269 0.512351
vt 0.791182 0.512351
vt 0.791182 0.156656
vt 0.019136 0.100380
vt 0.019152 0.071860
vt 0.999755 0.153513
vt 0.242160 0.153513
vt 0.369678 0.156879
vt 0.725350 0.156879
vt 0.725350 0.215267
vt 0.074838 0.015351
vt 0.032116 0.015351
vt 0.032116 0.001678
vt 0.074838 0.001678
vt 0.369678 0.222354
vt 0.369057 0.179643
vt 0.019033 0.107459
vt 0.019033 0.064781
vt 0.725350 0.222354
vt 0.356918 0.694647
vt 0.001224 0.694648
vt 0.001224 0.651926
vt 0.356918 0.651926
vt 0.725350 0.236027
vt 0.369678 0.236027
vt 0.015351 0.024251
vt 0.015351 0.379945
vt 0.001678 0.379945
vt 0.001678 0.024251
vt 0.099784 0.030703
vt 0.057062 0.030703
vt 0.057062 0.017029
vt 0.099784 0.017029
s 0
g Cube_Cube.005_WALL
usemtl WALL
f 2/9/1 1/10/1 9/11/1 10/12/1
f 3/13/4 7/14/4 5/15/4 1/16/4
f 12/21/6 11/22/6 10/23/6 9/24/6
f 1/16/4 5/15/4 12/25/4 9/26/4
f 11/27/3 6/28/3 13/29/3 15/30/3
f 5/31/3 6/28/3 11/27/3 12/32/3
f 2/9/1 10/12/1 16/37/1 14/38/1
f 10/23/6 11/22/6 15/39/6 16/40/6
f 6/41/2 2/42/2 14/43/2 13/29/2
f 15/30/7 13/29/7 17/48/7 20/49/7
f 14/38/4 16/37/4 19/50/4 18/51/4
f 13/29/4 14/43/4 18/52/4 17/48/4
f 17/48/2 18/52/2 22/57/2 21/58/2
g Cube_Cube.005_roof
usemtl roof
f 16/33/4 15/34/4 20/35/4 19/36/4
f 20/44/3 17/45/3 21/46/3 24/47/3
f 21/53/5 22/54/5 23/55/5 24/56/5
f 19/59/6 20/60/6 24/61/6 23/62/6
f 18/63/1 19/64/1 23/65/1 22/66/1
g Cube_Cube.005_floor
usemtl floor
f 1/1/1 2/2/1 4/3/1 3/4/1
f 3/4/2 4/3/2 8/5/2 7/6/2
f 7/6/3 8/5/3 6/7/3 5/8/3
f 8/17/5 4/18/5 2/19/5 6/20/5
