# Blender 3.6.0
# www.blender.org
mtllib skyscraper_wall.mtl
o Plane
v -0.000000 2.006325 -0.003801
v 0.000000 0.006324 -0.003801
v -0.000000 2.006325 -2.999459
v 0.000000 0.006324 -2.999459
v -0.000000 2.006325 -2.801414
v -0.000000 2.006325 -2.097957
v -0.000000 2.006325 -1.871405
v -0.000000 2.006325 -1.131855
v -0.000000 2.006325 -0.905303
v -0.000000 2.006325 -0.201846
v 0.000000 0.006324 -0.201846
v 0.000000 0.006324 -0.905303
v 0.000000 0.006325 -1.131855
v 0.000000 0.006325 -1.871405
v 0.000000 0.006324 -2.097956
v 0.000000 0.006324 -2.801414
v -0.000000 1.606324 -0.003801
v -0.000000 1.206324 -0.003801
v 0.000000 0.806324 -0.003801
v 0.000000 0.406324 -0.003801
v 0.000000 0.406324 -2.999459
v 0.000000 0.806324 -2.999459
v -0.000000 1.206324 -2.999459
v -0.000000 1.606324 -2.999459
v 0.000000 0.208128 -0.201847
v 0.000000 0.910938 -0.201846
v -0.000000 1.101711 -0.201846
v -0.000000 1.804521 -0.201846
v 0.000000 0.208128 -0.905303
v 0.000000 0.910938 -0.905303
v -0.000000 1.101711 -0.905303
v -0.000000 1.804521 -0.905303
v 0.000000 0.208128 -1.131855
v 0.000000 0.910938 -1.131855
v -0.000000 1.101711 -1.131855
v -0.000000 1.804521 -1.131855
v 0.000000 0.208128 -1.871405
v 0.000000 0.910938 -1.871405
v -0.000000 1.101711 -1.871405
v -0.000000 1.804521 -1.871405
v 0.000000 0.208128 -2.097956
v 0.000000 0.910938 -2.097956
v -0.000000 1.101711 -2.097956
v -0.000000 1.804521 -2.097956
v 0.000000 0.208128 -2.801414
v 0.000000 0.910938 -2.801414
v -0.000000 1.101711 -2.801414
v -0.000000 1.804521 -2.801414
v -0.059780 0.235467 -0.228603
v -0.059780 0.883599 -0.228603
v -0.059781 1.129050 -0.228603
v -0.059781 1.777182 -0.228603
v -0.059780 0.235467 -0.878546
v -0.059780 0.883599 -0.878546
v -0.059781 1.129050 -0.878546
v -0.059781 1.777182 -0.878546
v -0.059780 0.235467 -1.158612
v -0.059780 0.883599 -1.158612
v -0.059781 1.129050 -1.158612
v -0.059781 1.777182 -1.158612
v -0.059780 0.235467 -1.844648
v -0.059780 0.883599 -1.844648
v -0.059781 1.129050 -1.844648
v -0.059781 1.777182 -1.844648
v -0.059780 0.235467 -2.124713
v -0.059780 0.883599 -2.124713
v -0.059781 1.129050 -2.124713
v -0.059781 1.777182 -2.124713
v -0.059780 0.235467 -2.774657
v -0.059780 0.883599 -2.774657
v -0.059781 1.129050 -2.774657
v -0.059781 1.777182 -2.774657
v -0.059780 0.208128 -0.201847
v -0.059780 0.910938 -0.201846
v -0.059781 1.101711 -0.201846
v -0.059781 1.804521 -0.201846
v -0.059780 0.208128 -0.905303
v -0.059780 0.910938 -0.905303
v -0.059781 1.101711 -0.905303
v -0.059781 1.804521 -0.905303
v -0.059780 0.208128 -1.131855
v -0.059780 0.910938 -1.131855
v -0.059781 1.101711 -1.131855
v -0.059781 1.804521 -1.131855
v -0.059780 0.208128 -1.871405
v -0.059780 0.910938 -1.871405
v -0.059781 1.101711 -1.871405
v -0.059781 1.804521 -1.871405
v -0.059780 0.208128 -2.097956
v -0.059780 0.910938 -2.097956
v -0.059781 1.101711 -2.097956
v -0.059781 1.804521 -2.097956
v -0.059780 0.208128 -2.801414
v -0.059780 0.910938 -2.801414
v -0.059781 1.101711 -2.801414
v -0.059781 1.804521 -2.801414
v -0.115879 0.235467 -0.228603
v -0.115879 0.883599 -0.228603
v -0.115880 1.129050 -0.228603
v -0.115880 1.777182 -0.228603
v -0.115879 0.235467 -0.878546
v -0.115879 0.883599 -0.878546
v -0.115880 1.129050 -0.878546
v -0.115880 1.777182 -0.878546
v -0.115879 0.235467 -1.158612
v -0.115879 0.883599 -1.158612
v -0.115880 1.129050 -1.158612
v -0.115880 1.777182 -1.158612
v -0.115879 0.235467 -1.844648
v -0.115879 0.883599 -1.844648
v -0.115880 1.129050 -1.844648
v -0.115880 1.777182 -1.844648
v -0.115879 0.235467 -2.124713
v -0.115879 0.883599 -2.124713
v -0.115880 1.129050 -2.124713
v -0.115880 1.777182 -2.124713
v -0.115879 0.235467 -2.774657
v -0.115879 0.883599 -2.774657
v -0.115880 1.129050 -2.774657
v -0.115880 1.777182 -2.774657
vn 1.0000 -0.0000 -0.0000
vn -0.0000 1.0000 -0.0000
vn -0.0000 -0.0000 1.0000
vn -0.0000 -1.0000 -0.0000
vn -0.0000 -0.0000 -1.0000
vt 0.402345 0.594148
vt 0.447459 0.594148
vt 0.447459 0.639386
vt 0.358037 0.639386
vt 0.537314 0.089771
vt 0.537314 0.000349
vt 0.582552 0.000349
vt 0.582552 0.045463
vt 0.402345 0.000349
vt 0.447459 0.000349
vt 0.447459 0.161034
vt 0.402345 0.161034
vt 0.447459 0.212784
vt 0.402345 0.212784
vt 0.447459 0.381714
vt 0.402345 0.381714
vt 0.447459 0.433463
vt 0.402345 0.433463
vt 0.493271 0.161034
vt 0.448157 0.161034
vt 0.448157 0.000349
vt 0.493271 0.000349
vt 0.719553 0.669993
vt 0.719553 0.855139
vt 0.702086 0.841884
vt 0.705145 0.689495
vt 0.536617 0.161034
vt 0.493968 0.161034
vt 0.493968 0.000349
vt 0.536617 0.000349
vt 0.537314 0.457149
vt 0.739162 0.448157
vt 0.723214 0.468558
vt 0.556562 0.472666
vt 0.493271 0.212783
vt 0.448157 0.212783
vt 0.786854 0.157466
vt 0.786854 0.000349
vt 0.838604 0.000349
vt 0.838604 0.157466
vt 0.536617 0.212783
vt 0.493969 0.212783
vt 0.245228 0.381714
vt 0.245228 0.433463
vt 0.493271 0.381713
vt 0.448157 0.381713
vt 0.537314 0.669296
vt 0.553262 0.648895
vt 0.536617 0.381713
vt 0.493969 0.381713
vt 0.537314 0.874004
vt 0.551723 0.854502
vt 0.493271 0.433463
vt 0.448157 0.433463
vt 0.448157 0.751963
vt 0.448157 0.594846
vt 0.499906 0.594846
vt 0.499906 0.751963
vt 0.536617 0.433463
vt 0.493969 0.433463
vt 0.245228 0.161034
vt 0.245228 0.212784
vt 0.493271 0.594148
vt 0.448157 0.594148
vt 0.537314 0.688859
vt 0.554781 0.702114
vt 0.536617 0.594148
vt 0.493969 0.594148
vt 0.583250 0.432262
vt 0.583250 0.227956
vt 0.602625 0.243454
vt 0.599292 0.411939
vt 0.537314 0.447459
vt 0.537314 0.358037
vt 0.582552 0.402345
vt 0.582552 0.447459
vt 0.537314 0.268615
vt 0.582552 0.245228
vt 0.537314 0.179193
vt 0.582552 0.202580
vt 0.000349 0.594148
vt 0.045463 0.594148
vt 0.089771 0.639386
vt 0.000349 0.639386
vt 0.202580 0.594148
vt 0.179193 0.639386
vt 0.245228 0.594148
vt 0.268615 0.639386
vt 0.381108 0.667608
vt 0.378743 0.826646
vt 0.363167 0.810745
vt 0.369913 0.682708
vt 0.562775 0.480051
vt 0.715608 0.475057
vt 0.704687 0.489990
vt 0.577145 0.490842
vt 0.178230 0.667608
vt 0.175865 0.826646
vt 0.160289 0.810745
vt 0.167034 0.682708
vt 0.227761 0.825060
vt 0.228461 0.674722
vt 0.242855 0.685324
vt 0.237173 0.815619
vt 0.608347 0.034927
vt 0.761957 0.027917
vt 0.750760 0.043100
vt 0.622742 0.045608
vt 0.024883 0.825060
vt 0.025583 0.674722
vt 0.039977 0.685324
vt 0.034295 0.815619
vt 0.784414 0.219231
vt 0.768371 0.239554
vt 0.404828 0.850492
vt 0.204767 0.850492
vt 0.220365 0.831181
vt 0.385009 0.834301
vt 0.785218 0.218534
vt 0.584516 0.218534
vt 0.600070 0.199161
vt 0.765580 0.202308
vt 0.201950 0.850492
vt 0.001889 0.850492
vt 0.017487 0.831181
vt 0.182131 0.834301
vt 0.739162 0.660303
vt 0.719914 0.644786
vt 0.000349 0.652231
vt 0.019411 0.667472
vt 0.784414 0.423536
vt 0.765039 0.408039
vt 0.583250 0.012344
vt 0.602188 0.027647
vt 0.202530 0.640084
vt 0.186054 0.660945
vt 0.203227 0.652231
vt 0.222289 0.667473
vt 0.405408 0.640084
vt 0.388932 0.660945
vt 0.786157 0.000349
vt 0.769763 0.021247
vt 0.726757 0.855002
vt 0.893351 0.845687
vt 0.899468 0.851920
vt 0.720251 0.861438
vt 0.892961 0.676429
vt 0.726368 0.685744
vt 0.720251 0.679511
vt 0.899468 0.669993
vt 0.560869 0.642396
vt 0.713702 0.637401
vt 0.607465 0.193023
vt 0.759340 0.194634
vt 0.606919 0.405464
vt 0.758818 0.400668
vt 0.760744 0.246029
vt 0.608845 0.250825
vt 0.984194 0.148810
vt 0.839301 0.148810
vt 0.839301 0.000349
vt 0.984194 0.000349
vt 0.145242 0.999651
vt 0.000349 0.999651
vt 0.000349 0.851190
vt 0.145242 0.851190
vt 0.884753 0.604863
vt 0.739860 0.604863
vt 0.739860 0.448157
vt 0.884753 0.448157
vt 0.930004 0.375937
vt 0.785111 0.375937
vt 0.785111 0.219231
vt 0.930004 0.219231
vt 0.290833 0.999651
vt 0.145939 0.999651
vt 0.145939 0.851190
vt 0.290833 0.851190
vt 0.436423 0.999651
vt 0.291530 0.999651
vt 0.291530 0.851190
vt 0.436423 0.851190
vt 0.744453 0.389927
vt 0.749814 0.260854
vt 0.616892 0.183535
vt 0.743788 0.178638
vt 0.877486 0.834273
vt 0.881240 0.693029
vt 0.738478 0.838402
vt 0.623210 0.261566
vt 0.617849 0.390638
vt 0.742232 0.697158
vt 0.699331 0.626611
vt 0.571789 0.627462
s 0
g Plane_glass
usemtl glass
f 116/159/1 115/160/1 119/161/1 120/162/1
f 114/163/1 113/164/1 117/165/1 118/166/1
f 108/167/1 107/168/1 111/169/1 112/170/1
f 106/171/1 105/172/1 109/173/1 110/174/1
f 100/175/1 99/176/1 103/177/1 104/178/1
f 98/179/1 97/180/1 101/181/1 102/182/1
g Plane_wall
usemtl wall
f 45/1/1 16/2/1 4/3/1 21/4/1
f 20/5/1 2/6/1 11/7/1 25/8/1
f 25/9/1 11/10/1 12/11/1 29/12/1
f 29/12/1 12/11/1 13/13/1 33/14/1
f 33/14/1 13/13/1 14/15/1 37/16/1
f 37/16/1 14/15/1 15/17/1 41/18/1
f 41/18/1 15/17/1 16/2/1 45/1/1
f 6/19/1 44/20/1 48/21/1 5/22/1
f 25/23/2 29/24/2 77/25/2 73/26/2
f 43/27/1 42/28/1 46/29/1 47/30/1
f 37/31/3 38/32/3 86/33/3 85/34/3
f 7/35/1 40/36/1 44/20/1 6/19/1
f 40/37/1 39/38/1 43/39/1 44/40/1
f 39/41/1 38/42/1 42/28/1 43/27/1
f 38/43/1 37/16/1 41/18/1 42/44/1
f 8/45/1 36/46/1 40/36/1 7/35/1
f 33/47/2 37/31/2 85/34/2 81/48/2
f 35/49/1 34/50/1 38/42/1 39/41/1
f 29/24/3 30/51/3 78/52/3 77/25/3
f 9/53/1 32/54/1 36/46/1 8/45/1
f 32/55/1 31/56/1 35/57/1 36/58/1
f 31/59/1 30/60/1 34/50/1 35/49/1
f 30/61/1 29/12/1 33/14/1 34/62/1
f 10/63/1 28/64/1 32/54/1 9/53/1
f 30/51/4 26/65/4 74/66/4 78/52/4
f 27/67/1 26/68/1 30/60/1 31/59/1
f 41/69/2 45/70/2 93/71/2 89/72/2
f 1/73/1 17/74/1 28/75/1 10/76/1
f 17/74/1 18/77/1 27/78/1 28/75/1
f 18/77/1 19/79/1 26/80/1 27/78/1
f 19/79/1 20/5/1 25/8/1 26/80/1
f 5/81/1 48/82/1 24/83/1 3/84/1
f 48/82/1 47/85/1 23/86/1 24/83/1
f 47/85/1 46/87/1 22/88/1 23/86/1
f 46/87/1 45/1/1 21/4/1 22/88/1
f 45/70/3 46/113/3 94/114/3 93/71/3
f 31/115/3 32/116/3 80/117/3 79/118/3
f 39/119/3 40/120/3 88/121/3 87/122/3
f 47/123/3 48/124/3 96/125/3 95/126/3
f 26/65/5 25/23/5 73/26/5 74/66/5
f 34/127/5 33/47/5 81/48/5 82/128/5
f 48/124/4 44/129/4 92/130/4 96/125/4
f 42/131/5 41/69/5 89/72/5 90/132/5
f 40/120/4 36/133/4 84/134/4 88/121/4
f 43/135/2 47/123/2 95/126/2 91/136/2
f 32/116/4 28/137/4 76/138/4 80/117/4
f 28/137/5 27/139/5 75/140/5 76/138/5
f 35/141/2 39/119/2 87/122/2 83/142/2
f 36/133/5 35/141/5 83/142/5 84/134/5
f 46/113/4 42/131/4 90/132/4 94/114/4
f 27/139/2 31/115/2 79/118/2 75/140/2
f 44/129/5 43/135/5 91/136/5 92/130/5
f 38/32/4 34/127/4 82/128/4 86/33/4
f 62/94/4 58/152/4 106/193/4 110/95/4
g Plane_frame
usemtl frame
f 51/89/2 55/90/2 103/91/2 99/92/2
f 61/93/3 62/94/3 110/95/3 109/96/3
f 67/97/2 71/98/2 119/99/2 115/100/2
f 56/101/4 52/102/4 100/103/4 104/104/4
f 60/105/5 59/106/5 107/107/5 108/108/5
f 72/109/4 68/110/4 116/111/4 120/112/4
f 49/143/1 50/144/1 74/145/1 73/146/1
f 51/89/1 52/102/1 76/138/1 75/140/1
f 54/147/1 53/148/1 77/149/1 78/150/1
f 56/101/1 55/90/1 79/118/1 80/117/1
f 57/151/1 58/152/1 82/128/1 81/48/1
f 59/106/1 60/105/1 84/134/1 83/142/1
f 62/94/1 61/93/1 85/34/1 86/33/1
f 64/153/1 63/154/1 87/122/1 88/121/1
f 65/155/1 66/156/1 90/132/1 89/72/1
f 67/97/1 68/110/1 92/130/1 91/136/1
f 70/157/1 69/158/1 93/71/1 94/114/1
f 72/109/1 71/98/1 95/126/1 96/125/1
f 68/110/1 72/109/1 96/125/1 92/130/1
f 71/98/1 67/97/1 91/136/1 95/126/1
f 66/156/1 70/157/1 94/114/1 90/132/1
f 69/158/1 65/155/1 89/72/1 93/71/1
f 60/105/1 64/153/1 88/121/1 84/134/1
f 63/154/1 59/106/1 83/142/1 87/122/1
f 58/152/1 62/94/1 86/33/1 82/128/1
f 61/93/1 57/151/1 81/48/1 85/34/1
f 52/102/1 56/101/1 80/117/1 76/138/1
f 55/90/1 51/89/1 75/140/1 79/118/1
f 50/144/1 54/147/1 78/150/1 74/145/1
f 53/148/1 49/143/1 73/146/1 77/149/1
f 70/157/4 66/156/4 114/183/4 118/184/4
f 63/154/3 64/153/3 112/185/3 111/186/3
f 54/147/4 50/144/4 98/187/4 102/188/4
f 50/144/5 49/143/5 97/189/5 98/187/5
f 65/155/2 69/158/2 117/190/2 113/191/2
f 66/156/5 65/155/5 113/191/5 114/183/5
f 49/143/2 53/148/2 101/192/2 97/189/2
f 52/102/5 51/89/5 99/92/5 100/103/5
f 64/153/4 60/105/4 108/108/4 112/185/4
f 68/110/5 67/97/5 115/100/5 116/111/5
f 53/148/3 54/147/3 102/188/3 101/192/3
f 59/106/2 63/154/2 111/186/2 107/107/2
f 69/158/3 70/157/3 118/184/3 117/190/3
f 55/90/3 56/101/3 104/104/3 103/91/3
f 71/98/3 72/109/3 120/112/3 119/99/3
f 58/152/5 57/151/5 105/194/5 106/193/5
f 57/151/2 61/93/2 109/96/2 105/194/2
