# Blender 3.6.0
# www.blender.org
mtllib balcony_plane.mtl
o Plane
v 1.252832 0.730118 -0.466051
v 1.252832 -0.168005 -0.466051
v 1.252832 0.730118 -2.466051
v 1.252832 -0.168005 -2.466051
v -0.002198 0.730118 -0.466051
v -0.002198 -0.168005 -0.466051
v -0.002198 0.730118 -2.466051
v -0.002198 -0.168005 -2.466051
vn 1.0000 -0.0000 -0.0000
vn -0.0000 -0.0000 -1.0000
vn -0.0000 -0.0000 1.0000
vn -0.0000 -1.0000 -0.0000
vt 0.499831 0.499831
vt 0.000169 0.499831
vt 0.000169 0.000169
vt 0.499831 0.000169
vt 0.627598 0.999831
vt 0.314052 0.999831
vt 0.314052 0.500169
vt 0.627598 0.500169
vt 0.500169 0.313714
vt 0.500169 0.000169
vt 0.999831 0.000169
vt 0.999831 0.313714
vt 0.313714 0.999831
vt 0.000169 0.999831
vt 0.000169 0.500169
vt 0.313714 0.500169
s 0
f 1/1/1 2/2/1 4/3/1 3/4/1
f 4/5/2 8/6/2 7/7/2 3/8/2
f 1/9/3 5/10/3 6/11/3 2/12/3
f 2/13/4 6/14/4 8/15/4 4/16/4
