# Blender 3.6.0
# www.blender.org
mtllib roof.mtl
o Cube.002_Cube.007
v -0.000025 0.000059 -3.004334
v -0.000025 0.570802 -3.004334
v 2.998824 0.000059 -3.004334
v 2.998824 0.107718 -3.004334
v -0.000025 0.000059 0.000118
v -0.000025 0.570802 0.000118
v 2.998824 0.000059 0.000118
v 2.998824 0.107718 0.000118
v 0.000643 0.634848 -3.004312
v 3.172675 0.118071 -3.004312
v 3.172675 0.118071 0.000096
v 0.000643 0.634848 0.000096
vn -0.0000 -0.0000 -1.0000
vn 1.0000 -0.0000 -0.0000
vn -0.0000 -0.0000 1.0000
vn 0.1608 0.9870 -0.0000
vn 0.0001 0.0004 -1.0000
vn -1.0000 -0.0000 -0.0000
vn -0.9999 0.0104 -0.0000
vn 0.0001 0.0004 1.0000
vn 0.0594 -0.9982 -0.0000
vt 0.779579 0.532027
vt 0.679464 0.532027
vt 0.760695 0.000186
vt 0.779579 0.000186
vt 0.980929 0.000186
vt 0.999814 0.000186
vt 0.999813 0.531428
vt 0.980929 0.531428
vt 0.779952 0.000186
vt 0.798837 0.000186
vt 0.880068 0.532027
vt 0.779952 0.532027
vt 0.569998 0.000186
vt 0.569998 0.593023
vt 0.000186 0.593023
vt 0.000186 0.000186
vt 0.677867 0.030337
vt 0.679091 0.568344
vt 0.646350 0.569997
vt 0.646350 0.000186
vt 0.880440 0.531428
vt 0.880440 0.000186
vt 0.980556 0.000186
vt 0.980556 0.531428
vt 0.601629 0.562225
vt 0.601629 0.030984
vt 0.612864 0.000186
vt 0.612864 0.593023
vt 0.613236 0.568344
vt 0.614460 0.030337
vt 0.645977 0.000186
vt 0.645977 0.569998
vt 0.601256 0.030984
vt 0.601256 0.562225
vt 0.570370 0.593023
vt 0.570370 0.000186
s 0
g Cube.002_Cube.007_wall
usemtl wall
f 1/1/1 2/2/1 4/3/1 3/4/1
f 3/5/2 4/6/2 8/7/2 7/8/2
f 7/9/3 8/10/3 6/11/3 5/12/3
f 1/21/6 5/22/6 6/23/6 2/24/6
g Cube.002_Cube.007_roof
usemtl roof
f 11/13/4 10/14/4 9/15/4 12/16/4
f 4/17/5 2/18/5 9/19/5 10/20/5
f 2/25/7 6/26/7 12/27/7 9/28/7
f 6/29/8 8/30/8 11/31/8 12/32/8
f 8/33/9 4/34/9 10/35/9 11/36/9
